<svg width="70" height="70" viewBox="0 0 70 70" fill="none" xmlns="http://www.w3.org/2000/svg">
<g clip-path="url(#clip0_677_6061)">
<path d="M62.0091 34.5863C63.6314 28.4397 62.6839 23.2386 59.3622 19.9169L50.0814 10.6361C46.7597 7.31436 41.5586 6.36695 35.412 7.98915C29.5844 9.52435 23.5326 13.2096 18.3721 18.3701C13.2116 23.5306 9.52636 29.5824 7.99116 35.41C6.36896 41.5566 7.31638 46.7577 10.6381 50.0794L19.9189 59.3602C23.2406 62.6819 28.4417 63.6293 34.5883 62.0071C40.4081 60.4797 46.4677 56.7867 51.6282 51.6262C56.7887 46.4657 60.474 40.4139 62.0091 34.5863Z" fill="#FAA662"/>
<path d="M62.0091 34.5863C63.6314 28.4397 62.6839 23.2386 59.3622 19.9169L50.0814 10.6361C46.7597 7.31436 41.5586 6.36695 35.412 7.98915C29.5844 9.52435 23.5326 13.2096 18.3721 18.3701C13.2116 23.5306 9.52636 29.5824 7.99116 35.41C6.36896 41.5566 7.31638 46.7577 10.6381 50.0794L19.9189 59.3602C23.2406 62.6819 28.4417 63.6293 34.5883 62.0071C40.4081 60.4797 46.4677 56.7867 51.6282 51.6262C56.7887 46.4657 60.474 40.4139 62.0091 34.5863ZM50.4449 48.1227L43.4843 41.1621C47.0014 37.3937 49.7411 33.2155 51.4619 29.0314L58.2021 35.7715C56.7172 39.9866 54.0238 44.2654 50.4449 48.1227ZM57.042 22.2371C59.2288 24.4239 59.9732 27.8984 59.1959 32.125L52.6491 25.5782L52.7284 25.3055C53.3268 23.1432 53.5749 20.899 53.4631 18.6582L57.042 22.2371ZM11.164 36.2433C12.5542 30.9707 15.9359 25.4467 20.6923 20.6903C25.4487 15.9339 30.9727 12.5522 36.2453 11.162C41.2009 9.84917 45.298 10.493 47.7612 12.9563C50.2245 15.4196 50.8684 19.5166 49.5555 24.4722C48.1653 29.7448 44.7836 35.2688 40.0272 40.0252C35.2708 44.7816 29.7468 48.1633 24.4742 49.5535C19.5187 50.8663 15.4216 50.2225 12.9583 47.7592C10.495 45.2959 9.85119 41.1989 11.164 36.2433ZM22.2391 57.04L18.6602 53.4611C20.901 53.5728 23.1452 53.3248 25.3075 52.7264L25.5802 52.6471L32.127 59.1939C27.9004 59.9712 24.4259 59.2268 22.2391 57.04ZM35.7736 58.2001L29.0334 51.4599C33.2175 49.7391 37.3958 46.9993 41.1641 43.4823L48.1247 50.4429C44.2674 54.0218 39.9886 56.7152 35.7736 58.2001Z" fill="black"/>
<g clip-path="url(#clip1_677_6061)">
<path d="M20.5231 25.8419C19.4021 28.7532 19.8092 32.1055 21.5254 34.0955C22.3964 35.1071 23.5458 35.766 24.7126 36.3374C25.8014 36.8715 26.9448 37.3478 28.1901 37.3843C30.1071 37.4414 32.1242 36.4196 33.7276 34.8979C35.3309 33.3761 36.5577 31.3842 37.5103 29.3095C38.0708 28.0876 38.5512 26.7974 38.6515 25.4969C38.7272 24.5052 38.5776 23.5439 38.3079 22.6543C37.6874 20.6085 36.396 18.905 34.6516 18.0643C34.4639 17.9747 34.2541 17.8747 34.0241 17.771C30.5895 16.2022 26.2792 17.6318 23.4827 21.2394C22.2023 22.8911 20.9807 24.6458 20.5223 25.8385L20.5231 25.8419Z" fill="#F26B3E"/>
</g>
<g clip-path="url(#clip2_677_6061)">
<path d="M24.2929 24.6948C23.6424 26.3841 23.8786 28.3293 24.8744 29.4839C25.3798 30.0709 26.0468 30.4533 26.7238 30.7848C27.3556 31.0947 28.0191 31.3711 28.7416 31.3923C29.854 31.4254 31.0244 30.8325 31.9547 29.9495C32.885 29.0665 33.5969 27.9107 34.1496 26.7069C34.4749 25.9979 34.7536 25.2493 34.8118 24.4946C34.8558 23.9192 34.7689 23.3614 34.6125 22.8452C34.2524 21.6581 33.5031 20.6697 32.4909 20.1819C32.382 20.1299 32.2603 20.0719 32.1268 20.0117C30.1338 19.1014 27.6328 19.9309 26.0102 22.0242C25.2672 22.9826 24.5584 24.0008 24.2924 24.6929L24.2929 24.6948Z" fill="#F62626"/>
</g>
</g>
<defs>
<clipPath id="clip0_677_6061">
<rect width="70" height="70" fill="white"/>
</clipPath>
<clipPath id="clip1_677_6061">
<rect width="17.9587" height="22.1484" fill="white" transform="translate(25.9375 13.1641) rotate(25.4933)"/>
</clipPath>
<clipPath id="clip2_677_6061">
<rect width="12.8516" height="12.8516" fill="white" transform="translate(23.9805 19.4453)"/>
</clipPath>
</defs>
</svg>
