<svg width="54" height="54" viewBox="0 0 54 54" fill="none" xmlns="http://www.w3.org/2000/svg">
<path fill-rule="evenodd" clip-rule="evenodd" d="M36 20.25C36 22.6369 35.0518 24.9261 33.364 26.614C31.6761 28.3018 29.3869 29.25 27 29.25C24.6131 29.25 22.3239 28.3018 20.636 26.614C18.9482 24.9261 18 22.6369 18 20.25C18 17.8631 18.9482 15.5739 20.636 13.886C22.3239 12.1982 24.6131 11.25 27 11.25C29.3869 11.25 31.6761 12.1982 33.364 13.886C35.0518 15.5739 36 17.8631 36 20.25ZM31.5 20.25C31.5 21.4435 31.0259 22.5881 30.182 23.432C29.3381 24.2759 28.1935 24.75 27 24.75C25.8065 24.75 24.6619 24.2759 23.818 23.432C22.9741 22.5881 22.5 21.4435 22.5 20.25C22.5 19.0565 22.9741 17.9119 23.818 17.068C24.6619 16.2241 25.8065 15.75 27 15.75C28.1935 15.75 29.3381 16.2241 30.182 17.068C31.0259 17.9119 31.5 19.0565 31.5 20.25Z" fill="black"/>
<path fill-rule="evenodd" clip-rule="evenodd" d="M27 2.25C13.3313 2.25 2.25 13.3313 2.25 27C2.25 40.6688 13.3313 51.75 27 51.75C40.6688 51.75 51.75 40.6688 51.75 27C51.75 13.3313 40.6688 2.25 27 2.25ZM6.75 27C6.75 31.7025 8.35425 36.0315 11.043 39.4695C12.9317 36.9903 15.3678 34.9811 18.1612 33.5986C20.9545 32.2162 24.0295 31.498 27.1462 31.5C30.2229 31.4964 33.2597 32.1955 36.025 33.5438C38.7904 34.8922 41.2114 36.8543 43.1032 39.2805C45.0528 36.7236 46.3654 33.7392 46.9325 30.5743C47.4996 27.4094 47.305 24.155 46.3646 21.0802C45.4243 18.0055 43.7652 15.1989 41.5248 12.8926C39.2844 10.5863 36.5271 8.84668 33.4809 7.81764C30.4347 6.78861 27.1872 6.49974 24.0072 6.97494C20.8272 7.45014 17.806 8.67576 15.1937 10.5504C12.5814 12.425 10.4531 14.8947 8.98477 17.7552C7.51646 20.6157 6.75041 23.7847 6.75 27ZM27 47.25C22.3513 47.2575 17.8428 45.6583 14.238 42.723C15.6888 40.6454 17.6202 38.9491 19.8677 37.7785C22.1152 36.608 24.6122 35.9978 27.1462 36C29.6486 35.9978 32.1154 36.5928 34.3417 37.7355C36.568 38.8781 38.4895 40.5355 39.9465 42.57C36.3138 45.6008 31.7309 47.2574 27 47.25Z" fill="black"/>
</svg>
