<svg width="82" height="82" viewBox="0 0 82 82" fill="none" xmlns="http://www.w3.org/2000/svg">
<g clip-path="url(#clip0_677_5858)">
<path d="M2.54042 50.8933C3.63042 62.3933 11.8104 72.9333 22.6804 76.8433C28.2004 78.8333 34.1704 79.2033 40.0404 79.2533C45.5204 79.3033 51.1104 79.0733 56.2604 77.2133C64.1904 74.3533 70.4304 67.7333 74.0104 60.1033C77.5904 52.4733 78.7204 43.8733 78.5704 35.4333C78.4804 30.4633 77.9304 25.3933 75.8104 20.8933C74.1904 17.4633 71.7104 14.4933 68.8804 11.9533C62.3704 6.1133 53.7904 2.4833 45.0404 2.4533C36.2904 2.4233 27.4904 6.1633 21.8604 12.8533C21.8604 12.8533 1.44042 39.3733 2.53042 50.8733L2.54042 50.8933Z" fill="white"/>
<path d="M0.0407013 50.8918C0.920701 59.5518 5.1607 67.7118 11.8307 73.3418C15.3407 76.3018 19.3607 78.5218 23.7707 79.8418C28.8707 81.3618 34.2807 81.6918 39.5707 81.7618C44.8607 81.8318 50.4507 81.6518 55.6207 80.0718C60.0307 78.7318 64.0207 76.3418 67.4307 73.2718C74.6307 66.7918 78.7107 57.5218 80.2007 48.0818C81.0307 42.8718 81.2807 37.5518 80.9307 32.2818C80.5807 27.0118 79.4707 21.7718 76.6507 17.2518C71.5507 9.08179 62.5007 3.14179 53.2007 0.96179C43.9007 -1.21821 33.9307 0.34179 26.0807 5.76179C22.1907 8.45179 19.4707 11.8218 16.7807 15.5918C13.3607 20.3718 10.1207 25.2818 7.2107 30.3818C4.3007 35.4818 1.1807 41.2518 0.250701 47.2118C0.0607013 48.4318 -0.0692987 49.6518 0.0307013 50.8918C0.140701 52.2418 1.1007 53.3918 2.5307 53.3918C3.7907 53.3918 5.1507 52.2418 5.0307 50.8918C4.9907 50.4118 4.9807 49.9318 5.0007 49.4518C5.0107 49.1918 5.0407 48.9418 5.0607 48.6818C5.0607 48.5818 5.0807 48.4818 5.0907 48.3818C5.1207 48.0718 5.0107 48.8318 5.1007 48.3418C5.3307 47.1218 5.6207 45.9318 5.9907 44.7518C6.8707 41.9918 7.8107 39.9518 9.1507 37.3118C11.8407 32.0018 15.0107 26.9418 18.3607 22.0318C20.1507 19.3918 21.9407 16.6718 23.9707 14.2018C23.9907 14.1818 24.0007 14.1618 24.0207 14.1418C23.6307 14.6018 24.2807 13.9018 24.4107 13.7618C25.1607 12.9518 25.9607 12.1818 26.8007 11.4618C28.3207 10.1618 30.0207 9.08179 31.7907 8.16179C35.3907 6.29179 39.4307 5.20179 43.4807 5.01179C51.9707 4.60179 60.4607 7.89179 66.8107 13.4718C70.1207 16.3718 72.9807 19.8618 74.4107 24.0818C75.9607 28.6718 76.1607 33.5818 76.0707 38.3918C75.9007 47.5318 73.9507 56.8318 68.6307 64.4318C63.8107 71.3018 56.6207 75.6018 48.2707 76.4718C43.3407 76.9818 38.2507 76.9118 33.3107 76.5018C28.8907 76.1418 24.4107 75.2318 20.4407 73.1718C13.7407 69.6918 8.4807 63.5018 6.1907 56.2918C5.6307 54.5418 5.2207 52.7318 5.0407 50.9018C4.9007 49.5618 3.9907 48.4018 2.5407 48.4018C1.2907 48.4018 -0.0992987 49.5518 0.0407013 50.9018V50.8918Z" fill="#101010"/>
<path d="M62.1884 22.2705V24.6005C62.1784 24.9405 62.2484 25.2705 62.4084 25.5605C62.5084 25.8705 62.6784 26.1405 62.9284 26.3605C63.1584 26.6005 63.4184 26.7805 63.7284 26.8805C64.0284 27.0405 64.3484 27.1105 64.6884 27.1005L65.3484 27.0105C65.7684 26.8905 66.1384 26.6805 66.4484 26.3705L66.8384 25.8605C67.0684 25.4705 67.1784 25.0505 67.1784 24.6005V22.2705C67.1884 21.9305 67.1184 21.6005 66.9584 21.3105C66.8584 21.0005 66.6884 20.7305 66.4384 20.5105C66.2084 20.2705 65.9484 20.0905 65.6384 19.9905C65.3384 19.8305 65.0184 19.7605 64.6784 19.7705L64.0184 19.8605C63.5984 19.9805 63.2284 20.1905 62.9184 20.5005L62.5284 21.0105C62.2984 21.4005 62.1884 21.8205 62.1884 22.2705Z" fill="#101010"/>
<path d="M63.7092 34.1899C63.4192 36.0699 63.4392 37.8699 63.5792 39.7599C63.6992 41.3299 63.9092 43.0099 63.5192 44.5599C63.1292 46.1099 62.0692 47.3499 60.9892 48.5199C59.8592 49.7499 58.6692 50.9299 57.3992 52.0299C52.3492 56.4199 45.5692 59.5499 38.7592 58.2399C37.4392 57.9799 36.0592 58.6099 35.6792 59.9899C35.3392 61.2099 36.0892 62.8099 37.4292 63.0699C45.8292 64.6899 53.8892 61.4599 60.2892 56.1199C63.0892 53.7899 66.2792 50.8899 67.7592 47.4999C68.6192 45.5299 68.7792 43.3999 68.6692 41.2699C68.5692 39.3899 68.2192 37.4099 68.5092 35.5299C68.7192 34.1999 68.1692 32.8399 66.7592 32.4499C65.5692 32.1199 63.8892 32.8499 63.6792 34.1999L63.7092 34.1899Z" fill="#101010"/>
</g>
<defs>
<clipPath id="clip0_677_5858">
<rect width="81.09" height="81.76" fill="white"/>
</clipPath>
</defs>
</svg>
