<svg width="54" height="54" viewBox="0 0 54 54" fill="none" xmlns="http://www.w3.org/2000/svg">
<g clip-path="url(#clip0_677_6036)">
<path fill-rule="evenodd" clip-rule="evenodd" d="M39.918 3.75C41.8948 3.74989 43.7969 4.50517 45.2351 5.86132C46.6734 7.21746 47.5391 9.07194 47.6551 11.0453L47.668 11.5V22.7375L49.2025 22.0555C50.7886 21.3503 52.6176 22.443 52.8191 24.117L52.8346 24.4167V45.0833C52.8351 46.3868 52.3428 47.6423 51.4564 48.5981C50.5701 49.5539 49.3553 50.1393 48.0555 50.2371L47.668 50.25H6.33464C5.03115 50.2504 3.77567 49.7581 2.81989 48.8718C1.8641 47.9855 1.27865 46.7706 1.18089 45.4708L1.16797 45.0833V24.4167C1.16797 22.6807 2.91172 21.4536 4.51855 21.9496L4.80272 22.0555L6.33464 22.7375V11.5C6.33453 9.52321 7.08981 7.62109 8.44595 6.18283C9.80209 4.74457 11.6566 3.87889 13.63 3.76292L14.0846 3.75H39.918ZM47.668 28.3924L29.099 36.6436C28.4386 36.937 27.724 37.0886 27.0013 37.0886C26.2787 37.0886 25.564 36.937 24.9036 36.6436L6.33464 28.395V45.0833H47.668V28.3924ZM39.918 8.91667H14.0846C13.3995 8.91667 12.7424 9.18884 12.2579 9.67331C11.7735 10.1578 11.5013 10.8149 11.5013 11.5V25.0341L27.0013 31.9238L42.5013 25.0341V11.5C42.5013 10.8149 42.2291 10.1578 41.7447 9.67331C41.2602 9.18884 40.6031 8.91667 39.918 8.91667ZM27.0013 16.6667C27.6597 16.6674 28.2931 16.9195 28.7718 17.3715C29.2506 17.8235 29.5387 18.4413 29.5773 19.0986C29.6159 19.7559 29.4021 20.4031 28.9795 20.9081C28.5568 21.413 27.9574 21.7375 27.3036 21.8153L27.0013 21.8333H21.8346C21.1762 21.8326 20.5429 21.5805 20.0641 21.1285C19.5853 20.6765 19.2972 20.0587 19.2586 19.4014C19.22 18.7441 19.4339 18.0969 19.8565 17.5919C20.2791 17.087 20.8786 16.7625 21.5324 16.6847L21.8346 16.6667H27.0013Z" fill="black"/>
</g>
<defs>
<clipPath id="clip0_677_6036">
<rect width="54" height="54" fill="white"/>
</clipPath>
</defs>
</svg>
