<svg width="258" height="123" viewBox="0 0 258 123" fill="none" xmlns="http://www.w3.org/2000/svg">
<g clip-path="url(#clip0_677_5969)">
<path d="M56.9816 45.3222C41.1897 43.9226 26.0115 37.8284 10.1709 37.2064C7.93992 37.1189 5.38749 37.2744 3.9554 38.9948C3.19551 39.9084 2.89351 41.1233 2.6597 42.2897C0.0877851 55.1874 2.4746 69.0085 9.21613 80.3123C9.65453 81.051 10.1514 81.8188 10.9015 82.2465C11.6224 82.6644 12.4895 82.713 13.3273 82.7033C20.4195 82.6158 26.8493 78.6405 32.3926 74.2279C37.9358 69.8153 43.1186 64.7611 49.5679 61.8356" fill="#FEF579"/>
<path d="M56.9815 43.6509C46.4211 42.6789 36.2113 39.6367 25.836 37.5762C20.6727 36.5459 15.4314 35.7198 10.1707 35.5351C8.14436 35.4671 5.9329 35.5837 4.1501 36.6626C1.98735 37.9747 1.32489 40.3171 0.896235 42.6595C-0.837859 52.1457 -0.0682331 62.0693 3.12718 71.1764C3.93577 73.4605 4.88075 75.7057 5.97187 77.8732C6.94608 79.7976 7.99823 82.383 9.89793 83.5785C11.9145 84.8517 14.769 84.3852 16.9804 84.0062C19.1919 83.6271 21.4326 82.8301 23.5271 81.8776C33.5712 77.2803 40.3712 67.8913 50.3958 63.2648C52.3443 62.3706 50.6491 59.4936 48.7105 60.3878C40.4881 64.1784 34.4967 71.1473 27.044 76.0751C23.4687 78.4369 19.4549 80.4585 15.1392 80.9251C14.1747 81.032 12.84 81.2555 11.9145 80.8668C10.989 80.478 10.4922 79.2145 10.0246 78.3883C8.94321 76.4638 7.969 74.4713 7.14092 72.4205C3.84809 64.1881 2.63033 55.1879 3.67273 46.3821C3.79938 45.2935 3.97474 44.2049 4.17932 43.1357C4.36442 42.1541 4.51055 40.9586 5.14379 40.1421C6.25439 38.7037 8.53404 38.8106 10.1512 38.8592C15.0515 39.0341 19.9128 39.7825 24.7059 40.735C35.4515 42.8636 46.0119 45.9738 56.962 46.9749C59.0955 47.1693 59.0858 43.8356 56.962 43.6412L56.9815 43.6509Z" fill="#101010"/>
<path d="M54.7298 47.9967C42.0553 48.2883 29.751 44.7504 17.2519 43.205C16.3459 43.0883 15.5958 44.0506 15.586 44.867C15.5763 45.8584 16.3654 46.4221 17.2519 46.529C29.751 48.0841 42.0358 51.6123 54.7298 51.3207C56.873 51.2721 56.8828 47.9384 54.7298 47.987V47.9967Z" fill="#101010"/>
<path d="M52.6765 52.8541C49.8513 53.9719 46.7728 53.5831 43.8015 53.4956C40.343 53.3984 36.8846 53.3693 33.4164 53.4179C26.5775 53.5151 19.7385 53.9233 12.9288 54.6134C10.8147 54.8272 10.7953 58.161 12.9288 57.9471C19.8944 57.2376 26.8892 56.8294 33.8938 56.7419C37.3522 56.6933 40.8204 56.7322 44.2789 56.8391C47.3866 56.9363 50.6015 57.2376 53.5533 56.0713C55.531 55.2937 54.6639 52.0669 52.6668 52.8639L52.6765 52.8541Z" fill="#101010"/>
<path d="M51.0094 57.3175C38.0914 60.2139 25.3195 63.7323 12.7424 67.8631C10.7161 68.5338 11.5831 71.7509 13.629 71.0705C26.206 66.9398 38.9779 63.4213 51.8959 60.5249C53.9905 60.0584 53.104 56.8412 51.0094 57.3175Z" fill="#101010"/>
<path d="M181.438 29.7917C153.108 33.971 123.658 34.4279 94.8114 31.133C92.824 30.9094 90.6126 30.5595 89.4533 29.3057C88.6447 28.4309 88.5473 27.3035 88.6934 26.2732C89.4143 21.2385 95.1427 17.4285 101.368 15.5624C107.593 13.6962 114.461 13.2977 121.018 12.18C130.146 10.6151 138.661 7.64098 147.253 4.92924C154.472 2.65489 162.431 0.52632 170.108 2.12031C176.324 3.41301 181.302 6.94118 185.764 10.4888C189.164 13.2005 190.05 16.3496 191.346 19.6543C192.398 22.3465 191.278 25.2138 188.443 26.9536C186.368 28.2171 183.854 29.432 181.438 29.7917Z" fill="#FEF579"/>
<path d="M180.998 28.187C165.459 30.4614 149.765 31.5888 134.061 31.6374C126.325 31.6569 118.58 31.4139 110.855 30.9085C106.919 30.646 102.983 30.3253 99.0474 29.9268C97.2841 29.7518 95.4916 29.6158 93.738 29.3242C92.5105 29.1201 90.5133 28.8479 90.299 27.3317C89.958 24.9115 92.1598 22.5108 93.8646 21.1307C96.2807 19.1673 99.2618 17.9038 102.233 17.0485C109.53 14.9394 117.216 14.7255 124.63 13.1899C132.044 11.6542 138.922 9.34094 145.975 7.09574C153.028 4.85054 160.715 2.40124 168.304 3.49954C171.996 4.03411 175.435 5.48231 178.601 7.41649C180.16 8.36899 181.651 9.4187 183.102 10.5267C184.554 11.6347 185.957 12.7039 186.989 14.191C187.905 15.5128 188.529 16.9805 189.103 18.4773C189.639 19.8671 190.37 21.2667 189.902 22.7733C189.386 24.4256 187.964 25.3586 186.522 26.1556C184.778 27.1276 182.966 27.876 180.988 28.1967C178.874 28.5466 179.77 31.7541 181.875 31.4042C183.765 31.0931 185.557 30.3836 187.262 29.5186C188.84 28.7216 190.438 27.808 191.578 26.4375C192.611 25.1934 193.263 23.7161 193.37 22.0929C193.478 20.4697 192.835 18.9341 192.25 17.4178C191.023 14.2298 189.503 11.3723 186.785 9.19515C184.067 7.01799 181.173 4.8797 178.036 3.25655C170.652 -0.563206 162.654 -0.679839 154.675 1.12798C146.696 2.93581 139.107 5.94884 131.265 8.12601C127.3 9.22431 123.286 10.1574 119.214 10.7891C115.141 11.4209 111.059 11.8291 107.016 12.5484C100.372 13.7244 92.6274 15.9696 88.6526 21.8985C86.9867 24.3867 86.0125 28.2259 88.3798 30.5974C89.5489 31.7638 91.2635 32.2692 92.8514 32.5316C94.8973 32.8718 96.9821 33.0467 99.0474 33.2509C107.533 34.1062 116.057 34.6407 124.581 34.8546C141.63 35.2822 158.728 34.4269 175.65 32.2498C177.734 31.9776 179.809 31.6957 181.884 31.3944C182.781 31.2584 183.258 30.1406 183.054 29.3436C182.8 28.3911 181.884 28.0509 180.998 28.1773V28.187Z" fill="#101010"/>
<path d="M144.105 30.4235C142.224 27.0509 141.026 23.9017 141.055 20.1403C141.085 16.0776 140.422 12.3453 138.99 8.53524C138.24 6.54275 135.015 7.40778 135.775 9.41972C136.603 11.6163 137.344 13.8907 137.607 16.2331C137.772 17.7202 137.724 19.2072 137.724 20.6943C137.733 24.8542 139.224 28.5185 141.231 32.105C142.273 33.9808 145.157 32.2994 144.114 30.4235H144.105Z" fill="#101010"/>
<path d="M158.074 30.4232C156.905 28.3044 155.979 26.0106 155.765 23.5807C155.589 21.5493 155.813 19.518 156.067 17.506C156.69 12.6755 156.661 8.17534 154.937 3.53915C154.196 1.54666 150.972 2.41169 151.722 4.42362C152.647 6.91181 153.212 9.46803 153.203 12.1312C153.203 14.2111 152.871 16.2717 152.628 18.3322C152.024 23.26 152.774 27.7212 155.19 32.1047C156.223 33.9806 159.106 32.2991 158.074 30.4232Z" fill="#101010"/>
<path d="M170.214 30.4232C169.045 28.3044 168.12 26.0106 167.905 23.5807C167.73 21.5493 167.954 19.518 168.207 17.506C168.831 12.6755 168.802 8.17534 167.077 3.53915C166.337 1.54666 163.112 2.41169 163.862 4.42362C164.788 6.91181 165.353 9.46803 165.343 12.1312C165.343 14.2111 165.012 16.2717 164.768 18.3322C164.164 23.26 164.914 27.7212 167.331 32.1047C168.363 33.9806 171.247 32.2991 170.214 30.4232Z" fill="#101010"/>
<path d="M182.877 28.9553C180.695 25.0383 179.331 21.0436 178.717 16.6115C178.103 12.1795 177.305 7.81541 175.697 3.53884C174.947 1.55607 171.722 2.41138 172.482 4.42332C174.119 8.78736 174.889 13.1708 175.532 17.7584C176.174 22.346 177.723 26.5643 179.984 30.627C181.026 32.5029 183.91 30.8214 182.867 28.9456L182.877 28.9553Z" fill="#101010"/>
<path d="M131.08 31.8394C130.057 30.0122 129.014 28.1363 128.43 26.1146C128.342 25.7939 128.254 25.4634 128.196 25.133C128.167 24.9969 128.147 24.8608 128.128 24.7248C128.186 25.1427 128.128 24.7539 128.128 24.6567C128.098 24.1416 128.089 23.6265 128.108 23.1113C128.206 19.5151 127.387 16.2202 126.111 12.8476C125.79 12.002 124.981 11.4285 124.055 11.6812C123.247 11.9048 122.575 12.8864 122.886 13.732C123.617 15.6662 124.455 18.203 124.679 19.9525C124.835 21.1188 124.767 22.2852 124.757 23.4515C124.708 27.106 126.452 30.4009 128.196 33.5112C129.248 35.3773 132.132 33.7056 131.08 31.8297V31.8394Z" fill="#101010"/>
<path d="M113.974 31.8417C113.214 30.3352 112.581 29.1008 112.211 27.4582C112.181 27.3221 112.074 26.6806 112.103 26.9236C112.142 27.186 112.074 26.5932 112.074 26.4668C112.055 26.0391 112.065 25.6018 112.065 25.1741C112.084 21.6751 111.003 18.351 109.775 15.1047C109.454 14.2689 108.645 13.6857 107.72 13.9384C106.911 14.1619 106.239 15.1436 106.551 15.9892C107.349 18.0983 108.109 20.2463 108.518 22.4624C108.557 22.6665 108.587 22.8706 108.616 23.0747C108.577 22.7831 108.616 23.0456 108.626 23.1816C108.655 23.4635 108.684 23.7454 108.694 24.0369C108.713 24.5132 108.713 24.9797 108.713 25.456C108.694 28.3913 109.765 30.9378 111.081 33.5231C112.045 35.4379 114.929 33.7564 113.964 31.8417H113.974Z" fill="#101010"/>
<path d="M75.4145 85.5878C75.3658 89.9616 75.6678 98.991 79.175 101.625C82.6821 104.259 88.8099 105.435 92.9601 106.864C100.208 109.362 110.652 113.969 117.9 116.467C136.936 123.027 164.457 122.473 183.99 117.555C190.566 115.903 188.17 111.17 186.63 104.58C185.793 101.013 182.402 98.5147 178.846 97.6011C175.291 96.6875 171.559 97.0568 167.896 97.3484C137.813 99.7394 75.4145 85.5781 75.4145 85.5781V85.5878Z" fill="#FEF579"/>
<path d="M73.7477 85.5893C73.7087 89.7881 73.8451 94.2591 75.1993 98.2732C75.8228 100.13 76.7385 101.879 78.3362 103.065C80.4113 104.601 82.9442 105.514 85.3895 106.302C87.8348 107.089 90.1729 107.662 92.5207 108.469C94.8686 109.276 97.2749 110.209 99.6227 111.132C104.825 113.183 109.979 115.35 115.23 117.275C125.254 120.958 135.912 122.514 146.56 122.893C157.208 123.272 168.772 122.455 179.605 120.259C183.395 119.491 189.036 118.898 189.893 114.242C190.244 112.357 189.815 110.403 189.367 108.566C188.802 106.253 188.412 103.619 187.185 101.558C184.252 96.6501 178.29 95.2602 172.951 95.3671C168.626 95.4546 164.339 95.9697 159.994 95.96C142.936 95.9211 125.839 93.3163 109.063 90.4685C98.1224 88.6023 87.2113 86.5126 76.3781 84.1022C76.2027 84.0633 76.0371 84.0245 75.8617 83.9856C73.7672 83.5093 72.8806 86.7167 74.9752 87.193C83.4216 89.1077 91.9362 90.7698 100.461 92.3152C116.827 95.2991 133.35 97.9039 149.97 98.9341C153.74 99.1674 157.52 99.3132 161.31 99.284C165.655 99.2452 170 98.6037 174.335 98.6911C177.033 98.7495 179.693 99.2646 181.963 100.8C184.028 102.2 184.769 104.037 185.363 106.36C185.84 108.236 186.503 110.15 186.668 112.085C186.785 113.426 186.629 114.544 185.402 115.253C183.551 116.332 180.989 116.575 178.914 117.003C176.42 117.508 173.916 117.936 171.402 118.295C166.103 119.044 160.745 119.452 155.396 119.598C144.816 119.87 134.061 119.141 123.793 116.478C113.885 113.912 104.611 109.285 95.005 105.806C90.5333 104.192 85.5551 103.434 81.3952 101.063C79.8365 100.178 79.0084 99.0702 78.4336 97.379C77.7517 95.3574 77.4399 93.2191 77.2743 91.1002C77.1282 89.2633 77.0795 87.4263 77.099 85.5796C77.1185 83.4413 73.7867 83.4316 73.7574 85.5796L73.7477 85.5893Z" fill="#101010"/>
<path d="M168.79 120.503C168.674 116.518 168.41 112.533 167.612 108.616C166.813 104.699 165.653 100.976 164.66 97.1664C164.114 95.0962 160.899 95.9709 161.445 98.0509C162.419 101.773 163.549 105.477 164.348 109.238C165.147 112.999 165.361 116.722 165.468 120.503C165.527 122.641 168.868 122.651 168.81 120.503H168.79Z" fill="#101010"/>
<path d="M181.474 117.8C181.357 113.815 181.094 109.83 180.295 105.913C179.496 101.996 178.337 98.2733 177.343 94.4633C176.798 92.3931 173.583 93.2678 174.128 95.3478C175.103 99.0703 176.233 102.773 177.032 106.535C177.83 110.296 178.045 114.019 178.152 117.8C178.21 119.938 181.552 119.948 181.494 117.8H181.474Z" fill="#101010"/>
<path d="M151.227 121.329C151.558 117.402 151.889 113.466 151.743 109.52C151.597 105.574 150.993 101.56 150.418 97.6038C150.292 96.7096 149.162 96.2334 148.363 96.4375C147.398 96.6902 147.067 97.6038 147.194 98.4883C147.739 102.24 148.295 106.001 148.412 109.792C148.528 113.583 148.207 117.49 147.885 121.319C147.71 123.458 151.042 123.438 151.227 121.319V121.329Z" fill="#101010"/>
<path d="M133.545 118.734C133.856 114.953 134.158 111.162 133.915 107.371C133.671 103.581 132.999 99.6931 132.454 95.8733C132.327 94.9791 131.197 94.5029 130.398 94.707C129.434 94.9597 129.102 95.8733 129.229 96.7578C129.755 100.364 130.379 103.979 130.593 107.624C130.807 111.269 130.515 115.04 130.203 118.734C130.028 120.872 133.36 120.852 133.545 118.734Z" fill="#101010"/>
<path d="M115.24 114.896C115.551 111.163 115.853 107.412 115.61 103.67C115.366 99.9277 114.694 96.069 114.148 92.2979C114.022 91.4134 112.882 90.9177 112.093 91.1315C111.138 91.4037 110.797 92.2784 110.924 93.1823C111.44 96.7494 112.073 100.316 112.288 103.913C112.502 107.509 112.2 111.251 111.898 114.896C111.723 117.034 115.054 117.014 115.24 114.896Z" fill="#101010"/>
<path d="M94.6236 106.875C94.8769 103.91 95.403 100.936 95.5199 97.9619C95.6368 94.9878 94.9938 91.7901 94.5652 88.7867C94.4385 87.8926 93.2987 87.4066 92.5096 87.6204C91.5549 87.8828 91.2139 88.777 91.3405 89.6712C91.74 92.4316 92.305 95.2794 92.1784 98.0883C92.0517 100.897 91.5354 103.949 91.2821 106.875C91.2042 107.769 92.1004 108.537 92.948 108.537C93.9125 108.537 94.536 107.769 94.6139 106.875H94.6236Z" fill="#101010"/>
<path d="M154.754 25.8809C159.197 26.0558 168.403 23.4996 172.787 24.1994C177.083 24.8797 181.467 24.87 185.812 24.802C199.139 24.5979 226.213 19.6215 239.481 18.3677C242.492 18.0858 245.57 17.7748 248.522 18.4163C251.474 19.0578 254.367 20.8267 255.527 23.6162C256.296 25.4629 256.247 27.5332 256.189 29.5354C255.897 38.8078 240.222 56.021 235.779 64.1756C230.119 74.5657 219.033 80.5432 209.593 87.6773C200.191 94.7822 200.552 94.7045 190.634 101.061C166.571 116.466 111.831 102.325 109.58 101.411C107.369 100.526 88.2547 94.4323 85.9166 93.995C66.4129 90.3696 57.4112 82.3705 47.7373 65.0795C45.9837 61.9498 49.1889 58.0232 49.4032 54.4464C49.6662 50.024 56.4857 43.5411 60.0318 40.8877C62.1946 39.2646 64.7957 35.9405 66.5493 33.2579C68.0885 30.8961 70.6507 29.409 73.4759 29.273C90.9922 28.4371 149.425 25.6767 154.744 25.8809H154.754Z" fill="#FEF579"/>
<path d="M154.755 27.5534C159.304 27.6798 163.834 26.3482 168.345 25.9011C170.683 25.6678 172.778 25.9303 175.096 26.1732C178.418 26.5231 181.77 26.5329 185.111 26.4843C194.249 26.3579 203.368 24.9583 212.399 23.6851C221.43 22.4118 230.256 20.9247 239.248 20.05C243.963 19.5932 251.533 18.7378 253.949 24.1322C254.865 26.1732 254.767 29.0697 254.309 31.1302C253.939 32.7728 253.306 34.3473 252.575 35.8636C248.717 43.8141 242.921 50.7149 237.855 57.8976C235.488 61.2606 233.666 65.0512 231.045 68.2197C227.694 72.2825 223.563 75.5968 219.316 78.6682C214.805 81.9339 210.236 85.1024 205.794 88.4654C202.852 90.7009 199.919 92.9461 196.86 95.0066C193.314 97.3976 189.758 99.9441 185.861 101.742C182.432 103.326 178.73 104.347 175.028 105.066C166.845 106.66 158.379 106.757 150.069 106.31C142.226 105.883 134.423 104.901 126.688 103.521C121.719 102.636 116.761 101.635 111.88 100.333C108.051 99.3123 104.32 97.8447 100.55 96.6492C97.0815 95.5412 93.6036 94.4429 90.1159 93.4126C87.2128 92.5476 84.2707 92.0227 81.3285 91.284C73.1452 89.2235 65.7022 85.5204 59.8277 79.3971C56.8369 76.2869 54.3332 72.7684 52.0535 69.1139C51.4106 68.0739 50.7773 67.0242 50.1733 65.9745C49.5693 64.9248 48.8386 63.982 48.8971 62.7574C49.014 60.2692 50.5532 58.0045 50.9429 55.5552C51.0891 54.6708 51.128 53.8349 51.4593 52.9893C51.8392 52.0368 52.414 51.1426 52.9888 50.3067C54.2942 48.4211 55.9114 46.7397 57.5676 45.1651C59.1263 43.6877 60.8994 42.4631 62.4484 40.9955C64.4065 39.139 66.0724 36.923 67.5824 34.6972C69.0048 32.5978 70.846 31.101 73.4667 30.9261C74.6455 30.8483 75.834 30.8094 77.0128 30.7608C80.0523 30.615 83.0821 30.4693 86.1217 30.3332C93.9056 29.9638 101.68 29.6042 109.464 29.2543C123.307 28.6323 137.16 27.9228 151.014 27.5729C152.251 27.5437 153.508 27.4951 154.745 27.534C156.888 27.6117 156.888 24.2779 154.745 24.2002C150.76 24.0544 146.727 24.3557 142.743 24.5112C135.251 24.7931 127.759 25.1138 120.268 25.4346C105.236 26.0955 90.2036 26.7953 75.1813 27.5048C73.2036 27.602 71.3137 27.7284 69.4821 28.5642C66.8323 29.7695 65.4587 31.9952 63.822 34.2599C62.2827 36.3884 60.5584 38.3518 58.4736 39.9749C56.7297 41.3356 55.0833 42.8422 53.5538 44.4361C51.8977 46.1759 50.2902 48.0615 49.1212 50.1706C48.6535 51.0065 48.2444 51.9007 47.9911 52.8241C47.6696 54.0001 47.6598 55.1956 47.2994 56.3717C46.559 58.7821 45.273 61.1634 45.6043 63.7585C45.9063 66.1495 47.7378 68.4821 48.9848 70.4941C53.6123 77.9781 59.3211 84.8497 67.0564 89.2818C70.9824 91.527 75.2592 93.121 79.6237 94.2776C82.6827 95.0844 85.8002 95.5995 88.8397 96.4937C98.348 99.3026 107.613 102.928 117.316 105.047C132.747 108.419 148.851 110.597 164.672 109.644C172.787 109.158 181.117 107.827 188.462 104.172C192.388 102.218 196.061 99.5942 199.656 97.1157C203.037 94.7831 206.271 92.2463 209.544 89.7678C218.332 83.1197 228.454 77.5407 235.03 68.4627C236.296 66.7132 237.27 64.7887 238.43 62.9712C239.472 61.3286 240.592 59.7443 241.732 58.16C244.431 54.3986 247.217 50.6955 249.828 46.8757C252.439 43.056 254.709 39.4889 256.404 35.4165C258.099 31.344 258.83 26.1052 256.677 22.1299C253.715 16.6482 246.818 16.0553 241.294 16.5218C236.92 16.8911 232.565 17.4743 228.22 18.0769C218.186 19.4668 208.18 21.0608 198.117 22.198C193.879 22.6742 189.612 23.0825 185.345 23.1408C181.925 23.1894 178.496 23.1894 175.096 22.8297C172.719 22.577 170.576 22.3243 168.179 22.577C163.727 23.0339 159.236 24.3363 154.745 24.2099C152.592 24.1516 152.602 27.4757 154.745 27.5437L154.755 27.5534Z" fill="#101010"/>
<path d="M197.619 38.4606C198.535 39.3645 199.879 41.5708 200.512 42.6885C201.691 44.7685 201.613 47.4803 200.376 49.5213C199.139 51.5624 196.81 52.8843 194.414 52.962C192.475 53.0204 190.575 52.3206 188.9 51.3389C187.049 50.2503 185.373 48.7341 184.535 46.761C183.512 44.3603 183.931 41.4153 185.568 39.3936C187.205 37.372 193.936 34.8352 197.619 38.4606Z" fill="#101010"/>
<path d="M212.721 63.0097C216.024 68.7636 222.658 72.3792 229.302 71.9516C230.198 71.8933 230.968 71.2323 230.968 70.2895C230.968 69.4342 230.208 68.5692 229.302 68.6275C223.788 68.9774 218.362 66.1296 215.595 61.3282C214.523 59.4718 211.64 61.1435 212.711 63.0097H212.721Z" fill="#101010"/>
<path d="M131.928 46.9062C123.335 53.0684 122.186 47.6061 107.67 51.3675C103.403 52.4755 86.4321 51.8923 84.8637 56.062C83.4218 59.9012 98.3175 83.4904 101.113 85.0844C103.919 86.6784 105.634 84.161 109.277 82.9266C112.921 81.6923 116.457 79.5929 119.984 77.6004C127.193 73.5085 134.841 69.4554 140.296 62.681" fill="#FEF579"/>
<path d="M131.09 45.4669C129.473 46.6138 127.777 47.6732 125.829 48.1398C124.504 48.4605 122.984 48.4216 121.426 48.3439C119.399 48.2564 117.383 48.1884 115.366 48.3439C112.453 48.5674 109.686 49.2575 106.842 49.8407C105.419 50.1323 103.714 50.2198 102.029 50.3461C99.7689 50.5113 97.5087 50.6571 95.2583 50.8904C93.1345 51.1139 90.9912 51.3667 88.9162 51.8818C87.299 52.2803 85.5064 52.844 84.2789 54.0298C82.1649 56.0709 83.4216 59.1422 84.3764 61.4457C85.9448 65.2363 87.942 68.8423 90.0365 72.3607C92.1311 75.8792 94.1672 79.106 96.5053 82.2843C98.2978 84.7239 100.266 87.7564 103.773 87.1732C105.205 86.9399 106.452 86.1138 107.709 85.4431C109.414 84.5295 111.294 83.9949 113.057 83.1979C116.798 81.5067 120.325 79.3296 123.89 77.2982C130.33 73.634 136.75 69.6587 141.475 63.8465C142.819 62.1942 140.471 59.8323 139.117 61.4943C135.055 66.4804 129.765 70.0475 124.251 73.2452C121.484 74.8586 118.688 76.4429 115.892 77.998C114.343 78.8533 112.784 79.6892 111.157 80.4085C109.53 81.1277 107.884 81.5942 106.335 82.4009C105.4 82.8869 104.435 83.6159 103.403 83.8491C103.003 83.9366 102.653 83.9463 102.263 83.7908C102.087 83.7228 102.01 83.645 101.863 83.5673C101.639 83.4604 102.175 83.8491 101.971 83.645C101.289 82.9938 100.47 82.0316 100.061 81.4873C97.8594 78.6201 95.8915 75.5584 94.0113 72.4774C91.946 69.1047 89.9586 65.6543 88.2829 62.0678C87.6595 60.7459 87.1236 59.5213 86.7145 58.0828C86.6365 57.8107 86.5781 57.5385 86.5099 57.2664C86.4904 57.1886 86.4807 57.1011 86.4612 57.0234C86.393 56.6152 86.4807 57.3927 86.4612 57.0137C86.4612 56.8193 86.4514 56.6249 86.4612 56.4305C86.4125 57.1303 86.4027 56.6054 86.4612 56.5569C86.5781 56.4694 86.2858 56.7901 86.5196 56.4985C86.3053 56.761 86.8801 56.1584 86.6463 56.3527C86.8996 56.1486 87.2016 55.9931 87.4938 55.8473C88.0394 55.5752 88.848 55.3322 89.5884 55.1475C91.5368 54.6518 93.5437 54.3991 95.5408 54.195C99.3987 53.8062 103.315 53.7771 107.144 53.1648C109.803 52.7371 112.375 51.9401 115.074 51.7068C117.266 51.5124 119.438 51.5902 121.64 51.6874C123.345 51.7651 125.059 51.7554 126.725 51.3569C128.937 50.8321 130.944 49.656 132.785 48.3536C134.519 47.1192 132.853 44.2326 131.099 45.4766L131.09 45.4669Z" fill="#101010"/>
<path d="M124.055 57.5203C117.42 59.7461 112.004 64.6641 105.019 65.9762C104.132 66.1415 103.626 67.2106 103.85 68.027C104.103 68.9504 105.009 69.3586 105.905 69.1934C109.5 68.513 112.832 66.919 116.027 65.189C118.931 63.6047 121.785 61.7969 124.941 60.7374C126.968 60.0571 126.101 56.8399 124.055 57.53V57.5203Z" fill="#101010"/>
<path d="M124.572 63.2951C124.416 63.4215 124.25 63.5478 124.094 63.6742C123.783 63.9172 124.162 63.6256 124.075 63.6936C123.977 63.7714 123.87 63.8491 123.773 63.9269C123.344 64.2476 122.925 64.5587 122.497 64.8794C121.435 65.657 120.363 66.4151 119.301 67.1829C117.382 68.5631 115.414 69.9044 113.592 71.4109C112.901 71.9844 112.998 73.1701 113.592 73.763C114.284 74.4531 115.258 74.3365 115.95 73.763C116.106 73.6367 116.271 73.5103 116.427 73.384C116.739 73.141 116.359 73.4326 116.447 73.3645C116.544 73.2868 116.651 73.209 116.749 73.1312C117.177 72.8105 117.596 72.4995 118.025 72.1787C119.087 71.4012 120.158 70.6431 121.22 69.8752C123.14 68.4951 125.107 67.1538 126.929 65.6473C127.621 65.0738 127.523 63.888 126.929 63.2951C126.238 62.6051 125.263 62.7217 124.572 63.2951Z" fill="#101010"/>
<path d="M112.003 56.6446C109.84 56.5765 107.668 56.9653 105.534 57.286C103.401 57.6068 101.706 57.9275 99.5721 57.8692C98.6661 57.84 97.9062 58.6565 97.9062 59.5312C97.9062 60.4546 98.6661 61.1738 99.5721 61.1933C101.735 61.2613 103.907 60.8725 106.041 60.5518C108.174 60.231 109.87 59.9103 112.003 59.9686C112.909 59.9978 113.669 59.1813 113.669 58.3066C113.669 57.3832 112.909 56.664 112.003 56.6446Z" fill="#101010"/>
</g>
<defs>
<clipPath id="clip0_677_5969">
<rect width="258" height="123" fill="white"/>
</clipPath>
</defs>
</svg>
