<svg width="60" height="60" viewBox="0 0 60 60" fill="none" xmlns="http://www.w3.org/2000/svg">
<path fill-rule="evenodd" clip-rule="evenodd" d="M30.0001 13C30.836 13 31.6166 13.4178 32.0803 14.1132L40.5677 26.8444L50.9384 18.5478C51.7589 17.8914 52.9023 17.8181 53.7999 18.3644C54.6975 18.9107 55.1577 19.9599 54.9516 20.9903L49.9516 45.9903C49.7179 47.1589 48.6918 48 47.5001 48H12.5001C11.3084 48 10.2824 47.1589 10.0487 45.9903L5.04868 20.9903C4.84261 19.9599 5.30282 18.9107 6.2004 18.3644C7.09799 17.8181 8.24137 17.8914 9.06187 18.5478L19.4326 26.8444L27.92 14.1132C28.3837 13.4178 29.1643 13 30.0001 13Z" fill="#F6BC47"/>
<path fill-rule="evenodd" clip-rule="evenodd" d="M30.0001 13C30.836 13 31.6166 13.4178 32.0803 14.1132L40.5677 26.8444L50.9384 18.5478C51.7589 17.8914 52.9023 17.8181 53.7999 18.3644C54.6975 18.9107 55.1577 19.9599 54.9516 20.9903L49.9516 45.9903C49.7179 47.1589 48.6918 48 47.5001 48H12.5001C11.3084 48 10.2824 47.1589 10.0487 45.9903L5.04868 20.9903C4.84261 19.9599 5.30282 18.9107 6.2004 18.3644C7.09799 17.8181 8.24137 17.8914 9.06187 18.5478L19.4326 26.8444L27.92 14.1132C28.3837 13.4178 29.1643 13 30.0001 13Z" fill="#F6BC47"/>
<path fill-rule="evenodd" clip-rule="evenodd" d="M30.0001 13C30.836 13 31.6166 13.4178 32.0803 14.1132L40.5677 26.8444L50.9384 18.5478C51.7589 17.8914 52.9023 17.8181 53.7999 18.3644C54.6975 18.9107 55.1577 19.9599 54.9516 20.9903L49.9516 45.9903C49.7179 47.1589 48.6918 48 47.5001 48H12.5001C11.3084 48 10.2824 47.1589 10.0487 45.9903L5.04868 20.9903C4.84261 19.9599 5.30282 18.9107 6.2004 18.3644C7.09799 17.8181 8.24137 17.8914 9.06187 18.5478L19.4326 26.8444L27.92 14.1132C28.3837 13.4178 29.1643 13 30.0001 13ZM30.0001 20.0069L22.0803 31.8868C21.6916 32.4698 21.0761 32.8629 20.3837 32.9704C19.6913 33.0779 18.9855 32.8899 18.4384 32.4522L11.2975 26.7395L14.5496 43H45.4506L48.7027 26.7395L41.5619 32.4522C41.0147 32.8899 40.309 33.0779 39.6166 32.9704C38.9242 32.8629 38.3087 32.4698 37.92 31.8868L30.0001 20.0069Z" fill="black"/>
<path fill-rule="evenodd" clip-rule="evenodd" d="M30.0001 13C30.836 13 31.6166 13.4178 32.0803 14.1132L40.5677 26.8444L50.9384 18.5478C51.7589 17.8914 52.9023 17.8181 53.7999 18.3644C54.6975 18.9107 55.1577 19.9599 54.9516 20.9903L49.9516 45.9903C49.7179 47.1589 48.6918 48 47.5001 48H12.5001C11.3084 48 10.2824 47.1589 10.0487 45.9903L5.04868 20.9903C4.84261 19.9599 5.30282 18.9107 6.2004 18.3644C7.09799 17.8181 8.24137 17.8914 9.06187 18.5478L19.4326 26.8444L27.92 14.1132C28.3837 13.4178 29.1643 13 30.0001 13ZM30.0001 20.0069L22.0803 31.8868C21.6916 32.4698 21.0761 32.8629 20.3837 32.9704C19.6913 33.0779 18.9855 32.8899 18.4384 32.4522L11.2975 26.7395L14.5496 43H45.4506L48.7027 26.7395L41.5619 32.4522C41.0147 32.8899 40.309 33.0779 39.6166 32.9704C38.9242 32.8629 38.3087 32.4698 37.92 31.8868L30.0001 20.0069Z" fill="black"/>
</svg>
