<svg width="32" height="33" viewBox="0 0 32 33" fill="none" xmlns="http://www.w3.org/2000/svg">
<g clip-path="url(#clip0_677_6527)">
<path d="M1.01498 20.6124C1.4448 25.1062 4.67044 29.2249 8.95682 30.7528C11.1335 31.5305 13.4877 31.675 15.8024 31.6946C17.9633 31.7141 20.1677 31.6242 22.1985 30.8974C25.3255 29.7798 27.7861 27.1929 29.1979 24.2114C30.6096 21.2298 31.0552 17.8692 30.996 14.5711C30.9605 12.629 30.7436 10.6478 29.9076 8.88936C29.2688 7.54902 28.2909 6.38844 27.1749 5.39589C24.6078 3.1138 21.2245 1.69532 17.7741 1.68359C17.4034 1.68359 16.9893 1.68359 16.5398 1.69141C9.81252 1.78129 3.97641 6.32592 2.2453 12.7697C1.45269 15.72 0.83359 18.768 1.01104 20.6085L1.01498 20.6124Z" fill="#F45033"/>
<path d="M0.025789 20.6128C0.341254 23.6999 1.74507 26.5876 3.98488 28.7603C5.06534 29.8076 6.33509 30.6985 7.7192 31.3042C9.47003 32.0701 11.3313 32.4257 13.232 32.5742C16.8164 32.8556 20.7913 32.8595 24.0445 31.1479C26.8837 29.6552 29.0446 27.0409 30.2986 24.1414C31.7774 20.7183 32.1954 16.8536 31.9154 13.1569C31.7734 11.3008 31.387 9.45246 30.4524 7.81514C29.5967 6.3185 28.3624 5.0446 27.002 3.99343C24.222 1.84811 20.882 0.703162 17.3606 0.710977C14.3164 0.718793 11.3944 1.32839 8.74446 2.85239C6.272 4.27478 4.18599 6.37321 2.794 8.85068C2.03294 10.2027 1.51636 11.6486 1.12992 13.1452C0.672493 14.9193 0.274218 16.7168 0.0770521 18.5417C0.00212913 19.2295 -0.0333607 19.9211 0.025789 20.6089C0.0691655 21.1364 0.447724 21.5858 1.01162 21.5858C1.50848 21.5858 2.04477 21.1364 1.99745 20.6089C1.8752 19.2099 2.11575 17.7954 2.39178 16.4277C2.70724 14.8412 3.0582 13.2234 3.62209 11.7033C4.49356 9.35086 6.05117 7.27979 8.011 5.70109C9.97083 4.12238 12.3802 3.11811 14.8605 2.78205C17.7589 2.38737 20.7913 2.71171 23.4175 4.0286C26.1739 5.40801 28.7016 7.68619 29.5415 10.7146C29.9831 12.309 30.0423 13.9854 30.0147 15.6305C29.9871 17.2756 29.8136 18.9911 29.4153 20.6284C28.7095 23.5162 27.2859 26.2086 24.9909 28.1624C22.5145 30.2726 19.419 30.722 16.2525 30.7181C13.086 30.7142 9.76972 30.4914 7.02123 28.6978C4.82086 27.2598 3.14101 25.0128 2.39178 22.5119C2.20644 21.8906 2.06448 21.2576 2.00139 20.6128C1.94618 20.0892 1.58734 19.6359 1.01556 19.6359C0.522647 19.6359 -0.0254741 20.0853 0.0297323 20.6128H0.025789Z" fill="#101010"/>
<g clip-path="url(#clip1_677_6527)">
<path d="M6.13022 16.5255C6.38975 19.2145 8.33745 21.679 10.9257 22.5932C12.24 23.0585 13.6615 23.145 15.0592 23.1567C16.364 23.1684 17.695 23.1146 18.9212 22.6797C20.8094 22.011 22.2952 20.4631 23.1476 18.679C24 16.895 24.2691 14.8841 24.2334 12.9106C24.2119 11.7486 24.081 10.5631 23.5762 9.51089C23.1905 8.70888 22.6 8.01443 21.9261 7.42052C20.3761 6.05501 18.3331 5.20623 16.2497 5.19922C16.0259 5.19922 15.7759 5.19922 15.5044 5.2039C11.4423 5.25767 7.91839 7.97702 6.8731 11.8327C6.39451 13.5981 6.02069 15.4219 6.12783 16.5232L6.13022 16.5255Z" fill="white"/>
<path d="M5.53746 16.5257C5.72795 18.3729 6.5756 20.1009 7.92804 21.4009C8.58045 22.0276 9.34715 22.5607 10.1829 22.9231C11.2401 23.3814 12.3639 23.5942 13.5116 23.683C15.676 23.8514 18.0761 23.8537 20.0405 22.8296C21.7548 21.9364 23.0596 20.3721 23.8168 18.6371C24.7097 16.5889 24.9621 14.2764 24.793 12.0644C24.7073 10.9538 24.474 9.8478 23.9097 8.86808C23.393 7.97255 22.6477 7.21029 21.8262 6.58131C20.1476 5.29763 18.1308 4.61253 16.0046 4.61721C14.1664 4.62189 12.402 4.98665 10.802 5.89855C9.30905 6.74966 8.04947 8.00528 7.20896 9.48771C6.74942 10.2967 6.4375 11.1619 6.20416 12.0574C5.92795 13.119 5.68747 14.1945 5.56842 15.2865C5.52318 15.698 5.50175 16.1119 5.53746 16.5234C5.56365 16.8391 5.79223 17.108 6.13272 17.108C6.43274 17.108 6.75656 16.8391 6.72799 16.5234C6.65418 15.6863 6.79942 14.8399 6.96609 14.0215C7.15658 13.0722 7.36849 12.1042 7.70898 11.1946C8.23519 9.787 9.17571 8.54775 10.3591 7.60311C11.5425 6.65847 12.9973 6.05755 14.495 5.85646C16.2451 5.62031 18.0761 5.81438 19.6619 6.60236C21.3262 7.42774 22.8525 8.79092 23.3596 10.603C23.6263 11.557 23.662 12.5601 23.6454 13.5445C23.6287 14.5289 23.5239 15.5554 23.2834 16.5351C22.8572 18.263 21.9977 19.8741 20.6119 21.0432C19.1166 22.3058 17.2475 22.5747 15.3355 22.5724C13.4235 22.57 11.421 22.4367 9.76145 21.3635C8.43282 20.503 7.41849 19.1586 6.96609 17.6621C6.85418 17.2903 6.76847 16.9115 6.73037 16.5257C6.69703 16.2124 6.48036 15.9412 6.13511 15.9412C5.83747 15.9412 5.50651 16.2101 5.53984 16.5257H5.53746Z" fill="#101010"/>
</g>
<g clip-path="url(#clip2_677_6527)">
<path d="M9.82874 15.5744C9.98234 17.1658 11.1351 18.6244 12.6669 19.1655C13.4447 19.4409 14.286 19.4921 15.1132 19.499C15.8855 19.5059 16.6732 19.4741 17.3989 19.2167C18.5164 18.8209 19.3958 17.9048 19.9003 16.8489C20.4047 15.7931 20.564 14.603 20.5428 13.435C20.5302 12.7472 20.4527 12.0456 20.1539 11.4229C19.9256 10.9482 19.5761 10.5372 19.1773 10.1857C18.26 9.37758 17.0509 8.87525 15.8178 8.87109C15.6854 8.87109 15.5374 8.87109 15.3767 8.87386C12.9727 8.90569 10.887 10.5151 10.2684 12.7971C9.98516 13.8419 9.76392 14.9212 9.82733 15.573L9.82874 15.5744Z" fill="#F68A26"/>
<path d="M9.47546 15.5753C9.58819 16.6685 10.0899 17.6912 10.8903 18.4606C11.2764 18.8314 11.7302 19.147 12.2248 19.3615C12.8505 19.6327 13.5156 19.7586 14.1948 19.8112C15.4758 19.9108 16.8963 19.9122 18.0589 19.3061C19.0735 18.7775 19.8457 17.8517 20.2938 16.8249C20.8223 15.6126 20.9717 14.244 20.8716 12.9349C20.8209 12.2776 20.6828 11.623 20.3488 11.0432C20.043 10.5132 19.6019 10.062 19.1158 9.68978C18.1223 8.93006 16.9287 8.52459 15.6703 8.52736C14.5824 8.53013 13.5382 8.746 12.5912 9.2857C11.7076 9.78942 10.9622 10.5325 10.4647 11.4099C10.1927 11.8887 10.0081 12.4007 9.87003 12.9307C9.70656 13.559 9.56423 14.1956 9.49378 14.8418C9.467 15.0854 9.45432 15.3303 9.47546 15.5739C9.49096 15.7607 9.62624 15.9198 9.82775 15.9198C10.0053 15.9198 10.197 15.7607 10.1801 15.5739C10.1364 15.0785 10.2223 14.5775 10.321 14.0932C10.4337 13.5313 10.5591 12.9584 10.7606 12.4201C11.0721 11.587 11.6287 10.8536 12.3291 10.2945C13.0294 9.73545 13.8905 9.3798 14.7768 9.26079C15.8126 9.12103 16.8963 9.23588 17.8348 9.70224C18.8198 10.1907 19.7231 10.9975 20.0233 12.07C20.1811 12.6346 20.2022 13.2283 20.1924 13.8109C20.1825 14.3935 20.1205 15.001 19.9782 15.5808C19.7259 16.6035 19.2172 17.5569 18.3971 18.2488C17.5121 18.9961 16.4059 19.1553 15.2743 19.1539C14.1427 19.1525 12.9576 19.0736 11.9754 18.4384C11.189 17.9292 10.5887 17.1335 10.321 16.2478C10.2547 16.0278 10.204 15.8036 10.1815 15.5753C10.1617 15.3898 10.0335 15.2293 9.82916 15.2293C9.65301 15.2293 9.45714 15.3884 9.47686 15.5753H9.47546Z" fill="#101010"/>
</g>
</g>
<defs>
<clipPath id="clip0_677_6527">
<rect width="32" height="32" fill="white" transform="translate(0 0.710938)"/>
</clipPath>
<clipPath id="clip1_677_6527">
<rect width="19.3222" height="19.1476" fill="white" transform="translate(5.51953 4.61719)"/>
</clipPath>
<clipPath id="clip2_677_6527">
<rect width="11.4356" height="11.3323" fill="white" transform="translate(9.46484 8.52734)"/>
</clipPath>
</defs>
</svg>
