<svg width="80" height="80" viewBox="0 0 80 80" fill="none" xmlns="http://www.w3.org/2000/svg">
<circle cx="40" cy="40" r="40" fill="#F2EEEE"/>
<mask id="mask0_56_2068" style="mask-type:alpha" maskUnits="userSpaceOnUse" x="0" y="0" width="80" height="80">
<circle cx="40" cy="40" r="40" fill="#C4C4C4"/>
</mask>
<g mask="url(#mask0_56_2068)">
</g>
<g clip-path="url(#clip0_56_2068)">
<path d="M22.6606 38.3931C20.2887 33.6294 15.7881 29.9842 10.6526 28.6058C10.123 28.4643 9.57028 28.813 9.49132 29.3592C9.31367 30.5797 9.34986 31.8298 9.59331 33.0372C9.77096 33.9123 10.0605 34.7776 10.0638 35.6691C10.0638 36.4521 9.84663 37.2154 9.68213 37.9786C9.03732 40.9428 9.15905 44.0155 9.22484 47.0422C9.23471 47.4929 9.3696 47.9403 9.65582 48.289C10.5967 49.424 12.0772 48.5851 13.1069 47.8054C14.5018 46.7494 15.946 45.7657 17.4363 44.8544C18.5911 44.1471 19.6504 43.3082 20.6999 42.4495C21.7494 41.5909 23.1245 42.4035 23.0456 40.979L22.6541 38.3931H22.6606Z" fill="#F6D3D0"/>
<path d="M23.1444 38.1102C21.4205 34.6789 18.6372 31.8101 15.3013 29.9184C14.4624 29.4447 13.5906 29.0335 12.6925 28.6847C12.2483 28.5104 11.7943 28.3558 11.337 28.2176C10.8797 28.0794 10.4455 27.9412 9.97832 28.0761C8.86635 28.3952 8.84661 29.6355 8.817 30.5863C8.78081 31.7706 8.97491 32.9122 9.24797 34.0604C9.37957 34.6164 9.50458 35.1723 9.498 35.7481C9.48813 36.3534 9.34009 36.939 9.2052 37.5246C8.93873 38.6958 8.77423 39.8834 8.6887 41.0777C8.60316 42.2719 8.59658 43.4825 8.60974 44.6866C8.61632 45.2887 8.63277 45.8907 8.64593 46.4928C8.65909 47.052 8.66238 47.5949 8.89267 48.1114C9.28087 48.9799 10.1297 49.4964 11.0804 49.3813C12.0312 49.2661 12.7912 48.7365 13.5116 48.1936C14.4591 47.483 15.4263 46.8053 16.4166 46.1572C17.4068 45.5091 18.3971 44.9334 19.3314 44.2326C19.8512 43.8444 20.3611 43.4398 20.8645 43.0318C21.2198 42.7423 21.5455 42.6041 21.9962 42.5318C22.7825 42.4035 23.5095 42.1995 23.6016 41.275C23.6543 40.7618 23.4964 40.1927 23.4174 39.6893C23.3385 39.186 23.2694 38.7188 23.197 38.2352C23.1509 37.9325 22.7726 37.7713 22.5028 37.8404C22.1804 37.926 22.0653 38.2352 22.1081 38.5346C22.2331 39.3571 22.4041 40.1828 22.4831 41.0086C22.4963 41.1336 22.5226 41.1435 22.4568 41.2783C22.4436 41.3079 22.4535 41.2915 22.3877 41.3145C22.2495 41.3672 22.0883 41.3803 21.9436 41.4033C21.1935 41.5185 20.6572 41.7455 20.065 42.2291C19.2492 42.8937 18.4168 43.5418 17.5318 44.1142C16.6469 44.6866 15.7093 45.2558 14.821 45.8644C13.9854 46.4368 13.1958 47.0817 12.3536 47.6376C11.8601 47.9633 11.087 48.4601 10.4619 48.2101C9.53748 47.8383 9.76777 46.3941 9.75132 45.6177C9.72829 44.5189 9.71513 43.4167 9.75132 42.3179C9.78751 41.2191 9.86647 40.1236 10.0441 39.0412C10.2218 37.9589 10.5639 36.9587 10.6166 35.8928C10.6692 34.8269 10.3336 33.8729 10.1329 32.876C9.9191 31.8266 9.86976 30.7179 10.0112 29.6552C10.0507 29.3493 10.1395 29.0993 10.4981 29.142C10.9291 29.1914 11.3995 29.4052 11.8075 29.5467C12.6036 29.8263 13.38 30.1652 14.1268 30.5534C17.5746 32.3496 20.4204 35.1921 22.1673 38.6695C22.493 39.3176 23.4668 38.7484 23.1411 38.1003L23.1444 38.1102Z" fill="#101010"/>
<path d="M13.6828 34.5934C14.1599 35.6363 14.9725 36.5279 15.966 37.097C16.5121 37.4129 17.1175 37.6037 17.7063 37.8241C18.2952 38.0445 18.8775 38.3636 19.4204 38.7124C20.0323 39.1071 20.5981 38.1301 19.9895 37.7386C19.4631 37.3997 18.9137 37.1036 18.3347 36.8635C17.7886 36.6397 17.2096 36.4818 16.6865 36.2055C15.7752 35.7252 15.0843 34.9553 14.6566 34.021C14.5316 33.7447 14.1303 33.6756 13.8868 33.8203C13.6039 33.9881 13.5578 34.3138 13.6861 34.5902L13.6828 34.5934Z" fill="#101010"/>
<path d="M12.7947 39.094C15.0186 39.4953 17.2656 39.7585 19.5225 39.8769C20.2462 39.9164 20.2462 38.788 19.5225 38.7485C17.3643 38.6367 15.2193 38.3899 13.0941 38.005C12.7947 37.9524 12.4854 38.0873 12.3999 38.3998C12.3242 38.6728 12.492 39.038 12.7947 39.094Z" fill="#101010"/>
<path d="M13.1003 44.0615C14.6038 43.545 16.1072 43.0318 17.6074 42.5054C18.3443 42.2488 19.0813 41.9889 19.8149 41.7224C20.4301 41.4987 21.0387 41.2553 21.4895 40.7618C21.9796 40.2288 21.1835 39.4294 20.6933 39.9657C20.2689 40.4295 19.634 40.594 19.0582 40.8013C18.374 41.0447 17.6864 41.2882 17.0021 41.5283C15.6039 42.0152 14.2024 42.4956 12.8009 42.9759C12.1199 43.2095 12.4127 44.2984 13.1003 44.0615Z" fill="#101010"/>
<path d="M24.592 34.9189C25.8849 36.0835 27.747 36.4619 29.4708 36.248C31.1947 36.0342 32.8133 35.2907 34.3234 34.4287C37.4685 32.6423 40.334 30.2868 42.4165 27.3292C42.8178 26.7601 43.1994 26.1449 43.2916 25.454C43.3705 24.8651 43.2291 24.2664 43.0415 23.7038C42.3638 21.6739 41.0314 19.8678 39.2878 18.6242C38.6529 18.1735 37.9422 17.7853 37.1658 17.7097C36.419 17.6406 35.6788 17.8643 34.9847 18.1505C33.0107 18.9664 31.2803 20.2823 29.6946 21.7134C28.0101 23.2333 26.4376 24.9243 25.4112 26.9443C24.5821 28.5728 21.6278 30.9185 22.8582 33.0141C22.9076 33.0996 22.9701 33.1819 23.0326 33.2575C23.4932 33.8234 24.0426 34.4222 24.5887 34.9124L24.592 34.9189Z" fill="#F4B9B3"/>
<path d="M24.1941 35.317C25.7239 36.656 27.7899 37.0606 29.7671 36.7711C31.899 36.4619 33.8696 35.4091 35.6757 34.2807C37.4819 33.1523 39.1465 31.8594 40.6237 30.3526C41.3606 29.5992 42.0449 28.7932 42.67 27.9444C43.2951 27.0957 43.8905 26.1745 43.8839 25.0823C43.8774 23.99 43.4431 22.9998 42.9858 22.0852C42.5285 21.1706 41.9462 20.3481 41.2652 19.6079C39.8539 18.0781 37.9425 16.726 35.7711 17.2853C33.5998 17.8446 31.7937 19.1967 30.1685 20.562C28.5269 21.9437 26.9675 23.4768 25.7634 25.2599C25.2173 26.0692 24.8159 26.9509 24.2237 27.7306C23.6644 28.4642 23.0591 29.1716 22.6084 29.9809C22.1577 30.7902 21.8879 31.6291 22.0754 32.5206C22.1873 33.0569 22.49 33.4747 22.8354 33.8859C23.2598 34.3893 23.7138 34.8696 24.2007 35.3137C24.7369 35.8006 25.5331 35.0078 24.9968 34.5176C24.6218 34.1754 24.2665 33.8136 23.9276 33.4352C23.6283 33.0997 23.296 32.7641 23.1775 32.3167C23.0262 31.7245 23.2697 31.1126 23.5493 30.5994C24.2336 29.3492 25.3061 28.3655 25.9706 27.1055C26.8786 25.3849 28.1683 23.9209 29.5796 22.5918C30.991 21.2627 32.5142 20.0159 34.2479 19.1144C35.0869 18.6802 36.0574 18.213 37.0246 18.2591C37.9392 18.3051 38.7847 18.8907 39.4657 19.4566C40.8211 20.5784 41.8837 22.0589 42.4627 23.7235C42.6206 24.1808 42.7654 24.6612 42.7555 25.1546C42.7424 25.6744 42.5154 26.1416 42.2489 26.5726C41.7686 27.349 41.183 28.0695 40.5776 28.7505C39.3341 30.1519 37.9096 31.3955 36.3732 32.468C34.6197 33.6951 32.6853 34.8795 30.6028 35.442C28.721 35.952 26.5233 35.85 24.9968 34.511C24.454 34.034 23.6546 34.8301 24.2007 35.3072L24.1941 35.317Z" fill="#101010"/>
<path d="M25.6978 43.7292C25.4938 43.7555 25.2931 43.8016 25.0957 43.8773C24.2239 44.2062 23.362 44.7787 22.7468 45.4794C21.9769 46.3545 21.546 47.5882 21.8421 48.7166C22.0723 49.5918 22.6908 50.3057 23.3357 50.9373C24.418 51.9999 25.6254 52.9375 26.9249 53.7238C28.4317 54.6351 30.1292 55.4082 31.0932 56.8821C32.067 58.3691 32.2249 60.4746 33.7283 61.4254C35.2055 62.363 37.2649 61.5734 38.3638 60.2114C39.4626 58.8494 39.8672 57.0795 40.3739 55.4016C40.7785 54.0528 41.2621 52.5757 40.6963 51.286C40.1732 50.0984 38.9296 49.4898 37.7453 49.1575C36.2418 48.7364 34.837 48.7857 33.7415 47.5158C33.3105 47.0158 33.0342 46.3907 32.6065 45.9038C32.2216 45.4663 31.6952 45.1274 31.1787 44.8708C30.1292 44.3477 28.958 44.1207 27.8132 43.9102C27.1322 43.7851 26.3952 43.6404 25.6978 43.7325V43.7292Z" fill="#F4B9B3"/>
<path d="M25.5463 43.1865C23.6151 43.4892 21.6642 45.2361 21.2695 47.1639C20.8122 49.4109 22.4999 51.046 24.079 52.3685C24.9179 53.0725 25.8095 53.7108 26.7504 54.2733C27.586 54.7734 28.4545 55.2241 29.2441 55.7965C30.0337 56.369 30.5831 57.0105 30.9844 57.8461C31.3529 58.6127 31.5963 59.4318 31.978 60.1918C32.3596 60.9518 32.886 61.6328 33.6361 62.021C34.3862 62.4092 35.3205 62.4783 36.1693 62.2644C38.1103 61.7742 39.3045 60.1556 40.0085 58.3824C40.377 57.4612 40.627 56.4973 40.91 55.5465C41.2291 54.4839 41.5942 53.3686 41.4955 52.2435C41.3146 50.1906 39.6039 49.0655 37.7616 48.5753C36.8108 48.322 35.758 48.2628 34.8961 47.7561C33.8828 47.1639 33.5604 45.9697 32.7116 45.2131C31.8628 44.4564 30.6719 43.9761 29.5336 43.6866C28.9151 43.5319 28.29 43.4168 27.6617 43.3049C27.0333 43.1931 26.3556 43.0911 25.691 43.1602C24.9771 43.2359 24.9706 44.3643 25.691 44.2886C26.701 44.18 27.7472 44.4432 28.7309 44.6571C29.7145 44.8709 30.6456 45.1473 31.4779 45.6835C32.3102 46.2198 32.6491 47.0587 33.2446 47.7956C33.7808 48.4602 34.5112 48.901 35.3205 49.1576C36.8272 49.6346 38.6367 49.6281 39.7749 50.8914C41.081 52.3389 40.0019 54.6352 39.5381 56.2209C39.0742 57.8067 38.5182 59.6753 37.0444 60.6491C35.7942 61.4748 34.169 61.5406 33.2709 60.1918C32.3728 58.843 32.1885 57.2967 31.1851 56.0696C30.0435 54.6747 28.3164 53.9476 26.8326 53.0035C25.9213 52.4244 25.0627 51.7665 24.2665 51.0427C23.5164 50.3584 22.6512 49.5853 22.3814 48.5654C21.8485 46.5422 24.0001 44.5617 25.8424 44.2754C26.145 44.2294 26.3062 43.8511 26.2372 43.5813C26.1516 43.2589 25.8424 43.1404 25.543 43.1865H25.5463Z" fill="#101010"/>
<path d="M64.2973 29.0761C63.1129 27.9477 61.8891 26.862 60.5106 25.9738C58.6881 24.8026 56.7108 23.8913 54.7402 23.0063C52.7762 22.1246 50.7825 21.2495 48.6671 20.8383C43.6929 19.8711 38.5113 21.5851 34.2444 24.3189C29.9774 27.0528 26.4342 30.7539 22.7726 34.2543C21.2165 35.7414 19.5222 37.4159 19.3643 39.5642C19.1867 41.9954 21.0487 44.068 22.9075 45.6471C32.277 53.6053 45.5714 57.2702 57.3458 53.7336C61.9121 52.3617 66.3337 49.8088 68.8175 45.7393C69.8341 44.0746 70.5052 42.1599 70.4954 40.209C70.4789 36.35 67.8108 32.4712 65.1263 29.8755C64.85 29.609 64.5736 29.3426 64.294 29.0761H64.2973Z" fill="#F6D3D0"/>
<path d="M64.6953 28.678C62.8925 26.9673 60.991 25.4901 58.79 24.3222C56.5891 23.1543 54.3454 22.1378 52.0524 21.2594C49.7594 20.381 47.5354 19.9237 45.1601 20.0158C42.7849 20.1079 40.6464 20.6409 38.5376 21.4798C34.149 23.2267 30.4479 26.204 27.0231 29.3952C25.3255 30.9776 23.6642 32.6028 21.9995 34.2182C20.5223 35.6492 19.0287 37.2975 18.8149 39.4359C18.6011 41.5743 19.9499 43.5877 21.4304 45.0583C22.9108 46.5288 24.6413 47.802 26.3816 48.9567C29.8689 51.2695 33.7279 53.0493 37.7547 54.1942C45.6964 56.4478 54.7304 56.2635 62.1622 52.4045C65.883 50.4734 69.2518 47.3809 70.5678 43.2982C72.012 38.8207 69.8835 34.4057 66.9917 31.0303C66.2778 30.1946 65.4915 29.4347 64.6986 28.678C64.1723 28.178 63.3761 28.9741 63.9025 29.4742C66.8436 32.2771 69.9197 35.9059 69.9394 40.209C69.9591 44.5121 66.9752 47.9829 63.6919 50.1937C60.4087 52.4045 56.5365 53.6349 52.6479 54.2008C48.7362 54.7666 44.7094 54.5857 40.8438 53.7928C36.9782 53 33.2179 51.5985 29.7504 49.6838C27.9969 48.7133 26.3092 47.6145 24.7202 46.3939C23.1312 45.1734 21.4896 43.8542 20.5289 42.0908C20.0716 41.2519 19.8183 40.2945 19.9565 39.3372C20.0947 38.3798 20.5914 37.508 21.1803 36.7546C21.8054 35.9552 22.5489 35.2577 23.2793 34.557C24.0886 33.7806 24.8946 32.9976 25.7006 32.2179C28.9016 29.1222 32.1981 26.0231 36.1262 23.865C39.8964 21.789 44.3706 20.5356 48.6704 21.4206C50.9898 21.8976 53.1578 22.9076 55.3028 23.8814C57.4478 24.8552 59.5368 25.8652 61.3857 27.2798C62.2707 27.9575 63.0932 28.7142 63.9025 29.4807C64.4289 29.9808 65.2283 29.1847 64.6986 28.6846L64.6953 28.678Z" fill="#101010"/>
<path d="M61.08 32.3496C61.3136 33.3925 61.1524 34.5538 60.6589 35.5013C60.4582 35.8829 60.2542 36.2152 59.8627 36.383C59.4712 36.5508 59.037 36.5705 58.6257 36.5541C57.7572 36.5179 56.7867 36.2678 56.4051 35.4059C56.313 35.1986 56.257 34.9716 56.2044 34.7479C56.1945 34.7052 56.1616 34.4946 56.1715 34.6295C56.1715 34.6065 56.1715 34.5801 56.1715 34.5571C56.1748 34.2972 56.1715 34.0406 56.1715 33.7807V31.9976C56.1715 31.3133 55.1089 31.3133 55.1089 31.9976V33.807C55.1089 34.0735 55.0957 34.3433 55.1089 34.6065C55.1319 35.0999 55.326 35.6493 55.5563 36.0803C56.132 37.1495 57.3624 37.5311 58.504 37.6068C59.0468 37.643 59.6291 37.5969 60.1424 37.4028C60.6984 37.1956 61.0833 36.8469 61.3958 36.3468C62.1788 35.0934 62.4255 33.4978 62.1031 32.0634C61.9551 31.3955 60.9286 31.6785 61.0767 32.3463L61.08 32.3496Z" fill="#101010"/>
<path d="M41.5676 28.4905C41.9492 29.086 42.0644 29.846 41.8834 30.5303C41.8341 30.7145 41.7617 30.8954 41.6334 31.0336C41.3143 31.379 40.7649 31.3593 40.3109 31.2343C39.7812 31.0862 39.2845 30.8296 38.8568 30.4809C38.61 30.2802 38.3797 30.0302 38.3172 29.7209C38.2481 29.3755 38.4028 29.0301 38.5574 28.7175C38.7186 28.3918 38.9489 28.0267 39.3108 28.0003C39.3108 28.0003 41.186 27.8951 41.5676 28.4905Z" fill="#F4B9B3"/>
<path d="M36.2087 32.4976C36.5904 33.0931 36.7055 33.853 36.5246 34.5373C36.4752 34.7216 36.4028 34.9025 36.2745 35.0407C35.9554 35.3861 35.406 35.3664 34.952 35.2414C34.4223 35.0933 33.9256 34.8367 33.4979 34.488C33.2511 34.2873 33.0209 34.0373 32.9583 33.728C32.8893 33.3826 33.0439 33.0372 33.1985 32.7246C33.3597 32.3989 33.59 32.0337 33.9519 32.0074C33.9519 32.0074 35.8271 31.9022 36.2087 32.4976Z" fill="#F4B9B3"/>
<path d="M41.864 34.261C42.2456 34.8565 42.3608 35.6165 42.1798 36.3008C42.1305 36.485 42.0581 36.6659 41.9298 36.8041C41.6107 37.1495 41.0613 37.1298 40.6073 37.0048C40.0776 36.8567 39.5808 36.6001 39.1532 36.2514C38.9064 36.0507 38.6761 35.8007 38.6136 35.4915C38.5445 35.146 38.6992 34.8006 38.8538 34.488C39.015 34.1623 39.2453 33.7972 39.6072 33.7709C39.6072 33.7709 41.4824 33.6656 41.864 34.261Z" fill="#F4B9B3"/>
<path d="M32.0832 37.3338C32.4649 37.9293 32.58 38.6892 32.3991 39.3735C32.3497 39.5577 32.2773 39.7387 32.149 39.8769C31.8299 40.2223 31.2805 40.2026 30.8265 40.0775C30.2968 39.9295 29.8001 39.6729 29.3724 39.3242C29.1257 39.1235 28.8954 38.8735 28.8329 38.5642C28.7638 38.2188 28.9184 37.8733 29.073 37.5608C29.2342 37.2351 29.4645 36.8699 29.8264 36.8436C29.8264 36.8436 31.7016 36.7383 32.0832 37.3338Z" fill="#F4B9B3"/>
<path d="M38.6267 37.9654C39.0083 38.5609 39.1235 39.3208 38.9425 40.0051C38.8932 40.1893 38.8208 40.3703 38.6925 40.5085C38.3734 40.8539 37.824 40.8342 37.37 40.7091C36.8403 40.5611 36.3435 40.3045 35.9159 39.9558C35.6691 39.7551 35.4388 39.505 35.3763 39.1958C35.3072 38.8504 35.4618 38.5049 35.6165 38.1924C35.7777 37.8667 36.008 37.5015 36.3699 37.4752C36.3699 37.4752 38.2451 37.3699 38.6267 37.9654Z" fill="#F4B9B3"/>
</g>
<defs>
<clipPath id="clip0_56_2068">
<rect width="62.4186" height="45.229" fill="white" transform="translate(8.60986 17.1636)"/>
</clipPath>
</defs>
</svg>
