<svg width="54" height="54" viewBox="0 0 54 54" fill="none" xmlns="http://www.w3.org/2000/svg">
<path fill-rule="evenodd" clip-rule="evenodd" d="M11.25 9C10.6533 9 10.081 9.23705 9.65901 9.65901C9.23705 10.081 9 10.6533 9 11.25V42.75C9 43.3467 9.23705 43.919 9.65901 44.341C10.081 44.7629 10.6533 45 11.25 45H42.75C43.3467 45 43.919 44.7629 44.341 44.341C44.7629 43.919 45 43.3467 45 42.75V11.25C45 10.6533 44.7629 10.081 44.341 9.65901C43.919 9.23705 43.3467 9 42.75 9H11.25ZM6.47703 6.47703C7.7429 5.21116 9.45979 4.5 11.25 4.5H42.75C44.5402 4.5 46.2571 5.21116 47.523 6.47703C48.7888 7.7429 49.5 9.45979 49.5 11.25V42.75C49.5 44.5402 48.7888 46.2571 47.523 47.523C46.2571 48.7888 44.5402 49.5 42.75 49.5H11.25C9.45979 49.5 7.7429 48.7888 6.47703 47.523C5.21116 46.2571 4.5 44.5402 4.5 42.75V11.25C4.5 9.45979 5.21116 7.7429 6.47703 6.47703ZM27 22.5C28.2426 22.5 29.25 23.5074 29.25 24.75V38.25C29.25 39.4926 28.2426 40.5 27 40.5C25.7574 40.5 24.75 39.4926 24.75 38.25V24.75C24.75 23.5074 25.7574 22.5 27 22.5ZM33.75 27C34.9926 27 36 28.0074 36 29.25V38.25C36 39.4926 34.9926 40.5 33.75 40.5C32.5074 40.5 31.5 39.4926 31.5 38.25V29.25C31.5 28.0074 32.5074 27 33.75 27ZM20.25 31.5C21.4926 31.5 22.5 32.5074 22.5 33.75V38.25C22.5 39.4926 21.4926 40.5 20.25 40.5C19.0074 40.5 18 39.4926 18 38.25V33.75C18 32.5074 19.0074 31.5 20.25 31.5Z" fill="black"/>
</svg>
