<svg width="993" height="1852" viewBox="0 0 993 1852" fill="none" xmlns="http://www.w3.org/2000/svg">
<rect x="100" y="596.785" width="304" height="604" fill="#88E7FC" stroke="#4B4B4B" stroke-width="4" stroke-linejoin="round"/>
<path d="M145.636 557C145.136 557 144.654 557.188 144.285 557.526L100.649 597.526C100.041 598.083 99.8371 598.956 100.136 599.725C100.435 600.494 101.175 601 102 601H402C402.825 601 403.565 600.494 403.864 599.725C404.163 598.956 403.959 598.083 403.351 597.526L359.715 557.526C359.346 557.188 358.864 557 358.364 557H145.636Z" fill="#31D6FC" stroke="#4B4B4B" stroke-width="4" stroke-linejoin="round"/>
<path d="M255.8 750.38V769H194.34V753.46C199.1 749.633 203.627 745.947 207.92 742.4C212.213 738.76 217.02 734.513 222.34 729.66C224.953 727.327 226.867 724.807 228.08 722.1C229.293 719.393 229.9 716.827 229.9 714.4C229.9 711.88 229.293 709.92 228.08 708.52C227.053 707.493 221.64 706.98 211.84 706.98L202.46 707.12C201.247 707.213 199.753 707.26 197.98 707.26C197.7 705.953 197.373 703.387 197 699.56C196.72 695.733 196.58 692.887 196.58 691.02C207.127 689.153 215.9 688.22 222.9 688.22C232.42 688.22 239.98 690.04 245.58 693.68C251.273 697.227 254.12 703.387 254.12 712.16C254.12 716.36 253.047 720.7 250.9 725.18C248.753 729.567 244.553 734.187 238.3 739.04C234.1 742.307 228.593 746.18 221.78 750.66L255.8 750.38Z" fill="white"/>
<rect x="605" y="676.785" width="304" height="604" fill="#88E7FC" stroke="#4B4B4B" stroke-width="4" stroke-linejoin="round"/>
<path d="M650.636 637C650.136 637 649.654 637.188 649.285 637.526L605.649 677.526C605.041 678.083 604.837 678.956 605.136 679.725C605.435 680.494 606.175 681 607 681H907C907.825 681 908.565 680.494 908.864 679.725C909.163 678.956 908.959 678.083 908.351 677.526L864.715 637.526C864.346 637.188 863.864 637 863.364 637H650.636Z" fill="#31D6FC" stroke="#4B4B4B" stroke-width="4" stroke-linejoin="round"/>
<path d="M782.849 765.08C788.529 765.48 792.609 767.08 795.089 769.88C797.569 772.68 798.809 776.16 798.809 780.32C798.809 786.32 796.569 791.36 792.089 795.44C787.609 799.44 780.449 801.44 770.609 801.44C763.969 801.44 756.569 800.8 748.409 799.52L750.809 786.32C758.009 786.64 762.729 786.8 764.969 786.8C769.369 786.8 772.569 786.24 774.569 785.12C776.649 784 777.689 781.8 777.689 778.52C777.689 776.2 776.929 774.48 775.409 773.36C773.969 772.16 771.889 771.4 769.169 771.08C766.449 770.76 762.569 770.6 757.529 770.6V759.44C762.569 759.44 766.369 759.32 768.929 759.08C771.569 758.76 773.569 758.08 774.929 757.04C776.369 756 777.089 754.36 777.089 752.12C777.089 750.2 777.049 748.68 776.969 747.56C776.889 746.44 776.609 745.72 776.129 745.4C775.489 745 772.649 744.8 767.609 744.8C763.049 744.8 757.489 744.96 750.929 745.28L749.729 732.56C758.449 731.36 765.449 730.76 770.729 730.76C778.409 730.76 784.689 732.24 789.569 735.2C794.529 738.16 797.009 742.96 797.009 749.6C797.009 752.96 795.889 756.16 793.649 759.2C791.489 762.16 787.889 764 782.849 764.72V765.08Z" fill="white"/>
<rect x="352" y="411.785" width="304" height="604" fill="#88E7FC" stroke="#4B4B4B" stroke-width="4" stroke-linejoin="round"/>
<path d="M397.636 372C397.136 372 396.654 372.188 396.285 372.526L352.649 412.526C352.041 413.083 351.837 413.956 352.136 414.725C352.435 415.494 353.175 416 354 416H654C654.825 416 655.565 415.494 655.864 414.725C656.163 413.956 655.959 413.083 655.351 412.526L611.715 372.526C611.346 372.188 610.864 372 610.364 372H397.636Z" fill="#31D6FC" stroke="#4B4B4B" stroke-width="4" stroke-linejoin="round"/>
<path d="M527.217 547.638V650.238H495.717V573.558L473.397 578.238L469.977 559.338L501.837 547.638H527.217Z" fill="white"/>
<path d="M990.571 931.936L990.563 1849.92H496.282H2.00002L2.00713 931.935C2.0075 884.177 40.7229 845.462 88.4807 845.462H248.149H372.219H384.177C400.135 845.462 415.004 840.454 429.158 833.528C439.52 828.458 449.618 822.294 459.5 816.261C463.074 814.08 466.619 811.916 470.138 809.827C478.001 805.16 486.822 802 496.29 802C505.758 802 514.578 805.16 522.441 809.827C525.96 811.916 529.506 814.08 533.079 816.261C542.961 822.294 553.06 828.458 563.421 833.528C577.576 840.454 592.445 845.462 608.402 845.462H620.36H744.43H904.097C951.855 845.462 990.571 884.178 990.571 931.936Z" fill="#C6F2FC" stroke="#4B4B4B" stroke-width="4"/>
<rect x="44" y="911" width="904" height="192" rx="54" fill="white"/>
<circle cx="113.178" cy="1010.6" r="31.104" stroke="#616161" stroke-width="4.1472"/>
<circle cx="253.347" cy="1010.17" r="75.5856" fill="#F2EEEE"/>
<mask id="mask0_704_5009" style="mask-type:alpha" maskUnits="userSpaceOnUse" x="177" y="934" width="152" height="152">
<circle cx="253.347" cy="1010.17" r="75.5856" fill="#C4C4C4"/>
</mask>
<g mask="url(#mask0_704_5009)">
</g>
<rect x="44" y="1143" width="904" height="192" rx="54" fill="white"/>
<circle cx="113.178" cy="1242.6" r="31.104" stroke="#616161" stroke-width="4.1472"/>
<circle cx="253.347" cy="1242.17" r="75.5856" fill="#F2EEEE"/>
<mask id="mask1_704_5009" style="mask-type:alpha" maskUnits="userSpaceOnUse" x="177" y="1166" width="152" height="152">
<circle cx="253.347" cy="1242.17" r="75.5856" fill="#C4C4C4"/>
</mask>
<g mask="url(#mask1_704_5009)">
</g>
<rect x="44" y="1375" width="904" height="192" rx="54" fill="white"/>
<circle cx="113.178" cy="1474.6" r="31.104" stroke="#616161" stroke-width="4.1472"/>
<circle cx="253.347" cy="1474.17" r="75.5856" fill="#F2EEEE"/>
<mask id="mask2_704_5009" style="mask-type:alpha" maskUnits="userSpaceOnUse" x="177" y="1398" width="152" height="152">
<circle cx="253.347" cy="1474.17" r="75.5856" fill="#C4C4C4"/>
</mask>
<g mask="url(#mask2_704_5009)">
</g>
<rect x="44" y="1607" width="904" height="192" rx="54" fill="white"/>
<circle cx="113.178" cy="1706.6" r="31.104" stroke="#616161" stroke-width="4.1472"/>
<circle cx="253.347" cy="1706.17" r="75.5856" fill="#F2EEEE"/>
<mask id="mask3_704_5009" style="mask-type:alpha" maskUnits="userSpaceOnUse" x="177" y="1630" width="152" height="152">
<circle cx="253.347" cy="1706.17" r="75.5856" fill="#C4C4C4"/>
</mask>
<g mask="url(#mask3_704_5009)">
</g>
<circle cx="783" cy="427" r="96" fill="white"/>
<circle cx="232" cy="346" r="96" fill="white"/>
<circle cx="517" cy="156" r="96" fill="white"/>
<path fill-rule="evenodd" clip-rule="evenodd" d="M518 13C518.836 13 519.617 13.4178 520.08 14.1132L528.568 26.8444L538.938 18.5478C539.759 17.8914 540.902 17.8181 541.8 18.3644C542.697 18.9107 543.158 19.9599 542.952 20.9903L537.952 45.9903C537.718 47.1589 536.692 48 535.5 48H500.5C499.308 48 498.282 47.1589 498.049 45.9903L493.049 20.9903C492.843 19.9599 493.303 18.9107 494.2 18.3644C495.098 17.8181 496.241 17.8914 497.062 18.5478L507.433 26.8444L515.92 14.1132C516.384 13.4178 517.164 13 518 13Z" fill="#F6BC47"/>
<path fill-rule="evenodd" clip-rule="evenodd" d="M518 13C518.836 13 519.617 13.4178 520.08 14.1132L528.568 26.8444L538.938 18.5478C539.759 17.8914 540.902 17.8181 541.8 18.3644C542.697 18.9107 543.158 19.9599 542.952 20.9903L537.952 45.9903C537.718 47.1589 536.692 48 535.5 48H500.5C499.308 48 498.282 47.1589 498.049 45.9903L493.049 20.9903C492.843 19.9599 493.303 18.9107 494.2 18.3644C495.098 17.8181 496.241 17.8914 497.062 18.5478L507.433 26.8444L515.92 14.1132C516.384 13.4178 517.164 13 518 13Z" fill="#F6BC47"/>
<path fill-rule="evenodd" clip-rule="evenodd" d="M518 13C518.836 13 519.617 13.4178 520.08 14.1132L528.568 26.8444L538.938 18.5478C539.759 17.8914 540.902 17.8181 541.8 18.3644C542.697 18.9107 543.158 19.9599 542.952 20.9903L537.952 45.9903C537.718 47.1589 536.692 48 535.5 48H500.5C499.308 48 498.282 47.1589 498.049 45.9903L493.049 20.9903C492.843 19.9599 493.303 18.9107 494.2 18.3644C495.098 17.8181 496.241 17.8914 497.062 18.5478L507.433 26.8444L515.92 14.1132C516.384 13.4178 517.164 13 518 13ZM518 20.0069L510.08 31.8868C509.692 32.4698 509.076 32.8629 508.384 32.9704C507.691 33.0779 506.986 32.8899 506.438 32.4522L499.298 26.7395L502.55 43H533.451L536.703 26.7395L529.562 32.4522C529.015 32.8899 528.309 33.0779 527.617 32.9704C526.924 32.8629 526.309 32.4698 525.92 31.8868L518 20.0069Z" fill="black"/>
<path fill-rule="evenodd" clip-rule="evenodd" d="M518 13C518.836 13 519.617 13.4178 520.08 14.1132L528.568 26.8444L538.938 18.5478C539.759 17.8914 540.902 17.8181 541.8 18.3644C542.697 18.9107 543.158 19.9599 542.952 20.9903L537.952 45.9903C537.718 47.1589 536.692 48 535.5 48H500.5C499.308 48 498.282 47.1589 498.049 45.9903L493.049 20.9903C492.843 19.9599 493.303 18.9107 494.2 18.3644C495.098 17.8181 496.241 17.8914 497.062 18.5478L507.433 26.8444L515.92 14.1132C516.384 13.4178 517.164 13 518 13ZM518 20.0069L510.08 31.8868C509.692 32.4698 509.076 32.8629 508.384 32.9704C507.691 33.0779 506.986 32.8899 506.438 32.4522L499.298 26.7395L502.55 43H533.451L536.703 26.7395L529.562 32.4522C529.015 32.8899 528.309 33.0779 527.617 32.9704C526.924 32.8629 526.309 32.4698 525.92 31.8868L518 20.0069Z" fill="black"/>
</svg>
