<svg width="164" height="190" viewBox="0 0 164 190" fill="none" xmlns="http://www.w3.org/2000/svg">
<path d="M130.707 216.986C136.032 213.14 136.81 204.583 133.375 198.867C129.939 193.151 123.328 190.148 116.862 189.672C109.648 189.154 101.77 191.228 95.5531 187.371C83.1603 179.689 88.6198 156.372 76.2997 148.561C68.4218 143.569 55.9252 147.167 50.9225 139.096C48.7221 135.541 49.0127 130.982 48.5353 126.779C47.1652 114.807 38.291 104.143 27.1022 101.042C23.5006 100.048 19.4216 99.5942 16.9305 96.7201C15.4048 94.959 14.7717 92.5928 13.8064 90.4535C9.64437 81.1831 -1.80392 76.2778 -11.031 79.8217C-14.2175 81.0426 -17.2897 83.4197 -18.1512 86.8447C-18.9504 90.0429 -17.6841 93.3491 -16.9887 96.5689C-15.0063 105.677 -17.5699 115.099 -18.3172 124.402C-19.0645 133.704 -17.1755 144.531 -9.45338 149.285C-2.86258 153.336 6.36453 151.867 11.8551 157.42C15.9964 161.613 16.4324 168.225 17.3976 174.157C19.7849 188.776 27.9948 203.297 41.2698 208.645C54.0362 213.788 68.619 209.628 81.9356 212.935C89.2944 214.761 95.9786 218.791 103.265 220.919C110.551 223.048 130.687 217.008 130.687 217.008L130.707 216.986Z" fill="#5AB290"/>
<path d="M129.4 214.652C131.912 212.772 132.918 209.39 132.856 206.322C132.784 202.627 131.081 199.418 128.414 196.997C125.591 194.426 121.75 192.989 118.066 192.492C113.727 191.919 109.326 192.578 104.978 192.46C100.629 192.341 96.3214 191.455 92.8339 188.71C90.3222 186.733 88.4124 184.108 87.0735 181.147C84.3645 175.107 83.5757 168.452 81.8008 162.109C80.1298 156.167 77.5454 151.229 71.6085 149.382C65.1733 147.383 57.4927 148.387 51.8776 144.001C48.2656 141.181 46.8955 137.053 46.4181 132.526C46.1898 130.409 46.1898 128.258 45.8472 126.162C45.5255 124.196 45.0169 122.24 44.3007 120.393C41.6021 113.359 35.8936 107.265 29.0744 104.553C25.2964 103.051 21.0305 102.868 17.5224 100.663C15.5607 99.4318 14.0972 97.6382 13.1008 95.5097C12.2082 93.5865 11.5855 91.566 10.4749 89.7508C6.88367 83.8731 -0.371384 80.5561 -6.96219 81.5177C-10.0967 81.9823 -14.0616 83.5706 -15.4109 86.8228C-16.3139 88.9837 -15.5458 91.512 -15.0061 93.6621C-14.3522 96.266 -13.8748 98.8699 -13.7191 101.56C-13.1378 111.479 -16.4488 121.149 -15.7638 131.068C-15.276 138.188 -12.5047 145.654 -5.56099 148.193C-1.82448 149.565 2.15076 149.933 5.93916 151.099C9.94554 152.331 13.4952 154.525 15.8202 158.22C18.1451 161.915 18.8405 166.323 19.4737 170.559C20.1068 174.794 20.8852 178.759 22.2449 182.725C24.7775 190.137 29.1056 197.278 35.2189 202.043C42.5467 207.759 51.3794 208.699 60.2536 208.764C65.0592 208.796 69.8751 208.666 74.6703 209.066C79.4655 209.466 84.2296 210.546 88.8172 212.329C93.4048 214.112 97.6395 216.219 102.206 217.742C103.006 218.012 103.815 218.261 104.635 218.455C104.77 218.488 104.905 218.509 105.04 218.531C105.424 218.607 104.594 218.477 104.988 218.531C105.331 218.563 105.673 218.596 106.016 218.618C107.365 218.693 108.725 218.639 110.074 218.531C115.513 218.099 121.231 216.759 126.753 215.29C127.843 214.998 128.933 214.706 130.012 214.382C133.23 213.42 134.6 218.628 131.393 219.59C127.438 220.768 123.421 221.751 119.384 222.55C113.084 223.815 106.597 224.938 100.38 222.799C95.6156 221.157 91.0798 218.866 86.3469 217.116C81.614 215.365 76.8707 214.512 71.8887 214.285C62.0492 213.831 51.8672 215.084 42.3287 211.875C34.0461 209.088 27.3307 203.08 22.5978 195.571C17.8649 188.062 15.6749 179.84 14.3463 171.174C13.7236 167.133 13.0697 162.509 10.1635 159.473C7.45454 156.653 3.41702 155.918 -0.18457 155.162C-4.13905 154.319 -8.28033 153.455 -11.6536 151.024C-15.0268 148.593 -17.3725 145.146 -18.8983 141.202C-22.3546 132.278 -20.7769 122.727 -19.5833 113.521C-18.9087 108.356 -18.3482 102.943 -19.3861 97.8003C-20.424 92.6573 -22.3857 87.3306 -18.9813 82.5874C-13.937 75.5536 -3.73424 74.6027 3.65576 77.6172C7.30923 79.1083 10.7136 81.4097 13.2254 84.597C14.5228 86.2393 15.5918 87.9789 16.4014 89.9345C17.211 91.8901 17.8856 94.3104 19.6294 95.6826C21.1447 96.8711 23.1375 97.3141 24.9435 97.757C26.9259 98.2433 28.898 98.7187 30.7974 99.5074C34.7519 101.139 38.3431 103.527 41.4153 106.595C44.4876 109.664 46.7917 113.056 48.4628 116.903C50.3207 121.171 51.0784 125.471 51.4001 130.117C51.5558 132.267 51.6804 134.547 52.5211 136.556C53.1542 138.047 54.161 139.204 55.3338 139.981C58.0117 141.743 61.6029 142.196 64.8723 142.661C68.5258 143.18 72.1689 143.677 75.5837 145.211C78.7286 146.626 81.2819 149.014 83.1605 151.975C86.7829 157.658 87.6962 164.756 89.2739 171.228C90.0419 174.405 90.8619 177.333 92.3046 180.023C93.7473 182.714 95.6882 184.864 98.6774 186.009C102.943 187.641 107.666 187.068 112.098 186.949C116.53 186.83 120.972 187.176 125.144 188.894C129.317 190.612 132.918 193.313 135.378 197.192C137.641 200.747 138.399 205.187 137.807 209.38C137.215 213.572 135.202 216.954 131.995 219.352C130.853 220.206 129.109 219.558 128.445 218.38C127.677 217.018 128.237 215.538 129.379 214.685L129.4 214.652Z" fill="#260305"/>
<path d="M83.1502 226.291C87.116 209.755 72.718 194.932 75.788 178.193C76.4972 174.334 77.253 170.358 79.3991 167.115C85.4364 158.019 99.8156 158.192 105.582 148.904C112.562 137.661 101.71 122.058 106.655 109.719C108.68 104.685 113.01 101.114 116.397 96.9363C119.784 92.7589 122.341 86.8393 119.999 81.9593C118.179 78.1669 114.064 76.3092 110.873 73.6526C104.565 68.3972 101.775 59.0702 104.108 51.0716C105.61 45.922 109.044 41.1094 108.55 35.7577C107.99 29.7707 102.708 25.3816 101.057 19.616C99.3957 13.8023 102.111 6.97791 107.253 4.04219C112.394 1.10646 119.439 2.34813 123.339 6.88166C125.943 9.90402 127.165 14.0525 130.086 16.7573C133.473 19.8951 138.353 20.4149 142.748 21.6469C147.143 22.879 151.893 25.7954 152.285 30.483C152.443 32.4466 151.79 34.3716 151.491 36.3159C150.11 45.2194 156.101 53.3047 159.199 61.7365C163.445 73.2772 162.064 86.8682 155.597 97.254C152.676 101.941 148.739 106.148 147.367 111.528C145.995 116.909 148.785 124.022 154.179 124.282C157.753 134.677 151.006 147.508 140.611 150.097C137.579 150.848 134.341 150.848 131.504 152.176C122.313 156.44 123.246 169.81 123.321 180.205C123.47 200.351 114.111 220.343 98.7332 232.759C98.7332 232.759 81.2934 234.117 83.1596 226.32L83.1502 226.291Z" fill="#5AB290"/>
<path d="M85.3993 226.926C86.9949 220.063 85.7725 213.162 83.6917 206.559C81.6108 199.956 78.9608 193.911 77.981 187.212C77.4958 183.92 77.6824 180.677 78.2983 177.423C78.9141 174.17 79.7633 170.31 81.9188 167.625C85.4086 163.274 91.0819 161.416 95.9714 159.164C101.365 156.681 106.506 153.379 108.876 147.527C111.396 141.319 110.089 134.427 108.942 128.055C107.887 122.222 106.432 115.474 109.138 109.873C110.743 106.542 113.337 103.934 115.772 101.258C118.357 98.4088 120.662 95.4345 122.099 91.7962C123.536 88.1578 123.694 84.2403 122.015 80.7463C120.456 77.4929 117.377 75.4427 114.568 73.4599C111.965 71.6311 109.754 69.5424 108.167 66.6933C106.581 63.8442 105.75 60.8314 105.638 57.6743C105.517 54.2477 106.404 51.1195 107.719 48.0105C109.24 44.4106 110.967 40.7434 110.929 36.7296C110.901 33.1008 109.343 29.8379 107.505 26.8444C105.825 24.1012 103.791 21.3964 103.11 18.1623C101.859 12.3101 105.834 6.0729 111.526 5.00449C114.279 4.49435 117.209 5.14887 119.57 6.6793C122.351 8.48886 123.657 11.6652 125.346 14.4373C127.445 17.8832 130.142 20.251 133.846 21.6756C137.084 22.9269 140.584 23.2734 143.821 24.5054C146.145 25.3813 148.87 26.9888 149.728 29.5395C150.325 31.3298 149.681 33.2067 149.355 34.9778C148.991 36.951 148.851 38.9338 149.056 40.9359C149.859 48.7324 154.319 55.191 156.95 62.3522C159.46 69.1862 159.974 76.7421 158.434 83.8745C157.669 87.4166 156.456 90.8336 154.739 94.01C153.022 97.1863 150.67 100.122 148.664 103.212C146.658 106.302 144.997 109.68 144.708 113.395C144.475 116.37 145.221 119.642 146.835 122.135C148.552 124.773 151.062 126.438 154.16 126.659L151.912 124.888C154.282 132.001 151.51 140.356 145.66 144.938C144.344 145.968 142.851 146.815 141.293 147.344C138.979 148.133 136.524 148.287 134.145 148.778C130.011 149.635 126.475 151.955 124.263 155.689C120.232 162.514 120.867 171.427 120.951 179.088C121.053 188.358 119.374 197.559 115.735 206.059C111.554 215.809 105.191 224.404 97.0632 231.007L98.7148 230.305C96.1394 230.507 93.4987 230.43 90.9326 230.112C90.4661 230.055 91.2592 230.18 90.6434 230.064C90.4101 230.026 90.1768 229.987 89.9435 229.939C89.4863 229.852 89.0291 229.746 88.5812 229.631C88.1333 229.515 87.6761 229.342 87.2188 229.188C86.6403 228.996 87.4335 229.313 87.0229 229.111C86.8176 229.005 86.6123 228.899 86.407 228.784C86.2671 228.697 86.1271 228.601 85.9871 228.514C85.6605 228.312 86.2671 228.861 85.8378 228.389C85.7165 228.255 85.5952 228.129 85.4739 227.995C85.3619 227.86 85.4086 227.918 85.6139 228.178C85.5579 228.091 85.5019 228.014 85.4553 227.927C85.4086 227.841 85.3619 227.754 85.3246 227.658C85.4553 228.004 85.4833 228.052 85.3993 227.812C85.3526 227.658 85.334 227.513 85.2966 227.359C85.4553 228.033 85.334 227.398 85.334 227.177C85.334 226.801 85.2313 227.59 85.3806 226.907C86.0525 223.894 81.5548 222.604 80.883 225.627C78.9235 234.463 90.886 235.281 96.5686 235.194C97.2778 235.185 97.9963 235.175 98.6961 235.108C100.236 234.963 101.617 233.375 102.746 232.365C103.94 231.296 105.097 230.17 106.208 229.005C110.668 224.347 114.484 218.995 117.489 213.229C120.494 207.464 122.77 201.236 124.105 194.835C125.439 188.435 125.626 182.428 125.56 176.095C125.504 170.849 125.411 165.43 127.165 160.454C127.837 158.567 129.041 156.613 130.562 155.429C133.053 153.495 136.217 153.273 139.193 152.763C144.951 151.781 149.756 148.528 153.153 143.667C156.279 139.201 157.939 133.368 157.305 127.872C157.137 126.409 156.857 124.984 156.39 123.589C156.036 122.52 155.224 121.904 154.142 121.818C153.246 121.75 152.322 121.307 151.604 120.586C150.801 119.777 150.204 118.718 149.849 117.621C148.944 114.82 149.252 112.144 150.512 109.439C152.098 106.032 154.44 103.106 156.521 100.026C158.602 96.9457 160.3 93.5576 161.541 89.9866C164.061 82.7291 164.555 74.7593 163.118 67.2131C161.681 59.6668 157.361 53.1793 154.907 45.9122C153.694 42.3123 153.274 38.8568 154.048 35.1029C154.487 32.9661 154.842 30.8293 154.319 28.6732C153.908 26.9984 153.013 25.4872 151.893 24.2263C149.681 21.7141 146.453 20.1644 143.327 19.2692C139.986 18.3163 136.347 17.9313 133.287 16.1506C130.226 14.3699 128.92 11.1262 127.147 8.20973C125.206 5.01412 122.705 2.58853 119.299 1.16398C112.795 -1.55036 105.349 0.596086 101.216 6.41941C99.284 9.13376 98.2109 12.57 98.1922 15.9292C98.1642 19.558 99.5453 22.8595 101.365 25.8915C103.035 28.6924 105.163 31.3875 105.965 34.6313C106.814 38.0771 105.359 41.5134 104.034 44.6224C102.522 48.1741 101.197 51.62 100.954 55.5279C100.749 58.9353 101.3 62.487 102.522 65.6537C103.81 68.9841 105.694 72.0642 108.27 74.5091C110.845 76.9539 113.822 78.3303 116.211 80.727C121.707 86.2423 116.192 93.6923 112.17 98.1008C109.642 100.873 106.963 103.655 105.237 107.062C103.66 110.161 102.97 113.588 102.942 117.082C102.876 123.762 104.995 130.172 105.517 136.785C105.75 139.769 105.704 142.83 104.575 145.631C103.614 148.027 101.887 150.02 99.8905 151.464C95.1783 154.871 89.4863 156.392 84.5128 159.318C81.9188 160.848 79.5673 162.773 77.7664 165.257C75.5176 168.356 74.5192 172.168 73.7914 175.912C73.0635 179.656 72.7743 182.987 73.1942 186.615C73.6141 190.244 74.4165 193.497 75.471 196.837C77.5051 203.315 80.3231 209.668 81.2283 216.464C81.6388 219.515 81.5548 222.624 80.855 225.617C80.1552 228.611 84.6528 229.91 85.3526 226.897L85.3993 226.926Z" fill="#260305"/>
</svg>
