<svg width="367" height="225" viewBox="0 0 367 225" fill="none" xmlns="http://www.w3.org/2000/svg">
<g clip-path="url(#clip0_699_19728)">
<path d="M196.751 240.412C192.011 250.732 176.381 250.392 167.191 243.732C158.001 237.072 152.471 226.492 144.171 218.742C139.251 214.142 133.341 210.512 129.351 205.082C122.751 196.092 122.441 183.532 115.471 174.832C110.121 168.142 101.201 164.242 97.9905 156.302C95.4605 150.052 97.1805 142.972 96.6505 136.242C95.7705 125.022 88.7405 115.402 82.9805 105.722C80.6405 101.782 78.4105 97.062 80.0905 92.792C82.4905 86.682 91.2105 85.992 97.1905 88.702C103.171 91.412 108.051 96.342 114.301 98.382C118.171 99.652 122.421 99.752 126.081 101.552C138.251 107.542 135.541 125.802 142.321 137.542C148.771 148.722 164.261 154.302 166.441 167.022C167.771 174.792 163.421 183.052 166.131 190.452C169.201 198.852 179.331 201.642 187.161 205.952C198.871 212.402 207.141 228.712 198.771 239.152" fill="#5AB290"/>
<path d="M194.591 239.15C192.261 244.09 187.281 246.02 181.971 245.99C175.951 245.95 170.401 243.52 165.851 239.46C160.041 234.29 155.691 227.76 150.631 221.91C148.051 218.92 145.231 216.23 142.181 213.73C139.131 211.23 135.911 208.78 133.211 205.84C128.121 200.32 126.321 192.96 123.911 186.05C122.661 182.49 121.251 178.91 119.201 175.73C117.151 172.55 114.661 170.1 111.891 167.74C106.621 163.26 100.601 159.15 99.3614 151.86C98.6514 147.67 99.2814 143.31 99.2614 139.09C99.2414 134.87 98.5414 130.77 97.1714 126.82C94.4314 118.96 89.7214 112.07 85.4714 104.98C83.5914 101.85 81.1414 97.8301 82.3014 94.0401C83.0614 91.5501 85.2714 90.3901 87.8214 89.8601C94.5714 88.4501 100.471 93.4401 105.951 96.9401C109.481 99.1901 113.141 100.84 117.251 101.69C120.681 102.4 124.521 103.03 127.181 105.14C131.541 108.61 132.981 114.38 134.231 119.75C135.661 125.88 136.711 132.21 139.651 137.85C142.591 143.49 147.691 147.8 152.491 151.95C156.841 155.72 161.741 159.85 163.481 165.4C164.581 168.9 164.211 172.55 163.671 176.12C163.051 180.26 162.351 184.38 163.051 188.55C164.261 195.76 170.231 200.26 176.341 203.38C179.351 204.92 182.471 206.26 185.451 207.86C188.281 209.38 190.761 211.34 192.921 213.71C196.961 218.12 199.941 224.09 199.651 230.08C199.531 232.59 198.651 235.27 197.001 237.38C196.171 238.44 195.961 239.88 197.001 240.92C197.871 241.79 199.701 241.99 200.541 240.92C209.951 228.92 201.591 212.48 190.421 205.01C184.761 201.22 177.741 199.57 172.511 195.09C170.001 192.94 168.221 190.22 167.821 186.89C167.331 182.76 168.391 178.56 168.901 174.49C169.371 170.65 169.341 166.71 167.941 163.06C166.731 159.9 164.851 157.15 162.591 154.64C158.171 149.73 152.631 146 148.141 141.16C146.041 138.89 144.301 136.36 143.081 133.51C141.861 130.66 141.091 127.5 140.381 124.45C138.971 118.32 137.981 111.75 134.651 106.29C133.041 103.64 130.841 101.35 128.131 99.8101C124.231 97.6001 119.781 97.4001 115.571 96.1501C107.901 93.8801 102.461 86.9501 94.5614 85.1901C88.0314 83.7401 79.8814 85.4501 77.5214 92.5101C76.0314 96.9801 77.8914 101.74 80.0514 105.64C82.2114 109.54 84.5914 113.05 86.7914 116.8C88.9914 120.55 90.8814 124.04 92.2614 127.95C93.6414 131.86 94.3014 135.96 94.2414 140.2C94.1714 144.75 93.7214 149.32 94.6414 153.83C95.4314 157.72 97.4614 161.12 100.131 164.01C105.041 169.33 111.701 172.86 115.461 179.22C119.431 185.94 120.751 193.84 124.011 200.88C125.751 204.62 128.131 207.95 131.091 210.83C134.051 213.71 137.411 216.15 140.541 218.85C146.741 224.19 151.331 230.95 156.631 237.12C161.451 242.73 167.021 247.77 174.271 249.86C180.281 251.59 187.361 251.55 192.861 248.27C195.471 246.71 197.601 244.42 198.901 241.67C199.481 240.45 199.241 238.97 198.001 238.25C196.911 237.61 195.161 237.92 194.581 239.15H194.591Z" fill="#260305"/>
<path d="M192.639 235.062C196.889 217.882 181.459 202.482 184.749 185.092C185.509 181.082 186.319 176.952 188.619 173.582C195.089 164.132 210.499 164.312 216.679 154.662C224.159 142.982 212.529 126.772 217.829 113.952C219.999 108.722 224.639 105.012 228.269 100.672C231.899 96.3316 234.639 90.1816 232.129 85.1116C230.179 81.1716 225.769 79.2416 222.349 76.4816C215.589 71.0216 212.599 61.3316 215.099 53.0216C216.709 47.6716 220.389 42.6716 219.859 37.1116C219.259 30.8916 213.599 26.3316 211.829 20.3416C210.049 14.3016 212.959 7.21162 218.469 4.16162C223.979 1.11162 231.529 2.40162 235.709 7.11162C238.499 10.2516 239.809 14.5616 242.939 17.3716C246.569 20.6316 251.799 21.1716 256.509 22.4516C261.219 23.7316 266.309 26.7616 266.729 31.6316C266.899 33.6716 266.199 35.6716 265.879 37.6916C264.399 46.9416 270.819 55.3416 274.139 64.1016C278.689 76.0916 277.209 90.2116 270.279 101.002C267.149 105.872 262.929 110.242 261.459 115.832C259.989 121.422 262.979 128.812 268.759 129.082C272.589 139.882 265.359 153.212 254.219 155.902C250.969 156.682 247.499 156.682 244.459 158.062C234.609 162.492 235.609 176.382 235.689 187.182C235.849 208.112 225.819 228.882 209.339 241.782C209.339 241.782 190.649 243.192 192.649 235.092L192.639 235.062Z" fill="#5AB290"/>
<path d="M195.05 235.72C196.76 228.59 195.45 221.42 193.22 214.56C190.99 207.7 188.15 201.42 187.1 194.46C186.58 191.04 186.78 187.67 187.44 184.29C188.1 180.91 189.01 176.9 191.32 174.11C195.06 169.59 201.14 167.66 206.38 165.32C212.16 162.74 217.67 159.31 220.21 153.23C222.91 146.78 221.51 139.62 220.28 133C219.15 126.94 217.59 119.93 220.49 114.11C222.21 110.65 224.99 107.94 227.6 105.16C230.37 102.2 232.84 99.1102 234.38 95.3302C235.92 91.5502 236.09 87.4802 234.29 83.8502C232.62 80.4702 229.32 78.3402 226.31 76.2802C223.52 74.3802 221.15 72.2102 219.45 69.2502C217.75 66.2902 216.86 63.1602 216.74 59.8802C216.61 56.3202 217.56 53.0702 218.97 49.8402C220.6 46.1002 222.45 42.2902 222.41 38.1202C222.38 34.3502 220.71 30.9602 218.74 27.8502C216.94 25.0002 214.76 22.1902 214.03 18.8302C212.69 12.7502 216.95 6.27023 223.05 5.16023C226 4.63023 229.14 5.31023 231.67 6.90023C234.65 8.78023 236.05 12.0802 237.86 14.9602C240.11 18.5402 243 21.0002 246.97 22.4802C250.44 23.7802 254.19 24.1402 257.66 25.4202C260.15 26.3302 263.07 28.0002 263.99 30.6502C264.63 32.5102 263.94 34.4602 263.59 36.3002C263.2 38.3502 263.05 40.4102 263.27 42.4902C264.13 50.5902 268.91 57.3002 271.73 64.7402C274.42 71.8402 274.97 79.6902 273.32 87.1002C272.5 90.7802 271.2 94.3302 269.36 97.6302C267.52 100.93 265 103.98 262.85 107.19C260.7 110.4 258.92 113.91 258.61 117.77C258.36 120.86 259.16 124.26 260.89 126.85C262.73 129.59 265.42 131.32 268.74 131.55L266.33 129.71C268.87 137.1 265.9 145.78 259.63 150.54C258.22 151.61 256.62 152.49 254.95 153.04C252.47 153.86 249.84 154.02 247.29 154.53C242.86 155.42 239.07 157.83 236.7 161.71C232.38 168.8 233.06 178.06 233.15 186.02C233.26 195.65 231.46 205.21 227.56 214.04C223.08 224.17 216.26 233.1 207.55 239.96L209.32 239.23C206.56 239.44 203.73 239.36 200.98 239.03C200.48 238.97 201.33 239.1 200.67 238.98C200.42 238.94 200.17 238.9 199.92 238.85C199.43 238.76 198.94 238.65 198.46 238.53C197.98 238.41 197.49 238.23 197 238.07C196.38 237.87 197.23 238.2 196.79 237.99C196.57 237.88 196.35 237.77 196.13 237.65C195.98 237.56 195.83 237.46 195.68 237.37C195.33 237.16 195.98 237.73 195.52 237.24C195.39 237.1 195.26 236.97 195.13 236.83C195.01 236.69 195.06 236.75 195.28 237.02C195.22 236.93 195.16 236.85 195.11 236.76C195.06 236.67 195.01 236.58 194.97 236.48C195.11 236.84 195.14 236.89 195.05 236.64C195 236.48 194.98 236.33 194.94 236.17C195.11 236.87 194.98 236.21 194.98 235.98C194.98 235.59 194.87 236.41 195.03 235.7C195.75 232.57 190.93 231.23 190.21 234.37C188.11 243.55 200.93 244.4 207.02 244.31C207.78 244.3 208.55 244.29 209.3 244.22C210.95 244.07 212.43 242.42 213.64 241.37C214.92 240.26 216.16 239.09 217.35 237.88C222.13 233.04 226.22 227.48 229.44 221.49C232.66 215.5 235.1 209.03 236.53 202.38C237.96 195.73 238.16 189.49 238.09 182.91C238.03 177.46 237.93 171.83 239.81 166.66C240.53 164.7 241.82 162.67 243.45 161.44C246.12 159.43 249.51 159.2 252.7 158.67C258.87 157.65 264.02 154.27 267.66 149.22C271.01 144.58 272.79 138.52 272.11 132.81C271.93 131.29 271.63 129.81 271.13 128.36C270.75 127.25 269.88 126.61 268.72 126.52C267.76 126.45 266.77 125.99 266 125.24C265.14 124.4 264.5 123.3 264.12 122.16C263.15 119.25 263.48 116.47 264.83 113.66C266.53 110.12 269.04 107.08 271.27 103.88C273.5 100.68 275.32 97.1602 276.65 93.4502C279.35 85.9102 279.88 77.6302 278.34 69.7902C276.8 61.9502 272.17 55.2102 269.54 47.6602C268.24 43.9202 267.79 40.3302 268.62 36.4302C269.09 34.2102 269.47 31.9902 268.91 29.7502C268.47 28.0102 267.51 26.4402 266.31 25.1302C263.94 22.5202 260.48 20.9102 257.13 19.9802C253.55 18.9902 249.65 18.5902 246.37 16.7402C243.09 14.8902 241.69 11.5202 239.79 8.49023C237.71 5.17023 235.03 2.65023 231.38 1.17023C224.41 -1.64977 216.43 0.580226 212 6.63023C209.93 9.45023 208.78 13.0202 208.76 16.5102C208.73 20.2802 210.21 23.7102 212.16 26.8602C213.95 29.7702 216.23 32.5702 217.09 35.9402C218 39.5202 216.44 43.0902 215.02 46.3202C213.4 50.0102 211.98 53.5902 211.72 57.6502C211.5 61.1902 212.09 64.8802 213.4 68.1702C214.78 71.6302 216.8 74.8302 219.56 77.3702C222.32 79.9102 225.51 81.3402 228.07 83.8302C233.96 89.5602 228.05 97.3002 223.74 101.88C221.03 104.76 218.16 107.65 216.31 111.19C214.62 114.41 213.88 117.97 213.85 121.6C213.78 128.54 216.05 135.2 216.61 142.07C216.86 145.17 216.81 148.35 215.6 151.26C214.57 153.75 212.72 155.82 210.58 157.32C205.53 160.86 199.43 162.44 194.1 165.48C191.32 167.07 188.8 169.07 186.87 171.65C184.46 174.87 183.39 178.83 182.61 182.72C181.83 186.61 181.52 190.07 181.97 193.84C182.42 197.61 183.28 200.99 184.41 204.46C186.59 211.19 189.61 217.79 190.58 224.85C191.02 228.02 190.93 231.25 190.18 234.36C189.43 237.47 194.25 238.82 195 235.69L195.05 235.72Z" fill="#260305"/>
<path d="M220.702 240.332C215.572 236.772 214.822 228.852 218.132 223.562C221.442 218.272 227.812 215.492 234.042 215.052C240.992 214.572 248.582 216.492 254.572 212.922C266.512 205.812 261.252 184.232 273.122 177.002C280.712 172.382 292.752 175.712 297.572 168.242C299.692 164.952 299.412 160.732 299.872 156.842C301.192 145.762 309.742 135.892 320.522 133.022C323.992 132.102 327.922 131.682 330.322 129.022C331.792 127.392 332.402 125.202 333.332 123.222C337.342 114.642 348.372 110.102 357.262 113.382C360.332 114.512 363.292 116.712 364.122 119.882C364.892 122.842 363.672 125.902 363.002 128.882C361.092 137.312 363.562 146.032 364.282 154.642C365.002 163.252 363.182 173.272 355.742 177.672C349.392 181.422 340.502 180.062 335.212 185.202C331.222 189.082 330.802 195.202 329.872 200.692C327.572 214.222 319.662 227.662 306.872 232.612C294.572 237.372 280.522 233.522 267.692 236.582C260.602 238.272 254.162 242.002 247.142 243.972C240.122 245.942 220.722 240.352 220.722 240.352L220.702 240.332Z" fill="#5AB290"/>
<path d="M221.962 238.171C219.542 236.431 218.572 233.301 218.632 230.461C218.702 227.041 220.342 224.071 222.912 221.831C225.632 219.451 229.332 218.121 232.882 217.661C237.062 217.131 241.302 217.741 245.492 217.631C249.682 217.521 253.832 216.701 257.192 214.161C259.612 212.331 261.452 209.901 262.742 207.161C265.352 201.571 266.112 195.411 267.822 189.541C269.432 184.041 271.922 179.471 277.642 177.761C283.842 175.911 291.242 176.841 296.652 172.781C300.132 170.171 301.452 166.351 301.912 162.161C302.132 160.201 302.132 158.211 302.462 156.271C302.772 154.451 303.262 152.641 303.952 150.931C306.552 144.421 312.052 138.781 318.622 136.271C322.262 134.881 326.372 134.711 329.752 132.671C331.642 131.531 333.052 129.871 334.012 127.901C334.872 126.121 335.472 124.251 336.542 122.571C340.002 117.131 346.992 114.061 353.342 114.951C356.362 115.381 360.182 116.851 361.482 119.861C362.352 121.861 361.612 124.201 361.092 126.191C360.462 128.601 360.002 131.011 359.852 133.501C359.292 142.681 362.482 151.631 361.822 160.811C361.352 167.401 358.682 174.311 351.992 176.661C348.392 177.931 344.562 178.271 340.912 179.351C337.052 180.491 333.632 182.521 331.392 185.941C329.152 189.361 328.482 193.441 327.872 197.361C327.262 201.281 326.512 204.951 325.202 208.621C322.762 215.481 318.592 222.091 312.702 226.501C305.642 231.791 297.132 232.661 288.582 232.721C283.952 232.751 279.312 232.631 274.692 233.001C270.072 233.371 265.482 234.371 261.062 236.021C256.642 237.671 252.562 239.621 248.162 241.031C247.392 241.281 246.612 241.511 245.822 241.691C245.692 241.721 245.562 241.741 245.432 241.761C245.062 241.831 245.862 241.711 245.482 241.761C245.152 241.791 244.822 241.821 244.492 241.841C243.192 241.911 241.882 241.861 240.582 241.761C235.342 241.361 229.832 240.121 224.512 238.761C223.462 238.491 222.412 238.221 221.372 237.921C218.272 237.031 216.952 241.851 220.042 242.741C223.852 243.831 227.722 244.741 231.612 245.481C237.682 246.651 243.932 247.691 249.922 245.711C254.512 244.191 258.882 242.071 263.442 240.451C268.002 238.831 272.572 238.041 277.372 237.831C286.852 237.411 296.662 238.571 305.852 235.601C313.832 233.021 320.302 227.461 324.862 220.511C329.422 213.561 331.532 205.951 332.812 197.931C333.412 194.191 334.042 189.911 336.842 187.101C339.452 184.491 343.342 183.811 346.812 183.111C350.622 182.331 354.612 181.531 357.862 179.281C361.112 177.031 363.372 173.841 364.842 170.191C368.172 161.931 366.652 153.091 365.502 144.571C364.852 139.791 364.312 134.781 365.312 130.021C366.312 125.261 368.202 120.331 364.922 115.941C360.062 109.431 350.232 108.551 343.112 111.341C339.592 112.721 336.312 114.851 333.892 117.801C332.642 119.321 331.612 120.931 330.832 122.741C330.052 124.551 329.402 126.791 327.722 128.061C326.262 129.161 324.342 129.571 322.602 129.981C320.692 130.431 318.792 130.871 316.962 131.601C313.152 133.111 309.692 135.321 306.732 138.161C303.772 141.001 301.552 144.141 299.942 147.701C298.152 151.651 297.422 155.631 297.112 159.931C296.962 161.921 296.842 164.031 296.032 165.891C295.422 167.271 294.452 168.341 293.322 169.061C290.742 170.691 287.282 171.111 284.132 171.541C280.612 172.021 277.102 172.481 273.812 173.901C270.782 175.211 268.322 177.421 266.512 180.161C263.022 185.421 262.142 191.991 260.622 197.981C259.882 200.921 259.092 203.631 257.702 206.121C256.312 208.611 254.442 210.601 251.562 211.661C247.452 213.171 242.902 212.641 238.632 212.531C234.362 212.421 230.082 212.741 226.062 214.331C222.042 215.921 218.572 218.421 216.202 222.011C214.022 225.301 213.292 229.411 213.862 233.291C214.432 237.171 216.372 240.301 219.462 242.521C220.562 243.311 222.242 242.711 222.882 241.621C223.622 240.361 223.082 238.991 221.982 238.201L221.962 238.171Z" fill="#260305"/>
</g>
<g clip-path="url(#clip1_699_19728)">
<path d="M119.751 240.412C115.011 250.732 99.3805 250.392 90.1905 243.732C81.0005 237.072 75.4705 226.492 67.1705 218.742C62.2505 214.142 56.3405 210.512 52.3505 205.082C45.7505 196.092 45.4405 183.532 38.4705 174.832C33.1205 168.142 24.2005 164.242 20.9905 156.302C18.4605 150.052 20.1805 142.972 19.6505 136.242C18.7705 125.022 11.7405 115.402 5.98051 105.722C3.64051 101.782 1.41051 97.062 3.09051 92.792C5.49051 86.682 14.2105 85.992 20.1905 88.702C26.1705 91.412 31.0505 96.342 37.3005 98.382C41.1705 99.652 45.4205 99.752 49.0805 101.552C61.2505 107.542 58.5405 125.802 65.3205 137.542C71.7705 148.722 87.2605 154.302 89.4405 167.022C90.7705 174.792 86.4205 183.052 89.1305 190.452C92.2005 198.852 102.331 201.642 110.161 205.952C121.871 212.402 130.141 228.712 121.771 239.152" fill="#5AB290"/>
<path d="M117.591 239.15C115.261 244.09 110.281 246.02 104.971 245.99C98.9514 245.95 93.4014 243.52 88.8514 239.46C83.0414 234.29 78.6914 227.76 73.6314 221.91C71.0514 218.92 68.2314 216.23 65.1814 213.73C62.1314 211.23 58.9114 208.78 56.2114 205.84C51.1214 200.32 49.3214 192.96 46.9114 186.05C45.6614 182.49 44.2514 178.91 42.2014 175.73C40.1514 172.55 37.6614 170.1 34.8914 167.74C29.6214 163.26 23.6014 159.15 22.3614 151.86C21.6514 147.67 22.2814 143.31 22.2614 139.09C22.2414 134.87 21.5414 130.77 20.1714 126.82C17.4314 118.96 12.7214 112.07 8.47142 104.98C6.59142 101.85 4.14142 97.8301 5.30142 94.0401C6.06142 91.5501 8.27141 90.3901 10.8214 89.8601C17.5714 88.4501 23.4714 93.4401 28.9514 96.9401C32.4814 99.1901 36.1414 100.84 40.2514 101.69C43.6814 102.4 47.5214 103.03 50.1814 105.14C54.5414 108.61 55.9814 114.38 57.2314 119.75C58.6614 125.88 59.7114 132.21 62.6514 137.85C65.5914 143.49 70.6914 147.8 75.4914 151.95C79.8414 155.72 84.7414 159.85 86.4814 165.4C87.5814 168.9 87.2114 172.55 86.6714 176.12C86.0514 180.26 85.3514 184.38 86.0514 188.55C87.2614 195.76 93.2314 200.26 99.3414 203.38C102.351 204.92 105.471 206.26 108.451 207.86C111.281 209.38 113.761 211.34 115.921 213.71C119.961 218.12 122.941 224.09 122.651 230.08C122.531 232.59 121.651 235.27 120.001 237.38C119.171 238.44 118.961 239.88 120.001 240.92C120.871 241.79 122.701 241.99 123.541 240.92C132.951 228.92 124.591 212.48 113.421 205.01C107.761 201.22 100.741 199.57 95.5114 195.09C93.0014 192.94 91.2214 190.22 90.8214 186.89C90.3314 182.76 91.3914 178.56 91.9014 174.49C92.3714 170.65 92.3414 166.71 90.9414 163.06C89.7314 159.9 87.8514 157.15 85.5914 154.64C81.1714 149.73 75.6314 146 71.1414 141.16C69.0414 138.89 67.3014 136.36 66.0814 133.51C64.8614 130.66 64.0914 127.5 63.3814 124.45C61.9714 118.32 60.9814 111.75 57.6514 106.29C56.0414 103.64 53.8414 101.35 51.1314 99.8101C47.2314 97.6001 42.7814 97.4001 38.5714 96.1501C30.9014 93.8801 25.4614 86.9501 17.5614 85.1901C11.0314 83.7401 2.88142 85.4501 0.521415 92.5101C-0.968585 96.9801 0.891415 101.74 3.05142 105.64C5.21142 109.54 7.59142 113.05 9.79142 116.8C11.9914 120.55 13.8814 124.04 15.2614 127.95C16.6414 131.86 17.3014 135.96 17.2414 140.2C17.1714 144.75 16.7214 149.32 17.6414 153.83C18.4314 157.72 20.4614 161.12 23.1314 164.01C28.0414 169.33 34.7014 172.86 38.4614 179.22C42.4314 185.94 43.7514 193.84 47.0114 200.88C48.7514 204.62 51.1314 207.95 54.0914 210.83C57.0514 213.71 60.4114 216.15 63.5414 218.85C69.7414 224.19 74.3314 230.95 79.6314 237.12C84.4514 242.73 90.0214 247.77 97.2714 249.86C103.281 251.59 110.361 251.55 115.861 248.27C118.471 246.71 120.601 244.42 121.901 241.67C122.481 240.45 122.241 238.97 121.001 238.25C119.911 237.61 118.161 237.92 117.581 239.15H117.591Z" fill="#260305"/>
<path d="M217.419 221.933C208.23 206.903 216.708 187.786 208.286 172.275C206.343 168.699 204.318 165.024 201.241 162.506C192.596 155.451 179.265 160.142 170.809 152.813C160.573 143.941 165.491 125.171 156.784 114.58C153.226 110.262 148.007 108.108 143.465 105.061C138.923 102.014 134.574 96.9916 135.133 91.4517C135.567 87.1467 138.781 84.0243 140.869 80.4059C144.995 73.2495 144.493 63.1916 139.662 56.0519C136.551 51.4555 131.754 47.798 130.436 42.3748C128.967 36.3057 132.426 30.3248 132.047 24.1303C131.661 17.8856 126.865 12.022 121.101 10.749C115.338 9.47591 109.192 12.9133 107.067 18.6021C105.647 22.3956 105.888 26.8634 104.068 30.4441C101.957 34.5977 97.5859 36.6438 93.9033 39.2384C90.2207 41.8331 86.7678 46.1972 87.9611 50.9344C88.466 52.9171 89.7141 54.6066 90.6384 56.4265C94.8838 64.7561 91.9935 74.5981 91.9117 83.8718C91.7947 96.5665 97.5982 109.51 107.071 117.7C111.349 121.395 116.414 124.297 119.479 129.162C122.545 134.027 122.311 141.906 117.376 143.858C117.504 155.214 128.05 165.722 138.59 165.002C141.663 164.787 144.678 163.769 147.76 164.185C157.736 165.492 161.311 178.945 164.697 189.201C171.254 209.078 186.614 225.813 205.059 233.2C205.059 233.2 221.749 229.052 217.42 221.965L217.419 221.933Z" fill="#5AB290"/>
<path d="M215.538 223.265C211.771 217.012 210.615 209.835 210.358 202.681C210.1 195.527 210.558 188.744 209.244 181.842C208.601 178.449 207.349 175.315 205.695 172.306C204.04 169.297 201.966 165.765 199.066 163.8C194.371 160.614 188.471 160.57 183.17 159.89C177.322 159.142 171.438 157.509 167.286 152.493C162.876 147.175 161.802 139.98 160.752 133.347C159.795 127.274 158.908 120.175 154.526 115.512C151.925 112.738 148.642 110.986 145.485 109.118C142.132 107.127 138.997 104.924 136.45 101.794C133.902 98.6649 132.452 94.8587 132.855 90.8914C133.224 87.1991 135.41 84.2128 137.366 81.378C139.182 78.7592 140.547 76.008 141.077 72.7048C141.607 69.4016 141.379 66.175 140.434 63.0322C139.407 59.6212 137.542 56.8207 135.284 54.1742C132.671 51.109 129.845 48.0421 128.545 44.0796C127.365 40.4989 127.731 36.7971 128.448 33.2726C129.1 30.0443 130.095 26.7424 129.654 23.3448C128.873 17.1913 123.099 12.3018 117.444 13.0398C114.711 13.4032 112.201 14.9688 110.511 17.2175C108.524 19.873 108.363 23.4103 107.712 26.6699C106.903 30.7219 105.179 33.9005 102.203 36.4675C99.6042 38.7173 96.4613 40.1586 93.856 42.3894C91.9838 43.9821 89.9812 46.4211 90.0297 49.2017C90.0688 51.1517 91.2921 52.7968 92.1849 54.4374C93.1797 56.2652 93.9691 58.1729 94.4434 60.2081C96.2878 68.1347 94.2817 75.8944 94.212 83.7707C94.1465 91.2867 96.1802 98.8855 99.9846 105.422C101.874 108.668 104.14 111.65 106.794 114.237C109.449 116.823 112.614 118.974 115.509 121.384C118.404 123.794 121.073 126.598 122.578 130.164C123.784 133.018 124.176 136.474 123.502 139.435C122.78 142.571 120.996 145 118.185 146.192L119.691 143.741C119.848 151.488 125.206 158.84 132.176 161.511C133.743 162.111 135.415 162.475 137.042 162.506C139.459 162.555 141.795 161.935 144.174 161.67C148.308 161.214 152.371 162.385 155.672 165.366C161.694 170.816 164.066 179.788 166.534 187.356C169.52 196.512 174.142 205.042 180.356 212.263C187.489 220.547 196.272 227.006 206.034 230.95L204.263 230.778C206.728 230.167 209.161 229.261 211.445 228.141C211.86 227.938 211.163 228.31 211.698 228.003C211.902 227.892 212.107 227.781 212.308 227.66C212.705 227.431 213.095 227.183 213.474 226.928C213.853 226.674 214.221 226.359 214.595 226.064C215.07 225.693 214.437 226.255 214.752 225.927C214.908 225.758 215.064 225.589 215.217 225.411C215.318 225.282 215.417 225.143 215.518 225.014C215.755 224.712 215.373 225.443 215.616 224.843C215.684 224.673 215.755 224.511 215.823 224.341C215.883 224.173 215.858 224.244 215.754 224.565C215.777 224.462 215.804 224.368 215.818 224.268C215.833 224.168 215.848 224.069 215.85 223.962C215.844 224.344 215.834 224.4 215.832 224.137C215.824 223.971 215.794 223.823 215.777 223.66C215.853 224.373 215.755 223.709 215.682 223.491C215.557 223.122 215.915 223.866 215.549 223.241C213.922 220.486 217.681 217.803 219.311 220.566C224.072 228.648 213.206 233.214 207.886 234.916C207.223 235.129 206.55 235.346 205.876 235.5C204.395 235.842 202.581 234.713 201.194 234.073C199.727 233.397 198.275 232.652 196.854 231.855C191.152 228.672 185.82 224.604 181.106 219.873C176.392 215.143 172.202 209.729 168.832 203.848C165.462 197.967 163.292 192.114 161.247 185.859C159.556 180.678 157.841 175.315 154.554 170.968C153.301 169.322 151.531 167.778 149.721 167.09C146.758 165.969 143.739 166.746 140.798 167.18C135.111 168.024 129.555 166.333 124.777 162.616C120.382 159.203 116.897 153.984 115.661 148.374C115.331 146.881 115.118 145.391 115.088 143.871C115.063 142.707 115.614 141.846 116.593 141.42C117.405 141.072 118.118 140.346 118.547 139.409C119.026 138.361 119.23 137.131 119.195 135.94C119.107 132.898 117.931 130.361 115.859 128.095C113.249 125.24 110.096 123.096 107.134 120.718C104.173 118.341 101.466 115.54 99.123 112.415C94.3648 106.064 91.2552 98.3744 90.0848 90.4946C88.9144 82.6149 90.7806 74.8707 90.65 66.946C90.5829 63.0211 89.8253 59.4878 87.8564 56.0363C86.7377 54.0709 85.6973 52.0791 85.4671 49.7925C85.2927 48.0149 85.6245 46.2458 86.2479 44.6526C87.472 41.4844 89.963 38.9439 92.576 37.0799C95.3696 35.0915 98.6301 33.5683 100.888 30.8532C103.146 28.1381 103.284 24.5345 103.965 21.1063C104.71 17.3505 106.232 14.1767 108.93 11.7036C114.083 6.98683 121.73 6.75829 127.515 11.1905C130.215 13.255 132.357 16.2999 133.491 19.6006C134.723 23.1636 134.535 26.8475 133.848 30.4041C133.224 33.6863 132.139 37.0081 132.47 40.4533C132.825 44.1121 135.322 47.0367 137.589 49.6803C140.178 52.701 142.557 55.6762 144.082 59.4465C145.405 62.7359 146.073 66.4051 145.988 69.9065C145.896 73.5895 145.165 77.214 143.579 80.4302C141.994 83.6465 139.68 85.9373 138.253 89.0475C134.968 96.2044 142.58 101.804 147.79 104.878C151.065 106.812 154.484 108.708 157.224 111.519C159.722 114.074 161.504 117.23 162.692 120.66C164.973 127.215 165.131 134.191 166.843 140.864C167.618 143.874 168.678 146.872 170.661 149.274C172.352 151.331 174.622 152.75 176.961 153.543C182.481 155.415 188.287 155.122 193.89 156.439C196.814 157.13 199.643 158.285 202.146 160.163C205.27 162.507 207.466 165.945 209.389 169.402C211.311 172.858 212.687 176.045 213.502 179.749C214.318 183.453 214.652 186.908 214.78 190.527C215.04 197.543 214.527 204.682 215.943 211.655C216.575 214.788 217.687 217.822 219.334 220.548C220.98 223.275 217.225 225.968 215.571 223.222L215.538 223.265Z" fill="#260305"/>
<path d="M215.162 251.604C209.593 254.427 202.267 251.325 199.184 245.9C196.101 240.474 196.681 233.548 199.253 227.857C202.132 221.513 207.427 215.746 207.131 208.779C206.546 194.895 185.058 189.273 184.334 175.393C183.874 166.519 192.523 157.506 188.24 149.716C186.351 146.288 182.505 144.53 179.3 142.277C170.177 135.852 165.553 123.64 168.148 112.791C168.987 109.3 170.484 105.642 169.284 102.267C168.548 100.199 166.91 98.6221 165.61 96.8632C159.964 89.2588 161.209 77.3961 168.318 71.1311C170.771 68.9664 174.113 67.4067 177.296 68.1821C180.267 68.9106 182.38 71.4378 184.684 73.4429C191.195 79.1281 200.042 81.0967 207.96 84.553C215.879 88.0093 223.832 94.3706 224.17 103.008C224.453 110.377 219.033 117.554 221.044 124.65C222.563 130.005 227.749 133.281 232.138 136.708C242.951 145.159 251.021 158.503 249.301 172.11C247.647 185.194 237.585 195.729 234.183 208.473C232.303 215.515 232.526 222.954 230.925 230.067C229.324 237.18 215.189 251.596 215.189 251.596L215.162 251.604Z" fill="#5AB290"/>
<path d="M213.86 249.471C211.18 250.774 207.965 250.141 205.494 248.739C202.518 247.053 200.683 244.199 199.933 240.873C199.131 237.349 199.718 233.461 200.999 230.119C202.519 226.189 205.069 222.748 206.963 219.008C208.856 215.269 210.106 211.228 209.467 207.064C209.006 204.065 207.742 201.292 205.944 198.855C202.264 193.903 197.205 190.308 192.852 186.015C188.776 181.986 185.938 177.624 187.15 171.778C188.467 165.443 192.801 159.373 191.798 152.684C191.154 148.382 188.42 145.406 184.951 143.011C183.331 141.886 181.58 140.941 180.029 139.729C178.575 138.592 177.215 137.301 176.038 135.881C171.545 130.501 169.194 122.982 170.106 116.008C170.612 112.145 172.415 108.447 172.225 104.504C172.12 102.299 171.329 100.27 170.051 98.4894C168.894 96.8871 167.533 95.4708 166.563 93.7312C163.419 88.1024 164.038 80.493 167.838 75.328C169.651 72.8747 172.759 70.2114 176.025 70.4973C178.198 70.6817 179.906 72.4445 181.41 73.8474C183.232 75.5465 185.134 77.0961 187.254 78.4109C195.066 83.2644 204.457 84.7087 212.222 89.6501C217.797 93.1941 222.61 98.826 221.5 105.829C220.907 109.601 219.387 113.132 218.604 116.857C217.773 120.796 217.935 124.769 219.881 128.365C221.826 131.961 225.098 134.488 228.258 136.887C231.418 139.286 234.291 141.689 236.898 144.586C241.776 149.991 245.611 156.801 246.694 164.079C247.996 172.804 244.719 180.706 240.71 188.258C238.537 192.347 236.228 196.373 234.359 200.614C232.49 204.855 231.189 209.369 230.542 214.043C229.894 218.716 229.672 223.233 228.823 227.774C228.677 228.571 228.509 229.366 228.292 230.147C228.257 230.275 228.212 230.399 228.168 230.523C228.054 230.882 228.328 230.121 228.192 230.479C228.062 230.784 227.931 231.089 227.792 231.388C227.236 232.566 226.57 233.695 225.864 234.791C223.023 239.212 219.315 243.472 215.591 247.507C214.855 248.303 214.118 249.099 213.36 249.871C211.104 252.177 214.719 255.628 216.97 253.331C219.739 250.496 222.378 247.523 224.877 244.452C228.79 239.666 232.674 234.66 233.777 228.449C234.62 223.687 234.83 218.835 235.571 214.053C236.311 209.27 237.787 204.874 239.882 200.55C244.016 192.008 249.696 183.927 251.448 174.429C252.969 166.181 251.149 157.847 247.199 150.533C243.25 143.219 237.555 137.747 231.106 132.811C228.1 130.506 224.633 127.919 223.49 124.12C222.433 120.584 223.683 116.838 224.715 113.451C225.839 109.728 227.03 105.837 226.594 101.908C226.158 97.9797 224.424 94.4757 221.91 91.4483C216.224 84.5943 207.723 81.7327 199.679 78.6975C195.164 76.9989 190.499 75.0943 186.785 71.9532C183.071 68.8121 179.631 64.8071 174.21 65.6081C166.172 66.7924 160.729 75.0246 159.802 82.6153C159.344 86.3683 159.66 90.2664 161.107 93.7973C161.85 95.6193 162.778 97.2904 164 98.8366C165.222 100.383 166.885 102.019 167.204 104.1C167.479 105.908 166.928 107.792 166.462 109.518C165.95 111.412 165.435 113.293 165.208 115.251C164.727 119.321 165.028 123.415 166.121 127.369C167.214 131.323 168.923 134.768 171.291 137.876C173.917 141.327 177.072 143.86 180.709 146.175C182.389 147.253 184.188 148.361 185.44 149.957C186.365 151.149 186.846 152.511 186.943 153.847C187.151 156.892 185.877 160.136 184.76 163.112C183.51 166.438 182.247 169.745 181.934 173.315C181.648 176.603 182.424 179.818 183.975 182.712C186.946 188.282 192.309 192.177 196.858 196.36C199.094 198.408 201.104 200.39 202.634 202.796C204.165 205.202 205.028 207.793 204.593 210.831C203.969 215.165 201.342 218.917 199.216 222.622C197.091 226.328 195.34 230.246 194.829 234.539C194.319 238.831 194.871 243.072 196.904 246.863C198.763 250.344 202.033 252.939 205.718 254.281C209.404 255.622 213.079 255.402 216.501 253.737C217.718 253.145 217.988 251.381 217.333 250.3C216.576 249.051 215.114 248.875 213.896 249.468L213.86 249.471Z" fill="#260305"/>
</g>
<defs>
<clipPath id="clip0_699_19728">
<rect width="289.86" height="251" fill="white" transform="translate(77)"/>
</clipPath>
<clipPath id="clip1_699_19728">
<rect width="289.86" height="251" fill="white"/>
</clipPath>
</defs>
</svg>
