<svg width="241" height="206" viewBox="0 0 241 206" fill="none" xmlns="http://www.w3.org/2000/svg">
<g clip-path="url(#clip0_677_5937)">
<path d="M115.264 231.402C110.702 241.335 95.6572 241.008 86.8115 234.598C77.9658 228.187 72.643 218.003 64.6539 210.544C59.9183 206.116 54.2297 202.622 50.3892 197.396C44.0365 188.742 43.7381 176.653 37.0292 168.279C31.8797 161.84 23.2939 158.086 20.2041 150.443C17.7689 144.427 19.4245 137.613 18.9143 131.135C18.0673 120.335 11.3007 111.076 5.75651 101.758C3.50418 97.9659 1.35773 93.4227 2.97478 89.3127C5.28486 83.4316 13.6782 82.7674 19.4341 85.3759C25.1901 87.9844 29.8872 92.7297 35.9031 94.6932C39.6281 95.9157 43.7188 96.0119 47.2417 97.7445C58.9557 103.51 56.3473 121.086 62.8733 132.386C69.0816 143.147 83.9912 148.518 86.0896 160.762C87.3697 168.24 83.1827 176.191 85.7912 183.314C88.7462 191.399 98.4966 194.084 106.033 198.233C117.305 204.441 125.265 220.14 117.208 230.189" fill="#5AB290"/>
<path d="M113.185 230.188C110.942 234.943 106.149 236.801 101.038 236.772C95.2435 236.733 89.9014 234.395 85.5219 230.487C79.9296 225.51 75.7426 219.225 70.8721 213.594C68.3888 210.716 65.6745 208.127 62.7387 205.721C59.803 203.314 56.7036 200.956 54.1048 198.126C49.2055 192.813 47.4729 185.729 45.1532 179.078C43.9501 175.651 42.5929 172.205 40.6197 169.144C38.6465 166.083 36.2498 163.725 33.5836 161.454C28.511 157.142 22.7166 153.186 21.523 146.169C20.8396 142.136 21.446 137.939 21.4268 133.877C21.4075 129.815 20.7338 125.869 19.4151 122.067C16.7777 114.501 12.2442 107.869 8.15344 101.045C6.34387 98.0324 3.98567 94.163 5.10221 90.515C5.83373 88.1183 7.96093 87.0017 10.4154 86.4916C16.9125 85.1344 22.5914 89.9375 27.8661 93.3063C31.2639 95.472 34.7867 97.0602 38.7428 97.8784C42.0443 98.5618 45.7404 99.1681 48.3007 101.199C52.4974 104.539 53.8834 110.093 55.0866 115.262C56.463 121.162 57.4737 127.255 60.3035 132.684C63.1334 138.112 68.0423 142.261 72.6624 146.255C76.8495 149.884 81.5659 153.859 83.2407 159.201C84.2995 162.57 83.9433 166.083 83.4236 169.52C82.8268 173.505 82.153 177.47 82.8268 181.484C83.9915 188.424 89.7378 192.755 95.6189 195.758C98.5161 197.241 101.519 198.531 104.388 200.071C107.112 201.534 109.499 203.42 111.578 205.701C115.466 209.946 118.335 215.692 118.056 221.458C117.94 223.874 117.093 226.454 115.505 228.485C114.706 229.505 114.504 230.891 115.505 231.892C116.342 232.729 118.104 232.922 118.912 231.892C127.97 220.342 119.923 204.517 109.171 197.327C103.723 193.679 96.9664 192.091 91.9324 187.779C89.5164 185.71 87.8031 183.091 87.4181 179.886C86.9464 175.911 87.9667 171.868 88.4576 167.951C88.91 164.255 88.8811 160.462 87.5336 156.949C86.3689 153.907 84.5594 151.26 82.384 148.845C78.1296 144.118 72.7972 140.528 68.4754 135.87C66.4541 133.685 64.7793 131.249 63.605 128.506C62.4307 125.763 61.6896 122.721 61.0062 119.786C59.649 113.885 58.6961 107.561 55.4908 102.306C53.9412 99.7553 51.8236 97.5511 49.2151 96.0688C45.4612 93.9416 41.178 93.7491 37.1257 92.5459C29.7431 90.361 24.5069 83.6906 16.9029 81.9965C10.6175 80.6009 2.77287 82.2468 0.501295 89.0423C-0.932881 93.3448 0.857432 97.9265 2.9365 101.68C5.01558 105.434 7.30641 108.813 9.42398 112.422C11.5416 116.032 13.3607 119.391 14.689 123.154C16.0173 126.918 16.6526 130.864 16.5949 134.946C16.5275 139.325 16.0943 143.724 16.9799 148.065C17.7403 151.809 19.6942 155.082 22.2642 157.863C26.9902 162.984 33.4007 166.382 37.0198 172.504C40.8411 178.972 42.1116 186.576 45.2495 193.352C46.9243 196.952 49.2151 200.157 52.0642 202.929C54.9133 205.701 58.1474 208.05 61.1602 210.649C67.1279 215.789 71.5459 222.295 76.6473 228.234C81.2868 233.634 86.6481 238.485 93.6264 240.497C99.4113 242.162 106.226 242.124 111.52 238.967C114.032 237.465 116.082 235.261 117.334 232.614C117.892 231.44 117.661 230.015 116.467 229.322C115.418 228.706 113.734 229.004 113.175 230.188H113.185Z" fill="#260305"/>
<path d="M209.274 213.618C200.429 199.151 208.59 180.75 200.484 165.82C198.613 162.378 196.664 158.84 193.703 156.417C185.382 149.626 172.55 154.142 164.41 147.087C154.558 138.548 159.292 120.481 150.912 110.287C147.486 106.13 142.463 104.057 138.091 101.125C133.719 98.192 129.534 93.3574 130.071 88.025C130.489 83.8813 133.582 80.8758 135.592 77.393C139.564 70.5048 139.08 60.8237 134.431 53.9515C131.437 49.5273 126.819 46.0069 125.55 40.7868C124.137 34.9451 127.466 29.1883 127.101 23.2259C126.73 17.2151 122.113 11.5712 116.566 10.3459C111.018 9.12053 105.102 12.4291 103.057 17.9048C101.691 21.5562 101.922 25.8566 100.17 29.3031C98.1384 33.3011 93.931 35.2705 90.3864 37.768C86.8417 40.2654 83.5182 44.466 84.6668 49.0257C85.1528 50.9341 86.3541 52.5603 87.2438 54.3121C91.3301 62.3295 88.5481 71.8029 88.4694 80.729C88.3568 92.9481 93.9429 105.407 103.061 113.289C107.178 116.847 112.053 119.64 115.004 124.323C117.955 129.005 117.73 136.589 112.98 138.467C113.103 149.398 123.254 159.512 133.399 158.819C136.357 158.613 139.258 157.633 142.226 158.033C151.827 159.291 155.269 172.24 158.528 182.112C164.839 201.244 179.623 217.352 197.378 224.462C197.378 224.462 213.442 220.47 209.275 213.648L209.274 213.618Z" fill="#5AB290"/>
<path d="M207.46 214.899C203.835 208.88 202.722 201.971 202.474 195.086C202.227 188.2 202.668 181.671 201.402 175.027C200.784 171.762 199.579 168.745 197.986 165.849C196.393 162.953 194.397 159.553 191.606 157.661C187.087 154.595 181.408 154.552 176.305 153.898C170.677 153.178 165.013 151.606 161.016 146.779C156.772 141.659 155.738 134.734 154.728 128.35C153.807 122.504 152.952 115.671 148.735 111.183C146.231 108.513 143.072 106.827 140.033 105.029C136.805 103.112 133.788 100.991 131.336 97.9791C128.884 94.9668 127.488 91.3032 127.876 87.4846C128.231 83.9306 130.335 81.0562 132.218 78.3276C133.966 75.807 135.279 73.1588 135.79 69.9794C136.3 66.7999 136.08 63.6942 135.17 60.6692C134.183 57.386 132.387 54.6904 130.214 52.1431C127.699 49.1927 124.978 46.2407 123.727 42.4266C122.592 38.9801 122.944 35.4171 123.634 32.0246C124.261 28.9172 125.219 25.739 124.795 22.4688C124.043 16.5458 118.485 11.8394 113.042 12.5499C110.412 12.8996 107.995 14.4065 106.369 16.571C104.456 19.127 104.301 22.5318 103.675 25.6693C102.896 29.5695 101.236 32.629 98.3722 35.0998C95.8707 37.2653 92.8455 38.6526 90.3379 40.7998C88.5358 42.3329 86.6082 44.6804 86.6549 47.3569C86.6925 49.2338 87.87 50.8172 88.7294 52.3964C89.6868 54.1557 90.4467 55.9919 90.9032 57.9509C92.6785 65.5805 90.7475 73.0495 90.6805 80.6307C90.6174 87.8651 92.5749 95.1792 96.2368 101.471C98.0558 104.595 100.236 107.465 102.791 109.955C105.346 112.445 108.393 114.515 111.179 116.835C113.966 119.155 116.535 121.853 117.983 125.286C119.144 128.033 119.522 131.359 118.873 134.21C118.178 137.228 116.461 139.566 113.756 140.713L115.204 138.354C115.356 145.811 120.513 152.888 127.222 155.458C128.731 156.036 130.34 156.386 131.906 156.416C134.232 156.464 136.481 155.867 138.771 155.612C142.749 155.172 146.661 156.3 149.838 159.169C155.634 164.414 157.917 173.051 160.293 180.335C163.167 189.148 167.616 197.358 173.597 204.309C180.463 212.282 188.916 218.5 198.313 222.296L196.608 222.13C198.981 221.542 201.323 220.67 203.521 219.592C203.92 219.396 203.25 219.755 203.765 219.459C203.961 219.352 204.158 219.245 204.352 219.129C204.734 218.908 205.11 218.67 205.474 218.425C205.839 218.18 206.193 217.877 206.553 217.593C207.01 217.235 206.401 217.776 206.704 217.461C206.855 217.298 207.005 217.136 207.152 216.964C207.249 216.84 207.344 216.706 207.442 216.582C207.67 216.291 207.302 216.995 207.536 216.418C207.601 216.254 207.67 216.098 207.735 215.934C207.793 215.772 207.769 215.841 207.668 216.15C207.691 216.051 207.716 215.961 207.731 215.864C207.745 215.768 207.759 215.672 207.761 215.57C207.755 215.937 207.746 215.992 207.744 215.738C207.736 215.578 207.707 215.436 207.691 215.278C207.764 215.965 207.67 215.326 207.599 215.116C207.479 214.761 207.824 215.478 207.471 214.875C205.905 212.224 209.523 209.641 211.092 212.301C215.676 220.08 205.216 224.475 200.096 226.113C199.457 226.319 198.81 226.527 198.161 226.675C196.735 227.004 194.989 225.917 193.654 225.301C192.242 224.651 190.845 223.934 189.477 223.167C183.989 220.103 178.856 216.187 174.319 211.634C169.781 207.081 165.748 201.87 162.505 196.209C159.261 190.549 157.172 184.915 155.204 178.894C153.576 173.907 151.926 168.745 148.761 164.561C147.556 162.977 145.852 161.49 144.11 160.829C141.258 159.75 138.352 160.497 135.521 160.915C130.047 161.727 124.7 160.099 120.1 156.522C115.87 153.237 112.515 148.213 111.325 142.814C111.008 141.377 110.803 139.942 110.775 138.479C110.751 137.359 111.281 136.53 112.223 136.12C113.005 135.785 113.691 135.086 114.104 134.185C114.564 133.176 114.761 131.992 114.727 130.845C114.643 127.917 113.51 125.475 111.516 123.294C109.004 120.546 105.969 118.483 103.119 116.194C100.268 113.906 97.6623 111.21 95.4075 108.202C90.8276 102.088 87.8345 94.6872 86.7079 87.1027C85.5814 79.5182 87.3777 72.0642 87.252 64.4363C87.1874 60.6585 86.4581 57.2576 84.563 53.9354C83.4862 52.0437 82.4848 50.1265 82.2633 47.9256C82.0954 46.2145 82.4147 44.5117 83.0148 42.9782C84.193 39.9287 86.5907 37.4834 89.1058 35.6892C91.7947 33.7754 94.933 32.3092 97.1063 29.6958C99.2795 27.0824 99.4125 23.6138 100.068 20.3141C100.785 16.6991 102.25 13.6441 104.847 11.2637C109.807 6.72363 117.168 6.50366 122.735 10.7698C125.335 12.7569 127.396 15.6878 128.488 18.8648C129.674 22.2943 129.492 25.8402 128.832 29.2635C128.231 32.4228 127.186 35.6201 127.505 38.9362C127.847 42.4579 130.251 45.273 132.433 47.8175C134.924 50.7251 137.214 53.5888 138.682 57.2179C139.956 60.384 140.599 63.9157 140.516 67.2859C140.428 70.8309 139.724 74.3196 138.198 77.4154C136.672 80.5111 134.445 82.7161 133.071 85.7098C129.91 92.5986 137.236 97.9879 142.251 100.947C145.404 102.809 148.694 104.634 151.331 107.339C153.736 109.799 155.451 112.836 156.594 116.138C158.79 122.447 158.943 129.162 160.59 135.585C161.336 138.482 162.357 141.368 164.265 143.68C165.893 145.66 168.078 147.025 170.329 147.789C175.643 149.591 181.23 149.309 186.624 150.576C189.438 151.241 192.162 152.353 194.57 154.161C197.577 156.417 199.692 159.726 201.542 163.053C203.392 166.38 204.717 169.448 205.502 173.013C206.286 176.578 206.608 179.904 206.732 183.387C206.981 190.14 206.488 197.012 207.851 203.724C208.459 206.739 209.529 209.659 211.114 212.284C212.699 214.908 209.084 217.5 207.493 214.858L207.46 214.899Z" fill="#260305"/>
<path d="M175.337 274.906C169.976 277.624 162.925 274.638 159.957 269.416C156.99 264.193 157.548 257.527 160.024 252.049C162.795 245.943 167.891 240.392 167.606 233.686C167.043 220.322 146.36 214.91 145.663 201.55C145.22 193.009 153.546 184.334 149.423 176.836C147.605 173.536 143.903 171.844 140.818 169.675C132.037 163.491 127.586 151.737 130.084 141.294C130.892 137.934 132.333 134.413 131.177 131.164C130.469 129.174 128.893 127.656 127.641 125.963C122.207 118.643 123.405 107.225 130.247 101.195C132.608 99.1112 135.825 97.61 138.89 98.3564C141.749 99.0575 143.783 101.49 146.001 103.42C152.267 108.892 160.783 110.787 168.405 114.114C176.027 117.441 183.681 123.564 184.007 131.877C184.279 138.97 179.063 145.878 180.998 152.709C182.46 157.863 187.451 161.017 191.676 164.314C202.085 172.449 209.852 185.294 208.197 198.39C206.605 210.985 196.92 221.125 193.645 233.391C191.835 240.169 192.05 247.329 190.509 254.176C188.968 261.022 175.363 274.899 175.363 274.899L175.337 274.906Z" fill="#5AB290"/>
<path d="M174.084 272.851C171.503 274.105 168.409 273.496 166.031 272.146C163.166 270.523 161.4 267.776 160.678 264.575C159.906 261.183 160.471 257.441 161.704 254.224C163.167 250.441 165.622 247.129 167.445 243.53C169.267 239.93 170.47 236.04 169.855 232.033C169.411 229.147 168.194 226.477 166.463 224.132C162.922 219.365 158.052 215.905 153.862 211.773C149.94 207.894 147.207 203.696 148.374 198.069C149.642 191.972 153.813 186.129 152.848 179.69C152.228 175.549 149.596 172.685 146.258 170.379C144.698 169.297 143.013 168.387 141.52 167.22C140.12 166.126 138.811 164.883 137.678 163.517C133.353 158.338 131.091 151.101 131.969 144.388C132.456 140.67 134.191 137.111 134.008 133.315C133.907 131.193 133.146 129.24 131.916 127.526C130.802 125.984 129.492 124.621 128.558 122.946C125.532 117.528 126.128 110.204 129.785 105.232C131.53 102.871 134.522 100.308 137.666 100.583C139.758 100.76 141.401 102.457 142.849 103.807C144.602 105.443 146.433 106.934 148.474 108.2C155.993 112.871 165.033 114.262 172.506 119.018C177.873 122.429 182.505 127.85 181.437 134.591C180.867 138.221 179.403 141.62 178.649 145.206C177.85 148.996 178.006 152.821 179.878 156.282C181.751 159.743 184.9 162.176 187.942 164.485C190.983 166.794 193.749 169.108 196.258 171.895C200.953 177.098 204.645 183.653 205.687 190.658C206.94 199.056 203.786 206.662 199.928 213.932C197.836 217.867 195.613 221.742 193.814 225.824C192.015 229.907 190.763 234.252 190.14 238.75C189.517 243.248 189.303 247.596 188.485 251.967C188.345 252.734 188.183 253.499 187.974 254.251C187.94 254.375 187.898 254.494 187.855 254.613C187.745 254.959 188.01 254.226 187.878 254.571C187.753 254.864 187.627 255.157 187.493 255.446C186.958 256.579 186.317 257.666 185.638 258.721C182.903 262.977 179.334 267.077 175.749 270.961C175.04 271.727 174.332 272.493 173.602 273.236C171.431 275.455 174.91 278.777 177.077 276.567C179.742 273.838 182.282 270.976 184.687 268.02C188.454 263.413 192.192 258.595 193.254 252.616C194.065 248.033 194.268 243.363 194.98 238.76C195.693 234.157 197.114 229.925 199.13 225.763C203.109 217.541 208.577 209.762 210.263 200.621C211.727 192.682 209.975 184.659 206.174 177.619C202.372 170.579 196.891 165.313 190.683 160.562C187.79 158.343 184.453 155.853 183.353 152.197C182.335 148.793 183.538 145.187 184.532 141.928C185.613 138.344 186.76 134.599 186.34 130.817C185.92 127.035 184.251 123.663 181.832 120.749C176.358 114.152 168.176 111.397 160.434 108.476C156.088 106.841 151.597 105.007 148.023 101.984C144.448 98.9607 141.137 95.1057 135.919 95.8767C128.182 97.0166 122.943 104.94 122.05 112.247C121.61 115.859 121.914 119.611 123.306 123.01C124.022 124.763 124.915 126.372 126.091 127.86C127.268 129.348 128.868 130.923 129.176 132.927C129.44 134.666 128.909 136.48 128.461 138.141C127.969 139.965 127.473 141.775 127.254 143.659C126.791 147.577 127.081 151.518 128.133 155.323C129.185 159.129 130.83 162.445 133.109 165.437C135.636 168.759 138.674 171.197 142.174 173.425C143.791 174.462 145.523 175.529 146.728 177.065C147.618 178.213 148.081 179.524 148.174 180.81C148.375 183.741 147.149 186.863 146.073 189.728C144.87 192.929 143.655 196.112 143.354 199.548C143.078 202.713 143.825 205.808 145.318 208.593C148.178 213.954 153.34 217.704 157.719 221.73C159.871 223.701 161.805 225.609 163.278 227.925C164.752 230.241 165.582 232.735 165.163 235.659C164.563 239.83 162.034 243.442 159.988 247.008C157.943 250.575 156.257 254.346 155.766 258.478C155.274 262.61 155.805 266.692 157.762 270.341C159.552 273.692 162.7 276.189 166.247 277.48C169.794 278.772 173.332 278.56 176.625 276.957C177.797 276.387 178.057 274.69 177.426 273.649C176.698 272.446 175.29 272.277 174.118 272.848L174.084 272.851Z" fill="#260305"/>
<g clip-path="url(#clip1_677_5937)">
<path d="M194.518 273.753C190.095 283.687 175.51 283.36 166.935 276.949C158.359 270.539 153.199 260.355 145.454 252.895C140.864 248.468 135.349 244.974 131.626 239.747C125.467 231.094 125.178 219.005 118.674 210.631C113.682 204.191 105.359 200.437 102.363 192.795C100.003 186.779 101.608 179.964 101.113 173.486C100.292 162.687 93.7321 153.427 88.3573 144.11C86.1739 140.317 84.093 135.774 85.6606 131.664C87.9001 125.783 96.0369 125.119 101.617 127.727C107.197 130.336 111.75 135.081 117.582 137.045C121.194 138.267 125.159 138.363 128.574 140.096C139.93 145.862 137.402 163.437 143.728 174.738C149.747 185.499 164.201 190.87 166.235 203.113C167.476 210.592 163.417 218.543 165.946 225.665C168.81 233.751 178.263 236.436 185.569 240.585C196.496 246.793 204.213 262.492 196.402 272.541" fill="#5AB290"/>
<path d="M192.502 272.54C190.328 277.295 185.681 279.152 180.726 279.124C175.109 279.085 169.93 276.746 165.685 272.838C160.263 267.862 156.204 261.577 151.483 255.946C149.075 253.068 146.444 250.479 143.598 248.072C140.752 245.666 137.747 243.308 135.228 240.478C130.478 235.165 128.799 228.08 126.55 221.429C125.384 218.003 124.068 214.557 122.155 211.496C120.242 208.435 117.919 206.077 115.334 203.805C110.416 199.493 104.799 195.537 103.642 188.52C102.98 184.487 103.567 180.291 103.549 176.229C103.53 172.167 102.877 168.22 101.598 164.418C99.0418 156.853 94.6468 150.221 90.6811 143.397C88.9268 140.384 86.6407 136.515 87.7231 132.867C88.4323 130.47 90.4945 129.353 92.8739 128.843C99.1724 127.486 104.678 132.289 109.791 135.658C113.085 137.824 116.5 139.412 120.335 140.23C123.536 140.913 127.119 141.52 129.601 143.551C133.67 146.891 135.013 152.444 136.18 157.613C137.514 163.514 138.494 169.606 141.237 175.035C143.98 180.464 148.739 184.612 153.218 188.607C157.277 192.236 161.85 196.211 163.473 201.553C164.5 204.922 164.154 208.435 163.65 211.871C163.072 215.856 162.419 219.822 163.072 223.836C164.201 230.775 169.772 235.107 175.473 238.11C178.282 239.592 181.193 240.882 183.974 242.422C186.614 243.885 188.928 245.772 190.944 248.053C194.714 252.298 197.494 258.044 197.224 263.81C197.112 266.226 196.291 268.805 194.751 270.836C193.977 271.856 193.781 273.242 194.751 274.243C195.563 275.081 197.271 275.273 198.054 274.243C206.835 262.693 199.034 246.869 188.611 239.679C183.33 236.031 176.779 234.443 171.899 230.131C169.557 228.061 167.896 225.443 167.523 222.238C167.066 218.263 168.055 214.22 168.531 210.302C168.969 206.606 168.941 202.814 167.635 199.301C166.506 196.259 164.752 193.612 162.643 191.196C158.518 186.47 153.349 182.88 149.159 178.221C147.2 176.036 145.576 173.601 144.438 170.858C143.299 168.115 142.581 165.073 141.918 162.137C140.603 156.237 139.679 149.913 136.572 144.658C135.069 142.107 133.016 139.903 130.488 138.42C126.849 136.293 122.696 136.101 118.768 134.897C111.611 132.713 106.535 126.042 99.1631 124.348C93.0698 122.952 85.465 124.598 83.2628 131.394C81.8725 135.696 83.6081 140.278 85.6236 144.032C87.6391 147.786 89.8599 151.164 91.9128 154.774C93.9656 158.383 95.7292 161.743 97.0169 165.506C98.3046 169.27 98.9205 173.216 98.8645 177.297C98.7992 181.677 98.3793 186.075 99.2377 190.416C99.9749 194.161 101.869 197.433 104.361 200.215C108.942 205.336 115.157 208.733 118.665 214.855C122.37 221.323 123.601 228.927 126.643 235.704C128.267 239.304 130.488 242.509 133.25 245.281C136.012 248.053 139.147 250.402 142.068 253C147.853 258.14 152.136 264.647 157.081 270.586C161.579 275.986 166.776 280.837 173.541 282.849C179.149 284.514 185.756 284.475 190.888 281.318C193.323 279.817 195.311 277.612 196.524 274.965C197.065 273.791 196.841 272.367 195.684 271.674C194.667 271.058 193.034 271.356 192.493 272.54H192.502Z" fill="#260305"/>
<path d="M190.682 268.603C194.648 252.066 180.25 237.243 183.32 220.505C184.029 216.645 184.785 212.67 186.931 209.426C192.968 200.33 207.347 200.503 213.114 191.215C220.094 179.973 209.242 164.37 214.187 152.03C216.212 146.996 220.542 143.425 223.929 139.248C227.316 135.07 229.873 129.151 227.531 124.271C225.711 120.478 221.596 118.621 218.405 115.964C212.097 110.709 209.307 101.382 211.64 93.3831C213.142 88.2336 216.576 83.4209 216.081 78.0692C215.521 72.0822 210.24 67.6931 208.588 61.9275C206.927 56.1138 209.643 49.2894 214.784 46.3537C219.926 43.418 226.971 44.6597 230.871 49.1932C233.475 52.2155 234.697 56.3641 237.618 59.0688C241.005 62.2066 245.885 62.7264 250.28 63.9585C254.675 65.1905 259.424 68.107 259.816 72.7945C259.975 74.7581 259.322 76.6831 259.023 78.6275C257.642 87.5309 263.633 95.6162 266.731 104.048C270.976 115.589 269.595 129.18 263.129 139.565C260.208 144.253 256.27 148.459 254.899 153.84C253.527 159.22 256.317 166.334 261.711 166.593C265.284 176.989 258.538 189.819 248.143 192.409C245.11 193.159 241.873 193.159 239.036 194.488C229.845 198.752 230.778 212.121 230.852 222.517C231.002 242.662 221.643 262.654 206.265 275.071C206.265 275.071 188.825 276.428 190.691 268.632L190.682 268.603Z" fill="#5AB290"/>
<path d="M192.931 269.239C194.526 262.376 193.304 255.475 191.223 248.872C189.142 242.269 186.492 236.224 185.512 229.525C185.027 226.233 185.214 222.989 185.83 219.736C186.445 216.482 187.295 212.623 189.45 209.937C192.94 205.586 198.613 203.729 203.503 201.476C208.896 198.993 214.038 195.692 216.408 189.839C218.927 183.631 217.621 176.739 216.473 170.367C215.419 164.534 213.963 157.787 216.669 152.185C218.274 148.855 220.868 146.246 223.303 143.57C225.888 140.721 228.193 137.747 229.63 134.109C231.067 130.47 231.225 126.553 229.546 123.059C227.988 119.805 224.908 117.755 222.1 115.772C219.496 113.944 217.285 111.855 215.698 109.006C214.112 106.157 213.282 103.144 213.17 99.9868C213.048 96.5602 213.935 93.432 215.251 90.323C216.772 86.7231 218.498 83.0559 218.46 79.0421C218.432 75.4133 216.874 72.1504 215.036 69.1569C213.356 66.4137 211.322 63.7089 210.641 60.4748C209.391 54.6226 213.366 48.3854 219.058 47.317C221.81 46.8068 224.74 47.4614 227.101 48.9918C229.882 50.8014 231.188 53.9777 232.877 56.7498C234.977 60.1957 237.673 62.5635 241.378 63.9881C244.616 65.2394 248.115 65.5859 251.353 66.8179C253.676 67.6938 256.401 69.3013 257.259 71.852C257.856 73.6423 257.213 75.5192 256.886 77.2903C256.522 79.2635 256.382 81.2463 256.587 83.2484C257.39 91.0449 261.85 97.5035 264.482 104.665C266.992 111.499 267.505 119.055 265.965 126.187C265.2 129.729 263.987 133.146 262.27 136.322C260.553 139.499 258.202 142.435 256.196 145.524C254.189 148.614 252.528 151.993 252.239 155.708C252.006 158.682 252.752 161.955 254.367 164.448C256.084 167.085 258.594 168.75 261.692 168.972L259.443 167.201C261.813 174.314 259.042 182.668 253.191 187.25C251.875 188.28 250.382 189.127 248.824 189.656C246.51 190.446 244.056 190.6 241.676 191.091C237.543 191.947 234.006 194.267 231.795 198.002C227.764 204.826 228.398 213.739 228.482 221.401C228.585 230.67 226.905 239.872 223.266 248.371C219.086 258.121 212.722 266.717 204.594 273.32L206.246 272.617C203.671 272.819 201.03 272.742 198.464 272.425C197.997 272.367 198.79 272.492 198.175 272.377C197.941 272.338 197.708 272.3 197.475 272.251C197.018 272.165 196.56 272.059 196.112 271.943C195.665 271.828 195.207 271.655 194.75 271.501C194.172 271.308 194.965 271.626 194.554 271.424C194.349 271.318 194.144 271.212 193.938 271.096C193.798 271.01 193.658 270.914 193.518 270.827C193.192 270.625 193.798 271.173 193.369 270.702C193.248 270.567 193.126 270.442 193.005 270.307C192.893 270.172 192.94 270.23 193.145 270.49C193.089 270.403 193.033 270.326 192.987 270.24C192.94 270.153 192.893 270.067 192.856 269.97C192.987 270.317 193.015 270.365 192.931 270.124C192.884 269.97 192.865 269.826 192.828 269.672C192.987 270.346 192.865 269.71 192.865 269.489C192.865 269.114 192.763 269.903 192.912 269.22C193.584 266.207 189.086 264.917 188.414 267.939C186.455 276.775 198.417 277.594 204.1 277.507C204.809 277.497 205.528 277.488 206.227 277.42C207.767 277.276 209.148 275.688 210.277 274.677C211.471 273.609 212.629 272.483 213.739 271.318C218.199 266.659 222.016 261.307 225.02 255.542C228.025 249.776 230.302 243.549 231.636 237.148C232.97 230.747 233.157 224.741 233.092 218.407C233.036 213.162 232.942 207.742 234.697 202.766C235.368 200.88 236.572 198.926 238.093 197.742C240.585 195.807 243.748 195.586 246.724 195.076C252.482 194.094 257.287 190.84 260.684 185.98C263.81 181.513 265.471 175.68 264.836 170.184C264.668 168.721 264.388 167.297 263.922 165.901C263.567 164.833 262.755 164.217 261.673 164.13C260.777 164.063 259.853 163.62 259.135 162.898C258.332 162.09 257.735 161.031 257.381 159.933C256.475 157.132 256.783 154.457 258.043 151.752C259.629 148.345 261.972 145.418 264.052 142.338C266.133 139.258 267.831 135.87 269.072 132.299C271.592 125.042 272.086 117.072 270.649 109.526C269.212 101.979 264.892 95.4918 262.438 88.2247C261.225 84.6248 260.805 81.1693 261.58 77.4154C262.018 75.2786 262.373 73.1418 261.85 70.9857C261.44 69.3109 260.544 67.7997 259.424 66.5388C257.213 64.0266 253.984 62.4769 250.858 61.5817C247.518 60.6288 243.878 60.2438 240.818 58.4631C237.757 56.6824 236.451 53.4387 234.678 50.5222C232.737 47.3266 230.236 44.901 226.831 43.4765C220.327 40.7621 212.88 42.9086 208.747 48.7319C206.815 51.4463 205.742 54.8825 205.723 58.2417C205.695 61.8705 207.077 65.172 208.896 68.204C210.566 71.0049 212.694 73.7 213.496 76.9438C214.345 80.3896 212.89 83.8259 211.565 86.9349C210.053 90.4866 208.728 93.9325 208.486 97.8404C208.28 101.248 208.831 104.8 210.053 107.966C211.341 111.297 213.226 114.377 215.801 116.822C218.376 119.266 221.353 120.643 223.742 123.04C229.238 128.555 223.723 136.005 219.702 140.413C217.173 143.185 214.495 145.967 212.768 149.374C211.192 152.474 210.501 155.9 210.473 159.394C210.408 166.074 212.526 172.485 213.048 179.097C213.282 182.081 213.235 185.142 212.106 187.943C211.145 190.34 209.419 192.332 207.422 193.776C202.71 197.184 197.018 198.704 192.044 201.63C189.45 203.161 187.099 205.086 185.298 207.569C183.049 210.669 182.05 214.48 181.323 218.224C180.595 221.969 180.306 225.299 180.725 228.928C181.145 232.557 181.948 235.81 183.002 239.15C185.036 245.628 187.854 251.981 188.76 258.776C189.17 261.827 189.086 264.936 188.386 267.93C187.686 270.923 192.184 272.223 192.884 269.21L192.931 269.239Z" fill="#260305"/>
<path d="M216.865 273.676C212.078 270.25 211.378 262.626 214.466 257.535C217.555 252.443 223.499 249.767 229.312 249.343C235.797 248.881 242.88 250.73 248.469 247.293C259.61 240.45 254.702 219.678 265.778 212.719C272.861 208.272 284.095 211.477 288.593 204.287C290.571 201.121 290.31 197.059 290.739 193.314C291.971 182.65 299.949 173.149 310.008 170.387C313.246 169.501 316.913 169.097 319.152 166.537C320.524 164.968 321.093 162.86 321.961 160.954C325.703 152.695 335.995 148.326 344.29 151.483C347.155 152.57 349.917 154.688 350.692 157.739C351.41 160.588 350.272 163.534 349.646 166.402C347.864 174.516 350.169 182.909 350.841 191.197C351.513 199.484 349.814 209.129 342.872 213.364C336.947 216.973 328.651 215.664 323.715 220.612C319.992 224.346 319.6 230.237 318.732 235.522C316.586 248.545 309.205 261.481 297.271 266.246C285.794 270.827 272.683 267.121 260.711 270.067C254.096 271.694 248.086 275.284 241.536 277.18C234.986 279.076 216.883 273.696 216.883 273.696L216.865 273.676Z" fill="#5AB290"/>
<path d="M218.04 271.597C215.782 269.922 214.877 266.909 214.933 264.176C214.998 260.884 216.529 258.025 218.927 255.869C221.465 253.578 224.917 252.298 228.23 251.855C232.13 251.345 236.087 251.932 239.996 251.827C243.906 251.721 247.779 250.931 250.914 248.487C253.172 246.725 254.889 244.386 256.093 241.749C258.528 236.368 259.237 230.439 260.833 224.789C262.335 219.495 264.659 215.096 269.996 213.45C275.781 211.67 282.686 212.565 287.734 208.657C290.982 206.145 292.213 202.468 292.643 198.435C292.848 196.548 292.848 194.633 293.156 192.765C293.445 191.014 293.902 189.271 294.546 187.626C296.972 181.359 302.104 175.931 308.235 173.515C311.631 172.177 315.467 172.013 318.62 170.05C320.384 168.952 321.7 167.355 322.596 165.458C323.398 163.745 323.958 161.945 324.956 160.328C328.185 155.092 334.707 152.137 340.633 152.994C343.451 153.407 347.015 154.822 348.228 157.72C349.04 159.645 348.349 161.897 347.864 163.812C347.276 166.132 346.847 168.452 346.707 170.849C346.185 179.685 349.161 188.299 348.545 197.135C348.107 203.478 345.615 210.13 339.373 212.392C336.014 213.614 332.44 213.941 329.034 214.981C325.432 216.078 322.241 218.032 320.151 221.324C318.061 224.616 317.435 228.543 316.866 232.316C316.297 236.089 315.597 239.622 314.375 243.154C312.098 249.757 308.207 256.119 302.711 260.364C296.123 265.456 288.182 266.293 280.204 266.351C275.884 266.38 271.554 266.265 267.243 266.621C262.932 266.977 258.649 267.939 254.525 269.528C250.401 271.116 246.594 272.993 242.488 274.35C241.769 274.59 241.041 274.812 240.304 274.985C240.183 275.014 240.062 275.033 239.94 275.052C239.595 275.12 240.342 275.004 239.987 275.052C239.679 275.081 239.371 275.11 239.063 275.129C237.85 275.197 236.628 275.149 235.415 275.052C230.525 274.667 225.384 273.474 220.42 272.165C219.44 271.905 218.46 271.645 217.49 271.356C214.597 270.5 213.365 275.139 216.249 275.996C219.804 277.045 223.415 277.921 227.045 278.633C232.709 279.759 238.541 280.76 244.13 278.854C248.413 277.391 252.491 275.351 256.746 273.792C261.001 272.232 265.265 271.472 269.744 271.27C278.59 270.865 287.744 271.982 296.319 269.123C303.765 266.64 309.803 261.288 314.058 254.599C318.313 247.909 320.281 240.584 321.476 232.865C322.036 229.265 322.623 225.145 325.236 222.44C327.672 219.928 331.301 219.274 334.539 218.6C338.095 217.849 341.818 217.079 344.85 214.913C347.883 212.748 349.992 209.677 351.363 206.164C354.471 198.213 353.052 189.705 351.979 181.504C351.373 176.903 350.869 172.081 351.802 167.499C352.735 162.917 354.499 158.172 351.438 153.947C346.903 147.68 337.731 146.833 331.087 149.519C327.802 150.847 324.742 152.897 322.484 155.737C321.317 157.2 320.356 158.75 319.628 160.492C318.9 162.234 318.294 164.39 316.726 165.612C315.364 166.671 313.572 167.066 311.949 167.46C310.166 167.894 308.394 168.317 306.686 169.02C303.131 170.473 299.902 172.6 297.14 175.334C294.378 178.068 292.307 181.09 290.804 184.517C289.134 188.319 288.453 192.149 288.164 196.288C288.024 198.204 287.912 200.235 287.156 202.025C286.587 203.353 285.682 204.383 284.627 205.076C282.22 206.645 278.991 207.049 276.052 207.463C272.767 207.925 269.492 208.368 266.422 209.735C263.595 210.996 261.299 213.123 259.61 215.76C256.354 220.823 255.533 227.147 254.114 232.913C253.424 235.743 252.687 238.351 251.39 240.748C250.093 243.144 248.348 245.06 245.66 246.08C241.825 247.534 237.58 247.024 233.595 246.918C229.611 246.812 225.617 247.12 221.866 248.65C218.115 250.181 214.877 252.587 212.666 256.042C210.631 259.209 209.95 263.165 210.482 266.9C211.014 270.634 212.824 273.647 215.707 275.784C216.734 276.544 218.302 275.967 218.899 274.918C219.589 273.705 219.085 272.386 218.059 271.626L218.04 271.597Z" fill="#260305"/>
</g>
</g>
<defs>
<clipPath id="clip0_677_5937">
<rect width="279" height="241.596" fill="white"/>
</clipPath>
<clipPath id="clip1_677_5937">
<rect width="270.472" height="241.596" fill="white" transform="translate(82.7773 42.3516)"/>
</clipPath>
</defs>
</svg>
