<svg width="151" height="206" viewBox="0 0 151 206" fill="none" xmlns="http://www.w3.org/2000/svg">
<g clip-path="url(#clip0_108_1548)">
<path d="M115.263 231.402C110.701 241.336 95.6562 241.008 86.8105 234.598C77.9648 228.188 72.642 218.004 64.653 210.544C59.9173 206.117 54.2287 202.623 50.3882 197.396C44.0355 188.743 43.7371 176.653 37.0283 168.279C31.8787 161.84 23.2929 158.086 20.2032 150.444C17.768 144.428 19.4235 137.613 18.9134 131.135C18.0663 120.336 11.2997 111.076 5.75553 101.759C3.5032 97.9663 1.35675 93.4232 2.97381 89.3132C5.28389 83.4321 13.6772 82.7679 19.4331 85.3764C25.1891 87.9849 29.8862 92.7302 35.9021 94.6937C39.6271 95.9161 43.7179 96.0124 47.2407 97.745C58.9548 103.511 56.3463 121.086 62.8723 132.387C69.0806 143.148 83.9903 148.519 86.0886 160.762C87.3688 168.241 83.1817 176.191 85.7902 183.314C88.7452 191.399 98.4957 194.085 106.032 198.233C117.304 204.442 125.264 220.141 117.207 230.19" fill="#5AB290"/>
<path d="M113.184 230.19C110.941 234.945 106.148 236.802 101.037 236.773C95.2425 236.735 89.9005 234.396 85.5209 230.488C79.9286 225.512 75.7416 219.226 70.8712 213.596C68.3878 210.718 65.6735 208.128 62.7378 205.722C59.802 203.316 56.7027 200.958 54.1038 198.128C49.2045 192.815 47.472 185.73 45.1523 179.079C43.9491 175.653 42.5919 172.207 40.6187 169.146C38.6455 166.085 36.2488 163.727 33.5826 161.455C28.51 157.143 22.7156 153.187 21.5221 146.17C20.8387 142.137 21.4451 137.94 21.4258 133.879C21.4065 129.817 20.7328 125.87 19.4141 122.068C16.7768 114.503 12.2432 107.871 8.15246 101.047C6.3429 98.0338 3.98469 94.1644 5.10123 90.5164C5.83275 88.1197 7.95995 87.0032 10.4144 86.493C16.9115 85.1359 22.5905 89.9389 27.8652 93.3078C31.2629 95.4735 34.7858 97.0617 38.7418 97.8798C42.0433 98.5632 45.7394 99.1696 48.2997 101.201C52.4964 104.541 53.8824 110.094 55.0856 115.263C56.462 121.164 57.4727 127.256 60.3025 132.685C63.1324 138.114 68.0413 142.262 72.6615 146.257C76.8485 149.886 81.5649 153.861 83.2397 159.203C84.2985 162.572 83.9424 166.085 83.4226 169.521C82.8258 173.506 82.1521 177.472 82.8258 181.486C83.9905 188.425 89.7368 192.757 95.6179 195.76C98.5151 197.242 101.518 198.532 104.387 200.072C107.111 201.535 109.498 203.422 111.577 205.703C115.465 209.948 118.334 215.694 118.055 221.46C117.939 223.875 117.092 226.455 115.504 228.486C114.705 229.506 114.503 230.892 115.504 231.893C116.341 232.731 118.103 232.923 118.911 231.893C127.969 220.343 119.922 204.519 109.17 197.329C103.722 193.681 96.9655 192.093 91.9314 187.78C89.5154 185.711 87.8021 183.093 87.4171 179.888C86.9455 175.912 87.9658 171.87 88.4566 167.952C88.909 164.256 88.8802 160.464 87.5326 156.951C86.368 153.909 84.5584 151.262 82.3831 148.846C78.1287 144.12 72.7962 140.53 68.4744 135.871C66.4531 133.686 64.7783 131.251 63.604 128.508C62.4297 125.764 61.6886 122.723 61.0052 119.787C59.648 113.887 58.6951 107.563 55.4899 102.307C53.9402 99.7568 51.8226 97.5526 49.2141 96.0703C45.4603 93.9431 41.177 93.7505 37.1247 92.5474C29.7421 90.3624 24.5059 83.6921 16.9019 81.998C10.6165 80.6023 2.7719 82.2483 0.500318 89.0438C-0.933857 93.3463 0.856455 97.9279 2.93553 101.682C5.0146 105.436 7.30543 108.814 9.42301 112.424C11.5406 116.033 13.3598 119.392 14.6881 123.156C16.0164 126.919 16.6516 130.866 16.5939 134.947C16.5265 139.327 16.0934 143.725 16.9789 148.066C17.7393 151.811 19.6932 155.083 22.2632 157.865C26.9892 162.986 33.3997 166.383 37.0188 172.505C40.8401 178.973 42.1106 186.577 45.2485 193.354C46.9233 196.953 49.2141 200.159 52.0632 202.931C54.9123 205.703 58.1465 208.051 61.1592 210.65C67.1269 215.79 71.5449 222.297 76.6464 228.236C81.2858 233.636 86.6471 238.487 93.6255 240.498C99.4103 242.164 106.225 242.125 111.519 238.968C114.031 237.466 116.081 235.262 117.333 232.615C117.891 231.441 117.66 230.016 116.466 229.323C115.417 228.707 113.733 229.006 113.175 230.19H113.184Z" fill="#260305"/>
<path d="M209.274 213.618C200.429 199.152 208.59 180.75 200.483 165.821C198.613 162.378 196.663 158.841 193.702 156.417C185.381 149.627 172.55 154.143 164.41 147.088C154.558 138.549 159.291 120.482 150.911 110.287C147.486 106.131 142.463 104.058 138.091 101.125C133.719 98.1925 129.533 93.3578 130.071 88.0255C130.488 83.8818 133.582 80.8763 135.592 77.3935C139.564 70.5053 139.08 60.8242 134.43 53.952C131.436 49.5278 126.819 46.0074 125.55 40.7873C124.136 34.9456 127.465 29.1887 127.101 23.2264C126.729 17.2156 122.112 11.5717 116.565 10.3464C111.018 9.12101 105.101 12.4296 103.056 17.9053C101.69 21.5567 101.922 25.8571 100.17 29.3036C98.1379 33.3016 93.9305 35.271 90.3859 37.7684C86.8413 40.2659 83.5177 44.4665 84.6663 49.0262C85.1523 50.9346 86.3536 52.5608 87.2433 54.3125C91.3296 62.33 88.5476 71.8033 88.4689 80.7295C88.3563 92.9486 93.9424 105.407 103.061 113.29C107.178 116.847 112.053 119.641 115.004 124.323C117.954 129.006 117.73 136.589 112.979 138.468C113.102 149.399 123.254 159.513 133.398 158.82C136.356 158.613 139.258 157.634 142.225 158.033C151.827 159.292 155.268 172.241 158.527 182.112C164.839 201.244 179.623 217.353 197.377 224.463C197.377 224.463 213.441 220.471 209.274 213.649L209.274 213.618Z" fill="#5AB290"/>
<path d="M207.461 214.901C203.836 208.881 202.723 201.973 202.475 195.087C202.228 188.201 202.669 181.672 201.403 175.029C200.785 171.763 199.58 168.746 197.987 165.85C196.394 162.954 194.398 159.555 191.607 157.663C187.088 154.597 181.409 154.554 176.306 153.9C170.678 153.179 165.014 151.607 161.017 146.78C156.773 141.661 155.739 134.736 154.729 128.351C153.808 122.506 152.953 115.673 148.736 111.184C146.232 108.515 143.073 106.828 140.034 105.03C136.806 103.113 133.789 100.993 131.337 97.9805C128.885 94.9683 127.489 91.3047 127.877 87.486C128.232 83.9321 130.336 81.0577 132.219 78.3291C133.967 75.8085 135.28 73.1603 135.791 69.9808C136.301 66.8014 136.081 63.6957 135.171 60.6706C134.184 57.3874 132.388 54.6919 130.214 52.1445C127.7 49.1942 124.979 46.2422 123.728 42.4281C122.593 38.9816 122.945 35.4185 123.635 32.0261C124.262 28.9187 125.22 25.7405 124.796 22.4702C124.044 16.5472 118.486 11.8409 113.043 12.5513C110.413 12.9011 107.996 14.408 106.37 16.5724C104.457 19.1285 104.302 22.5332 103.676 25.6708C102.897 29.5709 101.237 32.6304 98.3732 35.1013C95.8716 37.2667 92.8465 38.654 90.3388 40.8013C88.5368 42.3343 86.6091 44.6819 86.6559 47.3583C86.6934 49.2353 87.871 50.8187 88.7303 52.3978C89.6878 54.1572 90.4476 55.9934 90.9042 57.9524C92.6795 65.5819 90.7485 73.051 90.6815 80.6322C90.6184 87.8666 92.5759 95.1806 96.2377 101.472C98.0568 104.597 100.237 107.467 102.792 109.957C105.347 112.446 108.394 114.516 111.18 116.836C113.967 119.156 116.536 121.855 117.984 125.287C119.145 128.034 119.523 131.361 118.874 134.211C118.179 137.23 116.462 139.567 113.757 140.714L115.205 138.356C115.357 145.812 120.514 152.889 127.223 155.459C128.732 156.037 130.341 156.388 131.907 156.418C134.233 156.465 136.482 155.868 138.772 155.613C142.75 155.174 146.662 156.301 149.839 159.17C155.635 164.416 157.918 173.052 160.294 180.337C163.168 189.15 167.617 197.36 173.598 204.311C180.464 212.284 188.917 218.501 198.314 222.297L196.609 222.131C198.982 221.543 201.324 220.671 203.522 219.594C203.921 219.398 203.251 219.756 203.766 219.461C203.962 219.354 204.159 219.246 204.353 219.13C204.735 218.91 205.111 218.671 205.475 218.426C205.84 218.181 206.194 217.879 206.554 217.594C207.011 217.237 206.402 217.778 206.705 217.462C206.856 217.3 207.006 217.137 207.153 216.966C207.25 216.841 207.345 216.708 207.443 216.583C207.671 216.293 207.303 216.996 207.537 216.419C207.602 216.255 207.671 216.1 207.736 215.935C207.794 215.774 207.77 215.843 207.669 216.151C207.692 216.052 207.717 215.962 207.732 215.866C207.746 215.77 207.76 215.674 207.762 215.571C207.756 215.939 207.747 215.993 207.745 215.74C207.737 215.58 207.708 215.437 207.692 215.28C207.765 215.966 207.671 215.328 207.6 215.118C207.48 214.762 207.824 215.479 207.472 214.877C205.906 212.226 209.524 209.642 211.093 212.303C215.676 220.081 205.217 224.477 200.097 226.115C199.458 226.32 198.811 226.528 198.162 226.676C196.736 227.006 194.99 225.919 193.655 225.303C192.243 224.652 190.846 223.935 189.478 223.168C183.99 220.104 178.857 216.189 174.32 211.636C169.782 207.082 165.749 201.871 162.506 196.211C159.262 190.55 157.173 184.916 155.205 178.896C153.577 173.909 151.927 168.746 148.762 164.563C147.557 162.979 145.853 161.492 144.111 160.83C141.259 159.751 138.353 160.499 135.522 160.916C130.048 161.729 124.701 160.101 120.101 156.523C115.871 153.238 112.516 148.214 111.326 142.815C111.009 141.378 110.804 139.944 110.776 138.48C110.751 137.361 111.282 136.531 112.224 136.122C113.006 135.787 113.692 135.088 114.105 134.186C114.565 133.177 114.762 131.994 114.728 130.847C114.643 127.919 113.511 125.477 111.517 123.296C109.005 120.547 105.97 118.484 103.12 116.196C100.269 113.907 97.6633 111.211 95.4085 108.203C90.8286 102.09 87.8354 94.6887 86.7089 87.1042C85.5824 79.5197 87.3786 72.0656 87.2529 64.4378C87.1883 60.66 86.4591 57.2591 84.5639 53.9369C83.4872 52.0451 82.4858 50.1279 82.2643 47.927C82.0964 46.216 82.4157 44.5131 83.0158 42.9796C84.194 39.9302 86.5917 37.4848 89.1068 35.6907C91.7957 33.7768 94.934 32.3107 97.1072 29.6973C99.2805 27.0839 99.4134 23.6153 100.069 20.3156C100.786 16.7005 102.251 13.6456 104.848 11.2651C109.808 6.7251 117.169 6.50512 122.736 10.7713C125.336 12.7584 127.397 15.6892 128.489 18.8663C129.675 22.2958 129.493 25.8417 128.833 29.265C128.232 32.4243 127.187 35.6216 127.506 38.9377C127.848 42.4594 130.252 45.2745 132.434 47.819C134.925 50.7266 137.215 53.5903 138.683 57.2193C139.957 60.3855 140.6 63.9171 140.517 67.2874C140.429 70.8324 139.725 74.3211 138.199 77.4168C136.673 80.5126 134.446 82.7176 133.072 85.7112C129.911 92.6 137.237 97.9894 142.252 100.949C145.405 102.81 148.695 104.635 151.332 107.341C153.737 109.8 155.452 112.837 156.595 116.139C158.791 122.448 158.944 129.163 160.591 135.586C161.337 138.484 162.358 141.37 164.266 143.682C165.894 145.662 168.079 147.027 170.33 147.79C175.644 149.592 181.231 149.311 186.625 150.578C189.439 151.243 192.163 152.355 194.571 154.163C197.578 156.418 199.693 159.728 201.543 163.055C203.393 166.382 204.718 169.45 205.503 173.015C206.287 176.58 206.609 179.905 206.733 183.389C206.982 190.142 206.489 197.013 207.852 203.725C208.46 206.741 209.53 209.661 211.115 212.285C212.7 214.909 209.085 217.502 207.494 214.859L207.461 214.901Z" fill="#260305"/>
<path d="M175.338 274.905C169.977 277.622 162.926 274.636 159.958 269.414C156.991 264.192 157.549 257.525 160.025 252.047C162.796 245.941 167.892 240.39 167.607 233.684C167.044 220.32 146.361 214.909 145.664 201.549C145.221 193.008 153.547 184.332 149.424 176.834C147.606 173.534 143.904 171.842 140.819 169.674C132.038 163.49 127.587 151.735 130.085 141.292C130.893 137.932 132.334 134.412 131.178 131.163C130.47 129.172 128.894 127.654 127.642 125.961C122.208 118.642 123.406 107.224 130.248 101.193C132.609 99.1097 135.826 97.6085 138.891 98.3549C141.75 99.0561 143.784 101.489 146.001 103.419C152.268 108.891 160.784 110.786 168.406 114.112C176.028 117.439 183.682 123.562 184.007 131.876C184.28 138.969 179.064 145.877 180.999 152.708C182.461 157.861 187.452 161.015 191.677 164.313C202.086 172.447 209.853 185.292 208.198 198.389C206.605 210.983 196.921 221.123 193.646 233.389C191.836 240.167 192.051 247.328 190.51 254.174C188.969 261.021 175.364 274.897 175.364 274.897L175.338 274.905Z" fill="#5AB290"/>
<path d="M174.084 272.85C171.504 274.104 168.409 273.495 166.031 272.145C163.166 270.522 161.401 267.775 160.678 264.574C159.906 261.182 160.471 257.44 161.705 254.223C163.167 250.44 165.622 247.128 167.445 243.529C169.268 239.929 170.471 236.039 169.855 232.032C169.412 229.146 168.195 226.476 166.464 224.131C162.923 219.364 158.052 215.904 153.862 211.772C149.94 207.893 147.208 203.695 148.375 198.068C149.642 191.971 153.814 186.128 152.848 179.689C152.229 175.548 149.597 172.684 146.258 170.378C144.699 169.296 143.013 168.386 141.521 167.219C140.121 166.125 138.812 164.882 137.679 163.516C133.354 158.337 131.091 151.1 131.969 144.387C132.456 140.669 134.191 137.11 134.009 133.314C133.907 131.192 133.146 129.239 131.916 127.525C130.802 125.983 129.492 124.62 128.559 122.945C125.533 117.527 126.129 110.203 129.786 105.231C131.531 102.87 134.523 100.307 137.666 100.582C139.758 100.759 141.402 102.456 142.85 103.806C144.603 105.442 146.434 106.933 148.474 108.199C155.994 112.87 165.033 114.261 172.507 119.017C177.874 122.428 182.506 127.849 181.437 134.59C180.867 138.22 179.404 141.619 178.65 145.205C177.85 148.995 178.006 152.82 179.879 156.281C181.751 159.742 184.901 162.175 187.942 164.484C190.984 166.793 193.749 169.107 196.259 171.894C200.954 177.097 204.646 183.652 205.688 190.657C206.941 199.055 203.786 206.661 199.928 213.931C197.837 217.866 195.613 221.741 193.814 225.823C192.015 229.906 190.764 234.251 190.14 238.749C189.517 243.247 189.303 247.595 188.486 251.966C188.345 252.733 188.184 253.498 187.975 254.25C187.941 254.374 187.898 254.493 187.856 254.612C187.746 254.958 188.01 254.225 187.879 254.57C187.753 254.863 187.628 255.156 187.494 255.445C186.959 256.578 186.317 257.665 185.638 258.72C182.904 262.976 179.334 267.076 175.75 270.96C175.041 271.726 174.332 272.492 173.603 273.235C171.431 275.454 174.91 278.776 177.077 276.566C179.742 273.837 182.283 270.975 184.688 268.019C188.454 263.412 192.193 258.594 193.254 252.615C194.066 248.032 194.268 243.362 194.981 238.759C195.694 234.156 197.114 229.924 199.131 225.762C203.11 217.54 208.577 209.761 210.264 200.62C211.727 192.681 209.976 184.659 206.174 177.618C202.372 170.578 196.891 165.312 190.684 160.561C187.79 158.343 184.453 155.852 183.353 152.196C182.336 148.792 183.538 145.186 184.532 141.927C185.613 138.343 186.76 134.598 186.34 130.816C185.921 127.035 184.252 123.662 181.833 120.748C176.359 114.151 168.176 111.396 160.434 108.475C156.088 106.84 151.598 105.006 148.023 101.983C144.449 98.9597 141.137 95.1047 135.919 95.8757C128.183 97.0157 122.943 104.939 122.051 112.246C121.61 115.858 121.915 119.61 123.307 123.009C124.023 124.762 124.916 126.371 126.092 127.859C127.268 129.348 128.869 130.922 129.176 132.926C129.44 134.665 128.91 136.479 128.461 138.14C127.969 139.964 127.473 141.774 127.255 143.658C126.792 147.576 127.082 151.517 128.134 155.322C129.186 159.128 130.83 162.444 133.11 165.436C135.637 168.758 138.674 171.196 142.175 173.424C143.792 174.461 145.524 175.528 146.729 177.064C147.619 178.212 148.082 179.523 148.175 180.809C148.376 183.74 147.15 186.862 146.074 189.727C144.871 192.928 143.655 196.111 143.354 199.547C143.078 202.712 143.825 205.807 145.319 208.592C148.178 213.953 153.341 217.703 157.719 221.729C159.871 223.7 161.805 225.608 163.279 227.924C164.752 230.24 165.583 232.734 165.164 235.658C164.564 239.829 162.034 243.441 159.989 247.007C157.943 250.574 156.257 254.345 155.766 258.477C155.275 262.609 155.806 266.691 157.763 270.34C159.553 273.691 162.7 276.188 166.247 277.479C169.794 278.771 173.332 278.559 176.626 276.956C177.798 276.386 178.058 274.689 177.427 273.648C176.698 272.445 175.291 272.276 174.119 272.847L174.084 272.85Z" fill="#260305"/>
<g clip-path="url(#clip1_108_1548)">
<path d="M194.518 273.754C190.095 283.687 175.511 283.36 166.935 276.95C158.36 270.539 153.2 260.355 145.455 252.896C140.864 248.468 135.349 244.974 131.626 239.748C125.468 231.094 125.178 219.005 118.675 210.631C113.683 204.192 105.359 200.438 102.364 192.795C100.003 186.779 101.608 179.965 101.113 173.487C100.292 162.687 93.7326 153.428 88.3578 144.11C86.1744 140.318 84.0935 135.775 85.6611 131.665C87.9006 125.784 96.0373 125.119 101.617 127.728C107.197 130.336 111.751 135.082 117.583 137.045C121.194 138.268 125.16 138.364 128.575 140.097C139.931 145.862 137.402 163.438 143.729 174.738C149.747 185.499 164.201 190.87 166.235 203.114C167.476 210.593 163.417 218.543 165.946 225.666C168.811 233.751 178.263 236.437 185.569 240.585C196.496 246.793 204.213 262.492 196.403 272.541" fill="#5AB290"/>
<path d="M192.502 272.541C190.328 277.296 185.681 279.154 180.726 279.125C175.109 279.087 169.93 276.748 165.685 272.84C160.263 267.863 156.204 261.578 151.483 255.947C149.075 253.069 146.444 250.48 143.598 248.074C140.752 245.667 137.747 243.309 135.228 240.479C130.478 235.166 128.799 228.082 126.55 221.431C125.384 218.004 124.068 214.558 122.155 211.497C120.242 208.437 117.919 206.078 115.334 203.807C110.416 199.495 104.799 195.539 103.642 188.522C102.98 184.489 103.567 180.292 103.549 176.23C103.53 172.168 102.877 168.222 101.598 164.42C99.0418 156.854 94.6468 150.222 90.6811 143.398C88.9268 140.385 86.6407 136.516 87.7231 132.868C88.4323 130.471 90.4945 129.355 92.8739 128.845C99.1724 127.487 104.678 132.29 109.791 135.659C113.085 137.825 116.5 139.413 120.335 140.231C123.536 140.915 127.119 141.521 129.601 143.552C133.67 146.892 135.013 152.446 136.18 157.615C137.514 163.515 138.494 169.608 141.237 175.037C143.98 180.465 148.739 184.614 153.218 188.608C157.277 192.237 161.85 196.212 163.473 201.554C164.5 204.923 164.154 208.437 163.65 211.873C163.072 215.858 162.419 219.823 163.072 223.837C164.201 230.777 169.772 235.108 175.473 238.111C178.282 239.594 181.193 240.884 183.974 242.424C186.614 243.887 188.928 245.773 190.944 248.054C194.714 252.299 197.494 258.046 197.224 263.811C197.112 266.227 196.291 268.807 194.751 270.838C193.977 271.858 193.781 273.244 194.751 274.245C195.563 275.082 197.271 275.275 198.054 274.245C206.835 262.695 199.034 246.87 188.611 239.68C183.33 236.032 176.779 234.444 171.899 230.132C169.557 228.063 167.896 225.444 167.523 222.239C167.066 218.264 168.055 214.221 168.531 210.304C168.969 206.608 168.941 202.815 167.635 199.302C166.506 196.26 164.752 193.614 162.643 191.198C158.518 186.472 153.349 182.881 149.159 178.223C147.2 176.038 145.576 173.602 144.438 170.859C143.299 168.116 142.581 165.074 141.918 162.139C140.603 156.238 139.679 149.914 136.572 144.659C135.069 142.108 133.016 139.904 130.488 138.422C126.849 136.295 122.696 136.102 118.768 134.899C111.611 132.714 106.535 126.044 99.1631 124.35C93.0698 122.954 85.465 124.6 83.2628 131.395C81.8725 135.698 83.6081 140.28 85.6236 144.033C87.6391 147.787 89.8599 151.166 91.9128 154.775C93.9656 158.385 95.7292 161.744 97.0169 165.508C98.3046 169.271 98.9205 173.217 98.8645 177.299C98.7992 181.678 98.3793 186.077 99.2377 190.418C99.9749 194.162 101.869 197.435 104.361 200.216C108.942 205.337 115.157 208.735 118.665 214.857C122.37 221.325 123.601 228.929 126.643 235.705C128.267 239.305 130.488 242.51 133.25 245.282C136.012 248.054 139.147 250.403 142.068 253.002C147.853 258.142 152.136 264.648 157.081 270.587C161.579 275.987 166.776 280.838 173.541 282.85C179.149 284.515 185.756 284.477 190.888 281.32C193.323 279.818 195.311 277.614 196.524 274.967C197.065 273.793 196.841 272.368 195.684 271.675C194.667 271.059 193.034 271.357 192.493 272.541H192.502Z" fill="#260305"/>
</g>
</g>
<defs>
<clipPath id="clip0_108_1548">
<rect width="279" height="241.596" fill="white"/>
</clipPath>
<clipPath id="clip1_108_1548">
<rect width="270.472" height="241.596" fill="white" transform="translate(82.7778 42.3516)"/>
</clipPath>
</defs>
</svg>
