<svg width="169" height="135" viewBox="0 0 169 135" fill="none" xmlns="http://www.w3.org/2000/svg">
<path d="M22.0259 143.487C16.8959 139.927 16.1459 132.007 19.4559 126.717C22.7659 121.427 29.1359 118.647 35.3659 118.207C42.3159 117.727 49.9059 119.647 55.8959 116.077C67.8359 108.967 62.5759 87.3869 74.4459 80.1569C82.0359 75.5369 94.0759 78.8669 98.8959 71.3969C101.016 68.1069 100.736 63.8869 101.196 59.9969C102.516 48.9169 111.066 39.0469 121.846 36.1769C125.316 35.2569 129.246 34.8369 131.646 32.1769C133.116 30.5469 133.726 28.3569 134.656 26.3769C138.666 17.7969 149.696 13.2569 158.586 16.5369C161.656 17.6669 164.616 19.8669 165.446 23.0369C166.216 25.9969 164.996 29.0569 164.326 32.0369C162.416 40.4669 164.886 49.1869 165.606 57.7969C166.326 66.4069 164.506 76.4269 157.066 80.8269C150.716 84.5769 141.826 83.2169 136.536 88.3569C132.546 92.2369 132.126 98.3569 131.196 103.847C128.896 117.377 120.986 130.817 108.196 135.767C95.8959 140.527 81.8459 136.677 69.0159 139.737C61.9259 141.427 55.4859 145.157 48.4659 147.127C41.4459 149.097 22.0459 143.507 22.0459 143.507L22.0259 143.487Z" fill="#5AB290"/>
<path d="M23.2859 141.327C20.8659 139.587 19.8959 136.457 19.9559 133.617C20.0259 130.197 21.6659 127.227 24.2359 124.987C26.9559 122.607 30.6559 121.277 34.2059 120.817C38.3859 120.287 42.6259 120.897 46.8159 120.787C51.0059 120.677 55.1559 119.857 58.5159 117.317C60.9359 115.487 62.7759 113.057 64.0659 110.317C66.6759 104.727 67.4359 98.5668 69.1459 92.6968C70.7559 87.1968 73.2459 82.6268 78.9659 80.9168C85.1659 79.0668 92.5659 79.9968 97.9759 75.9368C101.456 73.3268 102.776 69.5068 103.236 65.3168C103.456 63.3568 103.456 61.3668 103.786 59.4268C104.096 57.6068 104.586 55.7968 105.276 54.0868C107.876 47.5768 113.376 41.9368 119.946 39.4268C123.586 38.0368 127.696 37.8668 131.076 35.8268C132.966 34.6868 134.376 33.0268 135.336 31.0568C136.196 29.2768 136.796 27.4068 137.866 25.7268C141.326 20.2868 148.316 17.2168 154.666 18.1068C157.686 18.5368 161.506 20.0068 162.806 23.0168C163.676 25.0168 162.936 27.3568 162.416 29.3468C161.786 31.7568 161.326 34.1668 161.176 36.6568C160.616 45.8368 163.806 54.7868 163.146 63.9668C162.676 70.5568 160.006 77.4668 153.316 79.8168C149.716 81.0868 145.886 81.4268 142.236 82.5068C138.376 83.6468 134.956 85.6768 132.716 89.0968C130.476 92.5168 129.806 96.5968 129.196 100.517C128.586 104.437 127.836 108.107 126.526 111.777C124.086 118.637 119.916 125.247 114.026 129.657C106.966 134.947 98.4559 135.817 89.9059 135.877C85.2759 135.907 80.6359 135.787 76.0159 136.157C71.3959 136.527 66.8059 137.527 62.3859 139.177C57.9659 140.827 53.8859 142.777 49.4859 144.187C48.7159 144.437 47.9359 144.667 47.1459 144.847C47.0159 144.877 46.8859 144.897 46.7559 144.917C46.3859 144.987 47.1859 144.867 46.8059 144.917C46.4759 144.947 46.1459 144.977 45.8159 144.997C44.5159 145.067 43.2059 145.017 41.9059 144.917C36.6659 144.517 31.1559 143.277 25.8359 141.917C24.7859 141.647 23.7359 141.377 22.6959 141.077C19.5959 140.187 18.2759 145.007 21.3659 145.897C25.1759 146.987 29.0459 147.897 32.9359 148.637C39.0059 149.807 45.2559 150.847 51.2459 148.867C55.8359 147.347 60.2059 145.227 64.7659 143.607C69.3259 141.987 73.8959 141.197 78.6959 140.987C88.1759 140.567 97.9859 141.727 107.176 138.757C115.156 136.177 121.626 130.617 126.186 123.667C130.746 116.717 132.856 109.107 134.136 101.087C134.736 97.3468 135.366 93.0668 138.166 90.2568C140.776 87.6468 144.666 86.9668 148.136 86.2668C151.946 85.4868 155.936 84.6868 159.186 82.4368C162.436 80.1868 164.696 76.9968 166.166 73.3468C169.496 65.0868 167.976 56.2468 166.826 47.7268C166.176 42.9468 165.636 37.9368 166.636 33.1768C167.636 28.4168 169.526 23.4868 166.246 19.0968C161.386 12.5868 151.556 11.7068 144.436 14.4968C140.916 15.8768 137.636 18.0068 135.216 20.9568C133.966 22.4768 132.936 24.0868 132.156 25.8968C131.376 27.7068 130.726 29.9468 129.046 31.2168C127.586 32.3168 125.666 32.7268 123.926 33.1368C122.016 33.5868 120.116 34.0268 118.286 34.7568C114.476 36.2668 111.016 38.4768 108.056 41.3168C105.096 44.1568 102.876 47.2968 101.266 50.8568C99.4759 54.8068 98.7459 58.7868 98.4359 63.0868C98.2859 65.0768 98.1659 67.1868 97.3559 69.0468C96.7459 70.4268 95.7759 71.4968 94.6459 72.2168C92.0659 73.8468 88.6059 74.2668 85.4559 74.6968C81.9359 75.1768 78.4259 75.6368 75.1359 77.0568C72.1059 78.3668 69.6459 80.5768 67.8359 83.3168C64.3459 88.5768 63.4659 95.1468 61.9459 101.137C61.2059 104.077 60.4159 106.787 59.0259 109.277C57.6359 111.767 55.7659 113.757 52.8859 114.817C48.7759 116.327 44.2259 115.797 39.9559 115.687C35.6859 115.577 31.4059 115.897 27.3859 117.487C23.3659 119.077 19.8959 121.577 17.5259 125.167C15.3459 128.457 14.6159 132.567 15.1859 136.447C15.7559 140.327 17.6959 143.457 20.7859 145.677C21.8859 146.467 23.5659 145.867 24.2059 144.777C24.9459 143.517 24.4059 142.147 23.3059 141.357L23.2859 141.327Z" fill="#260305"/>
<path d="M151.708 140.986C157.032 137.14 157.811 128.583 154.375 122.867C150.94 117.151 144.328 114.148 137.862 113.672C130.648 113.154 122.77 115.228 116.553 111.371C104.161 103.689 109.62 80.3724 97.2999 72.5607C89.4221 67.569 76.9255 71.1669 71.9227 63.0959C69.7223 59.5411 70.0129 54.9816 69.5355 50.7786C68.1655 38.8071 59.2912 28.1429 48.1024 25.042C44.5008 24.048 40.4218 23.5942 37.9308 20.7201C36.4051 18.959 35.7719 16.5928 34.8067 14.4535C30.6446 5.1831 19.1963 0.277803 9.96921 3.82172C6.78278 5.04264 3.71056 7.41966 2.84908 10.8447C2.04988 14.0429 3.31613 17.3491 4.01155 20.5689C5.99397 29.6772 3.43031 39.0988 2.68301 48.4016C1.9357 57.7044 3.82472 68.5306 11.5469 73.2846C18.1377 77.3363 27.3648 75.8669 32.8554 81.4205C36.9967 85.6127 37.4326 92.2251 38.3979 98.1569C40.7851 112.776 48.995 127.297 62.2701 132.645C75.0365 137.788 89.6193 133.628 102.936 136.935C110.295 138.761 116.979 142.791 124.265 144.919C131.551 147.048 151.687 141.008 151.687 141.008L151.708 140.986Z" fill="#5AB290"/>
<path d="M150.4 138.652C152.912 136.772 153.918 133.39 153.856 130.322C153.784 126.627 152.081 123.418 149.414 120.997C146.591 118.426 142.75 116.989 139.066 116.492C134.727 115.919 130.326 116.578 125.978 116.46C121.629 116.341 117.321 115.455 113.834 112.71C111.322 110.733 109.412 108.108 108.073 105.147C105.364 99.1073 104.576 92.4517 102.801 86.1094C101.13 80.1668 98.5454 75.2291 92.6085 73.3815C86.1733 71.3827 78.4927 72.3875 72.8776 68.0008C69.2656 65.1808 67.8955 61.0534 67.4181 56.5263C67.1898 54.4086 67.1898 52.2585 66.8472 50.1624C66.5255 48.196 66.0169 46.2403 65.3007 44.3927C62.6021 37.3589 56.8936 31.2651 50.0744 28.5532C46.2964 27.0513 42.0305 26.8676 38.5224 24.6635C36.5607 23.4318 35.0972 21.6382 34.1008 19.5097C33.2082 17.5865 32.5855 15.566 31.4749 13.7508C27.8837 7.87311 20.6286 4.55609 14.0378 5.5177C10.9033 5.9823 6.93842 7.57059 5.58911 10.8228C4.68613 12.9837 5.45421 15.512 5.99393 17.6621C6.64781 20.266 7.12524 22.8699 7.28093 25.5603C7.86217 35.4789 4.55119 45.149 5.23622 55.0677C5.72404 62.1879 8.49532 69.6539 15.439 72.193C19.1755 73.5652 23.1508 73.9326 26.9392 75.0995C30.9455 76.3312 34.4952 78.5245 36.8202 82.2197C39.1451 85.9149 39.8405 90.3232 40.4737 94.5586C41.1068 98.794 41.8852 102.759 43.2449 106.725C45.7775 114.137 50.1056 121.278 56.2189 126.043C63.5467 131.759 72.3794 132.699 81.2536 132.764C86.0592 132.796 90.8751 132.666 95.6703 133.066C100.466 133.466 105.23 134.546 109.817 136.329C114.405 138.112 118.64 140.219 123.206 141.742C124.006 142.012 124.815 142.261 125.635 142.455C125.77 142.488 125.905 142.509 126.04 142.531C126.424 142.607 125.594 142.477 125.988 142.531C126.331 142.563 126.673 142.596 127.016 142.618C128.365 142.693 129.725 142.639 131.074 142.531C136.513 142.099 142.231 140.759 147.753 139.29C148.843 138.998 149.933 138.706 151.012 138.382C154.23 137.42 155.6 142.628 152.393 143.59C148.438 144.768 144.421 145.751 140.384 146.55C134.084 147.815 127.597 148.938 121.38 146.799C116.616 145.157 112.08 142.866 107.347 141.116C102.614 139.365 97.8707 138.512 92.8887 138.285C83.0492 137.831 72.8672 139.084 63.3287 135.875C55.0461 133.088 48.3307 127.08 43.5978 119.571C38.8649 112.062 36.6749 103.84 35.3463 95.1744C34.7236 91.1335 34.0697 86.5091 31.1635 83.473C28.4545 80.653 24.417 79.9183 20.8154 79.162C16.8609 78.3192 12.7197 77.4549 9.34642 75.0238C5.97318 72.5928 3.62746 69.1461 2.10172 65.2024C-1.35457 56.2778 0.223068 46.7265 1.41669 37.521C2.09134 32.3564 2.65181 26.9433 1.61389 21.8003C0.575974 16.6573 -1.38571 11.3306 2.01866 6.58737C7.06296 -0.446439 17.2658 -1.39725 24.6558 1.61724C28.3092 3.10827 31.7136 5.40967 34.2254 8.59703C35.5228 10.2393 36.5918 11.9789 37.4014 13.9345C38.211 15.8901 38.8856 18.3104 40.6294 19.6826C42.1447 20.8711 44.1375 21.3141 45.9435 21.757C47.9259 22.2433 49.898 22.7187 51.7974 23.5074C55.7519 25.1389 59.3431 27.5267 62.4153 30.5952C65.4876 33.6637 67.7917 37.0564 69.4628 40.9028C71.3207 45.1707 72.0784 49.4709 72.4001 54.1169C72.5558 56.267 72.6804 58.5468 73.5211 60.5564C74.1542 62.0475 75.161 63.2036 76.3338 63.9815C79.0117 65.7426 82.6029 66.1964 85.8723 66.661C89.5258 67.1797 93.1689 67.6767 96.5837 69.2109C99.7286 70.6263 102.282 73.0142 104.161 75.9746C107.783 81.6579 108.696 88.7565 110.274 95.2285C111.042 98.405 111.862 101.333 113.305 104.023C114.747 106.714 116.688 108.864 119.677 110.009C123.943 111.641 128.666 111.068 133.098 110.949C137.53 110.83 141.972 111.176 146.144 112.894C150.317 114.612 153.918 117.313 156.378 121.192C158.641 124.747 159.399 129.187 158.807 133.38C158.215 137.572 156.202 140.954 152.995 143.352C151.853 144.206 150.109 143.558 149.445 142.38C148.677 141.018 149.237 139.538 150.379 138.685L150.4 138.652Z" fill="#260305"/>
</svg>
