<svg width="390" height="326" viewBox="0 0 390 326" fill="none" xmlns="http://www.w3.org/2000/svg">
<g clip-path="url(#clip0_677_5892)">
<path d="M228.88 379.38C235.258 395.666 256.288 395.129 268.652 384.619C281.017 374.109 288.458 357.414 299.625 345.184C306.245 337.925 314.197 332.196 319.565 323.627C328.445 309.441 328.863 289.62 338.241 275.891C345.439 265.334 357.441 259.18 361.76 246.65C365.164 236.787 362.849 225.615 363.562 214.994C364.746 197.289 374.205 182.108 381.955 166.832C385.104 160.615 388.104 153.166 385.844 146.428C382.614 136.786 370.882 135.697 362.836 139.974C354.79 144.25 348.224 152.03 339.815 155.249C334.608 157.253 328.889 157.411 323.965 160.252C307.591 169.704 311.237 198.519 302.114 217.046C293.436 234.688 272.595 243.494 269.662 263.567C267.872 275.828 273.725 288.863 270.079 300.541C265.948 313.796 252.318 318.199 241.783 325C226.028 335.179 214.901 360.917 226.162 377.392" fill="#5AB290"/>
<path d="M231.786 377.391C234.921 385.186 241.621 388.232 248.766 388.185C256.866 388.121 264.333 384.287 270.455 377.88C278.272 369.721 284.125 359.417 290.933 350.185C294.404 345.467 298.199 341.222 302.302 337.277C306.406 333.331 310.738 329.465 314.371 324.826C321.22 316.115 323.642 304.5 326.884 293.596C328.566 287.978 330.463 282.329 333.221 277.311C335.98 272.292 339.33 268.426 343.057 264.702C350.147 257.632 358.247 251.146 359.916 239.642C360.871 233.03 360.023 226.15 360.05 219.491C360.077 212.831 361.019 206.361 362.862 200.128C366.549 187.724 372.886 176.852 378.604 165.663C381.134 160.724 384.43 154.38 382.869 148.399C381.847 144.47 378.873 142.64 375.442 141.803C366.36 139.578 358.422 147.453 351.049 152.976C346.299 156.526 341.375 159.13 335.845 160.471C331.23 161.592 326.063 162.586 322.484 165.916C316.618 171.392 314.681 180.497 312.999 188.971C311.075 198.645 309.662 208.634 305.706 217.534C301.751 226.434 294.889 233.236 288.43 239.784C282.578 245.734 275.985 252.251 273.644 261.009C272.164 266.532 272.661 272.292 273.388 277.926C274.222 284.459 275.164 290.961 274.222 297.541C272.594 308.919 264.562 316.02 256.341 320.944C252.291 323.374 248.093 325.488 244.084 328.013C240.276 330.412 236.939 333.505 234.033 337.245C228.597 344.204 224.588 353.625 224.978 363.078C225.139 367.039 226.323 371.268 228.543 374.597C229.66 376.27 229.943 378.543 228.543 380.184C227.373 381.557 224.91 381.872 223.78 380.184C211.119 361.247 222.368 335.304 237.396 323.516C245.012 317.535 254.457 314.931 261.494 307.862C264.871 304.469 267.266 300.176 267.804 294.922C268.464 288.404 267.037 281.776 266.351 275.354C265.719 269.294 265.759 263.076 267.643 257.317C269.271 252.33 271.8 247.99 274.841 244.029C280.788 236.281 288.242 230.395 294.283 222.757C297.109 219.175 299.45 215.183 301.091 210.685C302.733 206.188 303.769 201.201 304.724 196.388C306.621 186.715 307.953 176.347 312.434 167.731C314.6 163.549 317.56 159.935 321.206 157.505C326.454 154.017 332.441 153.702 338.105 151.729C348.425 148.147 355.745 137.211 366.374 134.434C375.16 132.145 386.126 134.844 389.301 145.985C391.306 153.039 388.803 160.55 385.897 166.705C382.991 172.859 379.788 178.398 376.828 184.316C373.868 190.234 371.325 195.741 369.469 201.911C367.612 208.081 366.724 214.551 366.804 221.242C366.899 228.422 367.504 235.634 366.266 242.751C365.203 248.89 362.472 254.255 358.88 258.816C352.273 267.211 343.312 272.782 338.253 282.818C332.912 293.422 331.136 305.889 326.75 316.999C324.409 322.9 321.206 328.155 317.224 332.7C313.241 337.245 308.72 341.095 304.509 345.356C296.167 353.783 289.991 364.451 282.86 374.187C276.375 383.04 268.881 390.993 259.126 394.292C251.04 397.022 241.514 396.958 234.114 391.782C230.602 389.321 227.736 385.707 225.987 381.367C225.206 379.442 225.529 377.107 227.198 375.97C228.664 374.96 231.019 375.45 231.799 377.391H231.786Z" fill="#260305"/>
<path d="M234.412 370.937C228.694 343.826 249.455 319.524 245.028 292.082C244.005 285.754 242.916 279.236 239.821 273.918C231.116 259.006 210.382 259.29 202.067 244.062C192.003 225.63 207.651 200.05 200.52 179.819C197.6 171.566 191.357 165.711 186.473 158.862C181.589 152.014 177.902 142.309 181.279 134.308C183.903 128.09 189.836 125.045 194.438 120.689C203.533 112.073 207.556 96.7818 204.193 83.6682C202.027 75.2256 197.075 67.3354 197.788 58.5614C198.596 48.7459 206.211 41.55 208.592 32.0975C210.987 22.566 207.072 11.3776 199.658 6.56457C192.245 1.75151 182.087 3.7872 176.462 11.2198C172.709 16.1749 170.946 22.9763 166.735 27.4106C161.851 32.5551 154.814 33.4072 148.477 35.4272C142.139 37.4471 135.291 42.2286 134.726 49.9137C134.497 53.1329 135.439 56.289 135.869 59.4767C137.861 74.0737 129.223 87.3293 124.756 101.153C118.634 120.074 120.625 142.356 129.949 159.383C134.161 167.068 139.839 173.964 141.816 182.786C143.794 191.607 139.771 203.269 131.994 203.695C126.841 220.738 136.569 241.773 151.558 246.018C155.93 247.249 160.599 247.249 164.69 249.427C177.942 256.418 176.597 278.337 176.489 295.38C176.274 328.408 189.769 361.185 211.943 381.541C211.943 381.541 237.09 383.767 234.399 370.984L234.412 370.937Z" fill="#5AB290"/>
<path d="M231.168 371.978C228.867 360.727 230.63 349.412 233.63 338.586C236.631 327.761 240.452 317.851 241.865 306.868C242.564 301.471 242.295 296.153 241.407 290.819C240.519 285.485 239.295 279.157 236.187 274.754C231.155 267.621 222.974 264.576 215.924 260.883C208.147 256.812 200.733 251.399 197.316 241.805C193.683 231.626 195.567 220.327 197.222 209.881C198.742 200.318 200.841 189.255 196.939 180.071C194.625 174.611 190.884 170.335 187.373 165.948C183.646 161.277 180.322 156.4 178.25 150.435C176.178 144.47 175.95 138.048 178.372 132.319C180.618 126.985 185.059 123.624 189.108 120.373C192.862 117.375 196.051 113.951 198.338 109.28C200.626 104.609 201.823 99.6693 201.985 94.4933C202.16 88.8754 200.881 83.7468 198.984 78.6497C196.791 72.7477 194.302 66.7353 194.356 60.1549C194.396 54.2056 196.643 48.856 199.294 43.9483C201.716 39.4508 204.649 35.0165 205.631 29.7142C207.434 20.1197 201.702 9.89389 193.495 8.14225C189.526 7.30588 185.301 8.37896 181.897 10.8881C177.887 13.8548 176.004 19.0624 173.568 23.6072C170.541 29.2566 166.652 33.1386 161.311 35.4741C156.642 37.5256 151.597 38.0937 146.928 40.1136C143.577 41.5496 139.649 44.185 138.411 48.3668C137.55 51.302 138.478 54.3792 138.949 57.2828C139.474 60.5178 139.676 63.7686 139.38 67.051C138.222 79.8332 131.791 90.4219 127.997 102.163C124.378 113.367 123.638 125.755 125.858 137.448C126.961 143.255 128.71 148.857 131.186 154.065C133.661 159.272 137.052 164.085 139.945 169.151C142.837 174.217 145.232 179.755 145.65 185.847C145.986 190.723 144.91 196.088 142.582 200.175C140.106 204.499 136.487 207.229 132.02 207.592L135.262 204.689C131.845 216.351 135.841 230.048 144.277 237.56C146.174 239.248 148.327 240.637 150.574 241.505C153.911 242.799 157.449 243.051 160.88 243.856C166.841 245.26 171.94 249.064 175.129 255.186C180.941 266.375 180.026 280.988 179.905 293.549C179.757 308.746 182.179 323.832 187.427 337.766C193.454 353.752 202.63 367.844 214.35 378.669L211.968 377.517C215.682 377.848 219.489 377.722 223.189 377.201C223.862 377.107 222.718 377.312 223.606 377.123C223.943 377.059 224.279 376.996 224.616 376.917C225.275 376.775 225.934 376.602 226.58 376.412C227.226 376.223 227.885 375.939 228.544 375.687C229.379 375.371 228.235 375.892 228.827 375.56C229.123 375.387 229.419 375.213 229.715 375.024C229.917 374.882 230.119 374.724 230.32 374.582C230.791 374.25 229.917 375.15 230.536 374.377C230.711 374.156 230.886 373.951 231.06 373.73C231.222 373.509 231.155 373.604 230.859 374.03C230.939 373.888 231.02 373.761 231.087 373.619C231.155 373.477 231.222 373.335 231.276 373.177C231.087 373.746 231.047 373.824 231.168 373.43C231.235 373.177 231.262 372.941 231.316 372.688C231.087 373.793 231.262 372.751 231.262 372.388C231.262 371.773 231.41 373.067 231.195 371.947C230.226 367.007 236.711 364.893 237.68 369.848C240.506 384.334 223.257 385.676 215.063 385.534C214.04 385.518 213.004 385.502 211.995 385.392C209.775 385.155 207.784 382.551 206.156 380.894C204.433 379.142 202.765 377.296 201.164 375.387C194.733 367.749 189.23 358.975 184.897 349.522C180.565 340.07 177.282 329.86 175.358 319.366C173.434 308.872 173.165 299.025 173.259 288.641C173.339 280.041 173.474 271.156 170.945 262.998C169.976 259.905 168.24 256.701 166.047 254.76C162.455 251.588 157.893 251.225 153.601 250.389C145.3 248.78 138.37 243.446 133.473 235.477C128.966 228.154 126.571 218.591 127.486 209.581C127.728 207.182 128.131 204.847 128.804 202.558C129.315 200.807 130.486 199.797 132.047 199.655C133.338 199.544 134.67 198.818 135.706 197.635C136.864 196.309 137.725 194.573 138.236 192.774C139.541 188.182 139.097 183.795 137.281 179.361C134.993 173.775 131.616 168.977 128.616 163.928C125.615 158.878 123.167 153.323 121.377 147.469C117.744 135.57 117.031 122.504 119.103 110.132C121.175 97.7599 127.405 87.1238 130.943 75.2095C132.693 69.3076 133.298 63.6424 132.181 57.488C131.549 53.9847 131.038 50.4814 131.791 46.9466C132.383 44.2008 133.675 41.7232 135.289 39.656C138.478 35.5372 143.133 32.9966 147.641 31.529C152.458 29.9667 157.705 29.3355 162.118 26.4161C166.531 23.4967 168.415 18.1787 170.971 13.3972C173.77 8.15803 177.376 4.18134 182.287 1.84582C191.665 -2.60429 202.402 0.91477 208.362 10.462C211.147 14.9121 212.695 20.5457 212.722 26.0532C212.762 32.0024 210.771 37.4151 208.147 42.386C205.739 46.9781 202.671 51.3967 201.514 56.7147C200.289 62.3641 202.388 67.9978 204.299 73.0949C206.479 78.9179 208.389 84.5673 208.739 90.9742C209.035 96.5605 208.241 102.384 206.479 107.575C204.622 113.035 201.904 118.085 198.19 122.093C194.477 126.102 190.185 128.358 186.74 132.288C178.816 141.33 186.767 153.544 192.566 160.772C196.213 165.316 200.074 169.877 202.563 175.463C204.837 180.545 205.833 186.162 205.873 191.891C205.967 202.842 202.913 213.352 202.16 224.193C201.823 229.085 201.89 234.104 203.519 238.696C204.904 242.625 207.393 245.892 210.273 248.259C217.067 253.845 225.275 256.338 232.446 261.136C236.187 263.645 239.577 266.801 242.174 270.872C245.417 275.954 246.856 282.203 247.906 288.341C248.955 294.48 249.372 299.94 248.767 305.889C248.161 311.839 247.004 317.172 245.484 322.648C242.551 333.268 238.487 343.684 237.182 354.825C236.59 359.827 236.711 364.924 237.721 369.832C238.73 374.74 232.244 376.87 231.235 371.931L231.168 371.978Z" fill="#260305"/>
<path d="M196.656 379.256C203.558 373.638 204.567 361.14 200.114 352.792C195.66 344.444 187.09 340.057 178.707 339.363C169.356 338.605 159.144 341.635 151.085 336.002C135.02 324.782 142.097 290.727 126.126 279.318C115.914 272.027 99.7144 277.282 93.2292 265.494C90.3768 260.303 90.7536 253.643 90.1347 247.504C88.3586 230.02 76.8548 214.444 62.3505 209.915C57.6817 208.463 52.394 207.801 49.1649 203.603C47.187 201.031 46.3663 197.575 45.115 194.45C39.7196 180.911 24.879 173.746 12.9177 178.922C8.78708 180.706 4.80449 184.177 3.68774 189.18C2.65172 193.851 4.2932 198.68 5.19467 203.382C7.76453 216.685 4.44119 230.446 3.47246 244.033C2.50371 257.62 4.9525 273.432 14.9628 280.375C23.5066 286.293 35.4679 284.147 42.5855 292.258C47.9539 298.381 48.519 308.039 49.7703 316.702C52.8649 338.053 63.5077 359.262 80.7163 367.074C97.2657 374.585 116.17 368.51 133.432 373.338C142.972 376.005 151.636 381.891 161.082 385C170.527 388.109 196.629 379.288 196.629 379.288L196.656 379.256Z" fill="#5AB290"/>
<path d="M194.961 375.846C198.217 373.1 199.522 368.161 199.441 363.68C199.347 358.283 197.141 353.596 193.683 350.061C190.023 346.305 185.045 344.206 180.268 343.48C174.644 342.644 168.939 343.607 163.302 343.433C157.664 343.26 152.081 341.966 147.56 337.957C144.304 335.069 141.828 331.235 140.092 326.911C136.581 318.09 135.558 308.369 133.257 299.106C131.091 290.426 127.741 283.215 120.045 280.516C111.703 277.597 101.746 279.064 94.4672 272.657C89.785 268.539 88.0089 262.511 87.39 255.899C87.094 252.806 87.094 249.665 86.65 246.604C86.2329 243.732 85.5736 240.875 84.6452 238.177C81.147 227.904 73.7469 219.004 64.9071 215.043C60.0095 212.849 54.4796 212.581 49.9319 209.362C47.389 207.563 45.4918 204.943 44.2002 201.834C43.0431 199.026 42.2358 196.075 40.7961 193.423C36.1408 184.839 26.7359 179.994 18.1921 181.399C14.1288 182.077 8.98901 184.397 7.2399 189.147C6.06932 192.303 7.065 195.996 7.76465 199.136C8.6123 202.939 9.2312 206.742 9.43303 210.672C10.1865 225.158 5.89442 239.282 6.78244 253.768C7.41481 264.168 11.0073 275.072 20.0085 278.78C24.8522 280.784 30.0054 281.321 34.9164 283.025C40.1099 284.824 44.7115 288.028 47.7253 293.425C50.7392 298.822 51.6407 305.26 52.4614 311.446C53.2822 317.632 54.2913 323.423 56.0538 329.215C59.3368 340.04 64.9474 350.471 72.8723 357.43C82.3714 365.778 93.8214 367.151 105.325 367.246C111.555 367.293 117.798 367.104 124.014 367.688C130.23 368.272 136.406 369.85 142.353 372.454C148.3 375.057 153.789 378.134 159.709 380.36C160.745 380.754 161.795 381.117 162.858 381.401C163.033 381.448 163.208 381.48 163.383 381.512C163.88 381.622 162.804 381.433 163.315 381.512C163.759 381.559 164.203 381.606 164.647 381.638C166.396 381.748 168.159 381.669 169.908 381.512C176.958 380.88 184.372 378.923 191.53 376.777C192.943 376.351 194.355 375.925 195.755 375.452C199.926 374.047 201.702 381.654 197.544 383.058C192.418 384.778 187.211 386.214 181.977 387.382C173.81 389.228 165.401 390.869 157.341 387.745C151.166 385.346 145.286 382.001 139.15 379.444C133.015 376.888 126.866 375.641 120.408 375.31C107.653 374.647 94.4537 376.478 82.0888 371.791C71.3519 367.719 62.6467 358.945 56.5113 347.978C50.3759 337.01 47.537 325.001 45.8148 312.345C45.0075 306.444 44.1598 299.689 40.3925 295.255C36.8808 291.136 31.6469 290.063 26.9781 288.959C21.8518 287.728 16.4834 286.465 12.1105 282.915C7.73775 279.364 4.69696 274.33 2.7191 268.57C-1.76134 255.536 0.283783 241.586 1.83109 228.141C2.70564 220.597 3.43221 212.691 2.08673 205.18C0.741257 197.668 -1.80171 189.889 2.61145 182.961C9.15047 172.688 22.3765 171.299 31.9563 175.702C36.6924 177.88 41.1056 181.241 44.3616 185.896C46.0435 188.295 47.4293 190.835 48.4788 193.692C49.5283 196.548 50.4028 200.083 52.6632 202.087C54.6276 203.823 57.2109 204.47 59.5521 205.117C62.1219 205.827 64.6783 206.521 67.1405 207.673C72.2668 210.056 76.9222 213.544 80.9048 218.025C84.8874 222.507 87.8744 227.462 90.0406 233.08C92.449 239.313 93.4312 245.594 93.8483 252.379C94.0501 255.52 94.2116 258.849 95.3014 261.785C96.1221 263.962 97.4272 265.651 98.9476 266.787C102.419 269.359 107.074 270.022 111.313 270.701C116.049 271.458 120.771 272.184 125.198 274.425C129.275 276.492 132.585 279.98 135.02 284.303C139.716 292.604 140.9 302.972 142.945 312.424C143.94 317.064 145.003 321.34 146.874 325.27C148.744 329.199 151.26 332.339 155.135 334.012C160.665 336.395 166.787 335.559 172.532 335.385C178.277 335.211 184.036 335.716 189.444 338.226C194.853 340.735 199.522 344.68 202.711 350.345C205.644 355.537 206.626 362.023 205.859 368.145C205.092 374.268 202.482 379.208 198.325 382.711C196.845 383.958 194.584 383.011 193.723 381.291C192.727 379.302 193.454 377.14 194.934 375.894L194.961 375.846Z" fill="#260305"/>
</g>
<defs>
<clipPath id="clip0_677_5892">
<rect width="390" height="396.091" fill="white" transform="matrix(-1 0 0 1 390 0)"/>
</clipPath>
</defs>
</svg>
