<svg width="278" height="137" viewBox="0 0 278 137" fill="none" xmlns="http://www.w3.org/2000/svg">
<path d="M173.561 196.358C163.37 201.368 151.464 191.237 148.541 180.27C145.619 169.303 148.01 157.607 146.467 146.357C145.555 139.683 143.264 133.137 143.598 126.407C144.155 115.268 151.845 105.332 151.932 94.1846C152.007 85.6188 147.551 76.9628 150.075 68.7786C152.059 62.3344 157.863 57.9298 161.701 52.3761C168.102 43.1193 168.724 31.2206 170.368 20.0772C171.041 15.5444 172.291 10.4761 176.29 8.22538C182.009 5.00228 189.207 9.9725 192.133 15.8495C195.06 21.7266 195.732 28.6308 199.291 34.1587C201.49 37.5869 204.723 40.3477 206.425 44.0543C212.081 56.383 198.451 68.8327 196.297 82.2177C194.241 94.9599 202.73 109.067 196.39 120.308C192.516 127.173 183.928 130.832 181.357 138.282C178.435 146.734 184.529 155.293 187.88 163.579C192.889 175.974 189.006 193.844 175.923 196.656" fill="#5AB290"/>
<path d="M172.683 194.016C167.758 196.375 162.677 194.728 158.578 191.352C153.935 187.521 151.165 182.132 150.2 176.111C148.958 168.434 149.707 160.623 149.477 152.892C149.364 148.944 148.875 145.078 148.088 141.214C147.301 137.349 146.351 133.416 146.113 129.432C145.651 121.937 148.902 115.093 151.395 108.213C152.673 104.663 153.84 100.996 154.258 97.2361C154.676 93.4758 154.292 90.0037 153.633 86.4247C152.375 79.6233 150.301 72.6353 153.942 66.199C156.037 62.5014 159.278 59.5179 161.927 56.2327C164.576 52.9474 166.621 49.3259 168.053 45.3977C170.89 37.5724 171.587 29.2556 172.768 21.074C173.286 17.4598 173.924 12.7955 177.216 10.5887C179.378 9.13749 181.824 9.63318 184.136 10.8321C190.261 14.0002 191.686 21.5949 193.726 27.7689C195.043 31.7424 196.84 35.3327 199.49 38.5867C201.702 41.3028 204.282 44.2158 205.013 47.5315C206.203 52.9751 203.677 58.3589 201.256 63.3125C198.495 68.9692 195.313 74.541 194.032 80.771C192.752 87.001 193.986 93.5633 195.088 99.8121C196.081 105.482 197.274 111.778 195.119 117.181C193.762 120.59 191.171 123.187 188.498 125.614C185.404 128.434 182.26 131.187 180.17 134.862C176.556 141.218 178.345 148.477 181.114 154.754C182.476 157.848 184.049 160.857 185.35 163.98C186.585 166.945 187.271 170.031 187.45 173.232C187.798 179.203 186.34 185.714 182.334 190.176C180.656 192.047 178.282 193.57 175.67 194.164C174.357 194.462 173.285 195.447 173.435 196.91C173.56 198.134 174.853 199.444 176.18 199.145C191.054 195.78 194.95 177.752 191.004 164.907C189.007 158.395 184.605 152.683 183.377 145.907C182.788 142.655 183.125 139.422 184.917 136.587C187.145 133.074 190.618 130.487 193.583 127.652C196.372 124.971 198.836 121.897 200.055 118.182C201.112 114.968 201.39 111.648 201.222 108.275C200.894 101.676 198.953 95.2862 198.527 88.6981C198.331 85.6118 198.579 82.5513 199.432 79.5708C200.286 76.5904 201.683 73.6537 203.058 70.8402C205.835 65.1961 209.215 59.476 210.08 53.1394C210.505 50.0679 210.244 46.903 209.115 43.9978C207.486 39.8217 204.161 36.8571 201.685 33.2298C197.17 26.627 197.327 17.8182 192.311 11.4657C188.163 6.21859 180.763 2.39925 174.475 6.38433C170.498 8.91013 168.935 13.7758 168.148 18.164C167.361 22.5521 166.99 26.7768 166.329 31.0739C165.668 35.371 164.93 39.2707 163.532 43.1742C162.133 47.0776 160.057 50.6739 157.333 53.9241C154.406 57.4085 151.172 60.6684 149.038 64.7468C147.195 68.2623 146.622 72.1806 146.868 76.1075C147.317 83.3331 150.254 90.2753 149.154 97.5814C147.99 105.299 144.026 112.259 142.11 119.777C141.098 123.776 140.841 127.861 141.319 131.963C141.796 136.065 142.861 140.079 143.584 144.149C145.02 152.204 144.312 160.344 144.527 168.475C144.723 175.869 145.861 183.294 150.163 189.492C153.732 194.628 159.248 199.067 165.584 199.996C168.593 200.434 171.69 200.003 174.435 198.691C175.655 198.111 176.403 196.812 175.896 195.47C175.455 194.286 173.902 193.422 172.676 194.009L172.683 194.016Z" fill="#260305"/>
<path d="M118.162 228.604C112.593 231.427 105.267 228.325 102.184 222.9C99.1015 217.474 99.681 210.548 102.253 204.857C105.132 198.513 110.427 192.746 110.131 185.779C109.546 171.895 88.0576 166.273 87.3339 152.393C86.8738 143.519 95.5233 134.506 91.2395 126.716C89.3514 123.288 85.5049 121.53 82.3003 119.277C73.1772 112.852 68.5533 100.64 71.1485 89.7908C71.9872 86.3003 73.4844 82.6425 72.2837 79.267C71.5477 77.1991 69.9103 75.6221 68.6097 73.8632C62.9643 66.2588 64.2087 54.3961 71.3179 48.1311C73.7706 45.9664 77.1126 44.4067 80.2964 45.1821C83.2669 45.9106 85.3801 48.4378 87.6842 50.4429C94.1951 56.1281 103.042 58.0967 110.96 61.553C118.879 65.0093 126.832 71.3706 127.17 80.0077C127.453 87.3769 122.033 94.5538 124.044 101.65C125.563 107.005 130.749 110.281 135.138 113.708C145.951 122.159 154.021 135.503 152.301 149.11C150.647 162.194 140.585 172.729 137.183 185.473C135.303 192.515 135.526 199.954 133.925 207.067C132.324 214.18 118.189 228.596 118.189 228.596L118.162 228.604Z" fill="#5AB290"/>
<path d="M116.86 226.471C114.18 227.774 110.965 227.141 108.494 225.739C105.518 224.053 103.683 221.199 102.933 217.873C102.131 214.349 102.718 210.461 103.999 207.119C105.519 203.189 108.069 199.748 109.963 196.008C111.856 192.269 113.106 188.228 112.467 184.064C112.006 181.065 110.742 178.292 108.944 175.855C105.264 170.903 100.205 167.308 95.8516 163.015C91.7765 158.986 88.9378 154.624 90.1501 148.778C91.4673 142.443 95.8008 136.373 94.798 129.684C94.1543 125.382 91.4198 122.406 87.9512 120.011C86.331 118.886 84.5798 117.941 83.0294 116.729C81.5751 115.592 80.2151 114.301 79.0381 112.881C74.5445 107.501 72.1941 99.9819 73.1062 93.0081C73.6121 89.1447 75.4149 85.4473 75.2253 81.5039C75.1199 79.2992 74.3289 77.2699 73.0514 75.4894C71.8936 73.8871 70.533 72.4708 69.5629 70.7312C66.4194 65.1024 67.0383 57.493 70.8378 52.328C72.6508 49.8747 75.7589 47.2114 79.0252 47.4973C81.1984 47.6817 82.906 49.4445 84.4101 50.8474C86.2316 52.5465 88.1339 54.0961 90.2537 55.4109C98.0659 60.2644 107.457 61.7087 115.222 66.6501C120.797 70.1941 125.61 75.826 124.5 82.8294C123.907 86.6005 122.387 90.1323 121.604 93.8573C120.773 97.7955 120.935 101.769 122.881 105.365C124.826 108.961 128.098 111.488 131.258 113.887C134.418 116.286 137.291 118.689 139.898 121.586C144.776 126.991 148.611 133.801 149.694 141.079C150.996 149.804 147.719 157.706 143.71 165.258C141.537 169.347 139.228 173.373 137.359 177.614C135.49 181.855 134.189 186.369 133.542 191.043C132.894 195.716 132.672 200.233 131.823 204.774C131.677 205.571 131.509 206.366 131.292 207.147C131.257 207.275 131.212 207.399 131.168 207.523C131.054 207.882 131.328 207.121 131.192 207.479C131.062 207.784 130.931 208.089 130.792 208.388C130.236 209.566 129.57 210.695 128.864 211.791C126.023 216.212 122.315 220.472 118.591 224.507C117.855 225.303 117.118 226.099 116.36 226.871C114.104 229.177 117.719 232.628 119.97 230.331C122.739 227.496 125.378 224.523 127.877 221.452C131.79 216.666 135.674 211.66 136.777 205.449C137.62 200.687 137.83 195.835 138.571 191.053C139.311 186.27 140.787 181.874 142.882 177.55C147.016 169.008 152.696 160.927 154.448 151.429C155.969 143.181 154.149 134.847 150.199 127.533C146.25 120.219 140.555 114.747 134.106 109.811C131.1 107.506 127.633 104.919 126.49 101.12C125.433 97.5836 126.683 93.8375 127.715 90.4515C128.839 86.7283 130.03 82.8372 129.594 78.9084C129.158 74.9797 127.424 71.4757 124.91 68.4483C119.224 61.5943 110.723 58.7327 102.679 55.6975C98.1639 53.9989 93.4987 52.0943 89.785 48.9532C86.0714 45.8121 82.6309 41.8071 77.2097 42.6081C69.1725 43.7924 63.7287 52.0246 62.8017 59.6153C62.344 63.3683 62.6603 67.2664 64.1066 70.7973C64.8504 72.6193 65.7779 74.2904 67.0001 75.8366C68.2224 77.3828 69.8848 79.0188 70.2043 81.1004C70.4788 82.9077 69.9275 84.792 69.4618 86.5179C68.9505 88.4124 68.4351 90.2934 68.2082 92.2505C67.7272 96.3205 68.0283 100.415 69.1214 104.369C70.2145 108.323 71.9231 111.768 74.291 114.876C76.9166 118.327 80.0722 120.86 83.7088 123.175C85.3887 124.253 87.1884 125.361 88.4404 126.957C89.365 128.149 89.8458 129.511 89.9427 130.847C90.1515 133.892 88.8775 137.136 87.7596 140.112C86.5099 143.438 85.2474 146.745 84.9341 150.315C84.6476 153.603 85.4238 156.818 86.9751 159.712C89.946 165.282 95.3094 169.177 99.8584 173.36C102.094 175.408 104.104 177.39 105.634 179.796C107.165 182.202 108.028 184.793 107.593 187.831C106.969 192.165 104.342 195.917 102.216 199.622C100.091 203.328 98.3398 207.246 97.8294 211.539C97.3189 215.831 97.8706 220.072 99.9039 223.863C101.763 227.344 105.033 229.939 108.718 231.281C112.404 232.622 116.079 232.402 119.501 230.737C120.718 230.145 120.988 228.381 120.333 227.3C119.576 226.051 118.114 225.875 116.896 226.468L116.86 226.471Z" fill="#260305"/>
</svg>
