<svg width="54" height="54" viewBox="0 0 54 54" fill="none" xmlns="http://www.w3.org/2000/svg">
<path fill-rule="evenodd" clip-rule="evenodd" d="M25.409 5.15901C26.2877 4.28033 27.7123 4.28033 28.591 5.15901L35.341 11.909C36.2197 12.7877 36.2197 14.2123 35.341 15.091C34.4623 15.9697 33.0377 15.9697 32.159 15.091L29.25 12.182V31.5C29.25 32.7426 28.2426 33.75 27 33.75C25.7574 33.75 24.75 32.7426 24.75 31.5V12.182L21.841 15.091C20.9623 15.9697 19.5377 15.9697 18.659 15.091C17.7803 14.2123 17.7803 12.7877 18.659 11.909L25.409 5.15901ZM10.977 19.977C12.2429 18.7112 13.9598 18 15.75 18H18C19.2426 18 20.25 19.0074 20.25 20.25C20.25 21.4926 19.2426 22.5 18 22.5H15.75C15.1533 22.5 14.581 22.7371 14.159 23.159C13.7371 23.581 13.5 24.1533 13.5 24.75V42.75C13.5 43.3467 13.7371 43.919 14.159 44.341C14.581 44.7629 15.1533 45 15.75 45H38.25C38.8467 45 39.419 44.7629 39.841 44.341C40.2629 43.919 40.5 43.3467 40.5 42.75V24.75C40.5 24.1533 40.2629 23.581 39.841 23.159C39.419 22.7371 38.8467 22.5 38.25 22.5H36C34.7574 22.5 33.75 21.4926 33.75 20.25C33.75 19.0074 34.7574 18 36 18H38.25C40.0402 18 41.7571 18.7112 43.023 19.977C44.2888 21.2429 45 22.9598 45 24.75V42.75C45 44.5402 44.2888 46.2571 43.023 47.523C41.7571 48.7888 40.0402 49.5 38.25 49.5H15.75C13.9598 49.5 12.2429 48.7888 10.977 47.523C9.71116 46.2571 9 44.5402 9 42.75V24.75C9 22.9598 9.71116 21.2429 10.977 19.977Z" fill="black"/>
</svg>
