<svg width="120" height="137" viewBox="0 0 120 137" fill="none" xmlns="http://www.w3.org/2000/svg">
<path d="M43.2903 58.8566C41.8003 40.0066 43.1403 20.9366 47.2603 2.47656C53.8303 13.4266 60.4003 24.3666 66.9703 35.3166C67.5003 36.1966 68.1103 37.1466 69.0803 37.4566C69.9303 37.7366 70.8603 37.4566 71.7203 37.1866C86.8503 32.3266 101.99 31.5866 117.12 26.7266C106.4 41.5966 93.9703 46.7666 84.0603 60.5466C83.5403 61.2766 83.0103 62.0966 83.0803 62.9966C83.1403 63.8266 83.6903 64.5366 84.2203 65.1766C94.4203 77.6266 104.62 90.0666 114.82 102.517C99.4503 103.687 86.5003 91.9465 72.2003 86.1965C71.3203 85.8465 70.3703 85.5066 69.4503 85.7366C68.0603 86.0866 67.3103 87.5466 66.7203 88.8566C59.5103 104.837 50.4203 119.957 39.7003 133.827C35.2903 121.567 40.6103 108.077 40.1403 95.0566C40.1103 94.2166 40.0203 93.3065 39.4203 92.7265C38.8703 92.1965 38.0503 92.0966 37.2903 92.0266C26.5503 91.0166 15.8103 90.0065 5.07027 89.0065C2.31027 88.7465 1.48027 85.1166 3.85027 83.6866C20.2103 73.8266 43.2803 58.8666 43.2803 58.8666L43.2903 58.8566Z" fill="#DCE89C"/>
<path d="M45.792 58.8553C44.342 40.2053 45.622 21.4053 49.682 3.14531L45.112 3.7453C51.512 14.4053 57.912 25.0653 64.312 35.7253C65.892 38.3553 67.682 40.5453 71.082 39.9453C72.492 39.6953 73.862 39.1353 75.242 38.7353C76.812 38.2853 78.382 37.8653 79.972 37.4753C85.832 36.0353 91.782 34.9953 97.712 33.8853C104.482 32.6153 111.242 31.2353 117.812 29.1353L114.992 25.4653C111.232 30.6453 106.702 35.1553 101.912 39.3653C97.572 43.1853 93.052 46.8153 88.982 50.9353C86.722 53.2253 84.632 55.6653 82.702 58.2353C81.722 59.5453 80.702 60.9053 80.622 62.6053C80.542 64.3053 81.462 65.6553 82.492 66.9353C87.262 72.8853 92.172 78.7453 97.002 84.6453C102.362 91.1853 107.732 97.7353 113.092 104.275L114.862 100.005C101.562 100.925 90.262 92.1153 78.942 86.4953C77.412 85.7353 75.872 85.0253 74.302 84.3553C72.572 83.6253 70.742 82.8153 68.822 83.3153C65.302 84.2453 64.162 88.6053 62.792 91.4853C59.552 98.3153 55.972 104.975 52.062 111.435C47.642 118.745 42.802 125.785 37.582 132.545L42.152 133.145C38.702 123.285 41.492 112.765 42.412 102.715C42.642 100.175 42.812 97.5953 42.682 95.0453C42.542 92.0753 41.112 89.9953 38.042 89.5953C32.382 88.8653 26.652 88.5053 20.962 87.9753C18.152 87.7153 15.342 87.4453 12.532 87.1853C11.212 87.0653 9.892 86.9353 8.562 86.8153C7.822 86.7453 7.07199 86.6753 6.33199 86.6053C6.06199 86.5853 5.79199 86.5753 5.53199 86.5353C5.41199 86.5153 5.03199 86.4453 5.292 86.5353C4.93199 86.4253 5.04199 86.3653 5.17199 86.4853C4.67199 85.9853 5.22199 86.6653 5.03199 86.3053C4.98199 86.2053 4.992 86.2353 4.992 86.1553C4.992 86.0753 4.94199 86.1053 5.00199 85.9853C5.15199 85.7153 4.70199 86.1453 5.18199 85.7753C4.95199 85.9553 5.53199 85.5853 5.58199 85.5553C7.34199 84.4953 9.092 83.4253 10.852 82.3453C18.072 77.9053 25.242 73.3853 32.382 68.8253C36.452 66.2353 40.512 63.6253 44.562 61.0053C47.252 59.2653 44.752 54.9253 42.042 56.6853C31.352 63.6153 20.602 70.4553 9.76199 77.1453C7.93199 78.2753 6.10199 79.3953 4.27199 80.5053C2.44199 81.6153 0.611995 82.6453 0.131995 84.8753C-0.348005 87.1053 0.501994 89.2953 2.34199 90.5653C3.18199 91.1453 4.10199 91.3653 5.10199 91.4853C6.66199 91.6653 8.242 91.7753 9.812 91.9253C15.682 92.4753 21.542 93.0253 27.412 93.5753C30.302 93.8453 33.192 94.1153 36.092 94.3853C36.542 94.4253 37.362 94.6753 37.812 94.5853C37.522 94.6453 37.662 93.9453 37.662 94.6653C37.672 95.9853 37.722 97.3053 37.672 98.6253C37.252 110.545 33.222 122.745 37.322 134.455C38.082 136.635 40.572 136.755 41.892 135.055C50.852 123.445 58.682 110.985 65.222 97.8653C66.032 96.2453 66.822 94.6053 67.592 92.9653C67.972 92.1453 68.352 91.3253 68.732 90.4953C69.012 89.8753 69.332 88.7453 69.882 88.2953C70.472 87.8153 71.622 88.5753 72.302 88.8653C73.822 89.5053 75.302 90.2253 76.772 90.9553C82.532 93.8453 88.022 97.2553 93.842 100.025C100.422 103.155 107.472 105.475 114.852 104.965C117.122 104.805 118.012 102.395 116.622 100.695C107.472 89.5353 98.322 78.3653 89.172 67.2053C88.112 65.9153 86.992 64.6553 85.992 63.3253C85.892 63.1953 85.612 62.8553 85.572 62.6853C85.532 62.4953 85.502 63.0653 85.622 62.7453C85.892 62.0153 86.552 61.3253 87.012 60.7153C88.722 58.4453 90.642 56.3153 92.652 54.2953C96.592 50.3253 100.942 46.7953 105.152 43.1153C110.392 38.5253 115.212 33.5853 119.302 27.9453C120.592 26.1653 118.452 23.6453 116.482 24.2753C105.452 27.7953 93.952 29.2253 82.672 31.6853C79.892 32.2853 77.132 32.9553 74.392 33.7353C73.682 33.9353 72.972 34.1453 72.262 34.3653C71.672 34.5453 70.812 34.9853 70.202 34.9953C69.482 34.9953 69.282 34.2353 68.892 33.5953C65.862 28.5553 62.832 23.5053 59.802 18.4553C56.342 12.6953 52.892 6.9453 49.432 1.1853C48.372 -0.574696 45.342 -0.37469 44.862 1.78531C40.712 20.4753 39.312 39.7353 40.802 58.8253C40.902 60.1753 41.872 61.3253 43.302 61.3253C44.572 61.3253 45.912 60.1753 45.802 58.8253L45.792 58.8553Z" fill="#101010"/>
</svg>
