<svg width="176" height="169" viewBox="0 0 176 169" fill="none" xmlns="http://www.w3.org/2000/svg">
<path d="M88.7511 65.1651C104.959 55.4266 122.626 48.1232 140.987 43.5801C134.115 54.3432 127.252 65.1019 120.38 75.865C119.829 76.7318 119.25 77.7014 119.405 78.7078C119.534 79.5935 120.199 80.3011 120.824 80.9505C131.92 92.3263 139.333 105.548 150.429 116.924C132.34 113.959 122.17 105.138 105.417 102.412C104.531 102.272 103.561 102.163 102.787 102.627C102.071 103.051 101.68 103.859 101.344 104.619C94.7478 119.3 88.1607 133.977 81.5647 148.658C73.6644 135.422 78.3987 118.596 77.1695 103.233C77.0904 102.289 76.9711 101.287 76.355 100.566C75.422 99.4778 73.7807 99.4574 72.3451 99.5134C54.8267 100.185 37.2399 98.7901 20.0451 95.379C29.0527 85.9652 43.4996 84.7122 54.9441 78.4862C55.6826 78.0848 56.4571 77.5985 56.7087 76.8029C56.9379 76.0742 56.6617 75.2957 56.3855 74.5842C52.5009 64.5205 48.6162 54.4569 44.7226 44.3977C43.7247 41.8113 46.6038 39.4499 48.9405 40.9336C65.0607 51.181 88.7377 65.1606 88.7377 65.1606L88.7511 65.1651Z" fill="#F6BFD7"/>
<path d="M89.8654 67.4022C105.912 57.7887 123.311 50.552 141.466 46.0444L138.891 42.2213C132.203 52.703 125.515 63.1846 118.827 73.6663C117.177 76.2532 116.015 78.8318 118.068 81.6076C118.92 82.7583 120.032 83.7349 121.006 84.7917C122.109 85.9964 123.185 87.2144 124.243 88.4637C128.144 93.0669 131.728 97.929 135.366 102.742C139.521 108.236 143.77 113.671 148.58 118.616L150.607 114.455C144.294 113.399 138.237 111.355 132.333 108.945C126.979 106.763 121.714 104.336 116.212 102.53C113.154 101.528 110.039 100.745 106.878 100.164C105.268 99.8706 103.596 99.564 102.039 100.25C100.481 100.937 99.6831 102.362 98.9966 103.855C95.7977 110.777 92.7417 117.785 89.6142 124.739C86.1501 132.453 82.6816 140.18 79.2176 147.894L83.8289 147.574C77.0752 136.08 79.9226 122.037 79.9057 109.399C79.9038 107.69 79.8527 105.995 79.7524 104.291C79.6344 102.417 79.5435 100.418 78.2399 98.9224C75.838 96.1863 71.427 97.1099 68.2383 97.1678C60.6802 97.313 53.1226 97.0781 45.5969 96.4586C37.083 95.7616 28.6235 94.5683 20.2452 92.9101L21.7458 97.2682C29.0332 89.7838 39.6935 87.5905 49.0994 83.9329C51.4755 83.0063 53.8607 82.0081 56.0852 80.7547C58.6812 79.3051 59.9054 77.0977 58.8946 74.1714C57.0244 68.7797 54.7917 63.4903 52.7291 58.1609C51.7089 55.5298 50.6977 52.8942 49.6775 50.263C49.1964 49.028 48.7242 47.7885 48.2386 46.5445C47.9713 45.8509 47.6995 45.1484 47.4322 44.4548C47.3297 44.2042 47.2183 43.9581 47.1382 43.7075C47.1026 43.5912 46.9958 43.2199 47.0312 43.4927C46.9691 43.1214 47.0719 43.1931 47.0224 43.363C47.247 42.6925 46.8836 43.488 47.1211 43.1574C47.1883 43.0681 47.1659 43.0904 47.2376 43.0548C47.3092 43.0191 47.26 42.9877 47.3942 42.9879C47.7027 43.0018 47.1172 42.7907 47.6624 43.0554C47.3987 42.9298 47.9885 43.284 48.0377 43.3153C49.7712 44.4181 51.5092 45.5074 53.2607 46.6012C60.4541 51.0841 67.6969 55.4866 74.9621 59.8444C79.0951 62.3326 83.2415 64.8029 87.3925 67.2599C90.1494 68.8919 92.9194 64.719 90.1357 63.0781C79.1663 56.5994 68.2507 50.0269 57.4292 43.307C55.6018 42.1728 53.7833 41.0342 51.9738 39.8911C50.1643 38.748 48.4264 37.5692 46.2163 38.1339C44.0062 38.6985 42.425 40.4358 42.1086 42.6491C41.964 43.6596 42.1773 44.5811 42.5157 45.5297C43.0502 47.0063 43.6562 48.4696 44.222 49.9418C46.347 55.4413 48.4675 60.9317 50.5925 66.4312C51.6394 69.1384 52.6863 71.8456 53.7377 74.5618C53.9025 74.9824 54.0443 75.8278 54.3255 76.1905C54.1425 75.9577 54.8315 75.7709 54.1871 76.0919C53.01 76.6894 51.8508 77.3227 50.6469 77.8665C39.7901 82.8054 27.0731 84.6379 18.4196 93.529C16.8072 95.1812 17.81 97.4635 19.9202 97.8871C34.3073 100.731 48.9514 102.183 63.6111 102.188C65.4223 102.19 67.2425 102.166 69.0538 102.124C69.9572 102.099 70.8606 102.073 71.773 102.043C72.4528 102.017 73.6069 101.8 74.2549 102.092C74.9476 102.406 74.7801 103.774 74.8237 104.512C74.9286 106.158 74.944 107.804 74.9461 109.445C74.9275 115.889 74.3231 122.324 74.4387 128.768C74.5709 136.054 75.6377 143.398 79.3847 149.777C80.5401 151.737 83.0941 151.459 83.996 149.457C89.9055 136.291 95.8239 123.121 101.733 109.954C102.415 108.431 103.044 106.866 103.789 105.378C103.86 105.231 104.04 104.828 104.174 104.717C104.326 104.596 103.803 104.824 104.143 104.788C104.916 104.704 105.828 104.988 106.579 105.127C109.374 105.646 112.136 106.415 114.841 107.313C120.151 109.07 125.25 111.389 130.421 113.517C136.866 116.161 143.437 118.272 150.309 119.419C152.478 119.78 153.779 116.741 152.337 115.258C144.268 106.955 137.86 97.2987 130.629 88.2989C128.852 86.078 127.022 83.9063 125.102 81.8015C124.607 81.2552 124.102 80.7133 123.589 80.1759C123.164 79.728 122.387 79.1544 122.106 78.6129C121.785 77.9684 122.376 77.4505 122.775 76.8161C125.935 71.8567 129.105 66.8929 132.274 61.9291C135.887 56.2638 139.495 50.612 143.108 44.9467C144.211 43.2132 142.681 40.5902 140.534 41.1236C121.954 45.7424 104.09 53.0769 87.6673 62.9223C86.5035 63.6138 85.9067 64.9948 86.5443 66.2747C87.1105 67.4115 88.7374 68.0982 89.8967 67.3978L89.8654 67.4022Z" fill="#101010"/>
</svg>
