<svg width="127" height="31" viewBox="0 0 127 31" fill="none" xmlns="http://www.w3.org/2000/svg">
<path d="M1.1849 21.7788C7.5049 25.6088 15.2049 26.0588 22.2749 24.3088C29.3449 22.5588 36.1049 18.1488 41.7949 13.2088C45.0549 10.3788 48.0849 7.29882 51.1149 4.22882L46.8449 2.4588C46.5349 7.4688 46.3049 12.6888 47.7549 17.5588C49.1349 22.1688 52.0849 26.1388 56.3549 28.4288C64.8549 32.9888 75.0249 30.8088 81.9849 24.5288C86.0349 20.8788 88.8849 16.0888 90.7749 11.0188L86.5949 12.1188C99.7449 26.9588 121.695 32.4688 140.605 27.2788C145.955 25.8088 151.095 23.4488 155.635 20.2588C156.735 19.4888 157.255 18.0688 156.535 16.8388C155.895 15.7488 154.225 15.1588 153.115 15.9388C138.325 26.3288 117.825 26.7488 102.105 18.1188C97.5849 15.6388 93.5549 12.4488 90.1349 8.5888C88.7849 7.0688 86.5649 8.05881 85.9549 9.68881C83.3249 16.7688 77.8649 23.6088 70.2249 25.4388C63.2249 27.1188 55.2649 24.0988 52.8149 16.9788C51.2149 12.3288 51.5449 7.2888 51.8449 2.4588C51.9849 0.258797 49.0349 -0.791192 47.5749 0.688808C41.3249 7.02881 34.9149 13.5588 26.7749 17.4288C19.6349 20.8288 10.6849 21.6788 3.71489 17.4588C0.954892 15.7888 -1.5651 20.1088 1.1949 21.7788H1.1849Z" fill="#260305"/>
</svg>
